<svg width="1053" height="339" viewBox="0 0 1053 339" fill="none" xmlns="http://www.w3.org/2000/svg">
<g filter="url(#filter0_d_427_250)">
<path d="M224.116 56.9402C241.878 66.2356 255.641 79.7675 265.41 97.53C275.173 115.298 280.054 136.652 280.054 161.586V294.994H210.17V240.287H113.825V294.994H45V161.586C45 136.646 49.8814 115.298 59.6443 97.53C69.4071 79.7675 83.1698 66.2415 100.938 56.9402C118.701 47.6507 139.232 43 162.527 43C185.822 43 206.347 47.6507 224.116 56.9402ZM210.176 186.295V155.586C210.176 137.469 205.821 123.825 197.117 114.648C188.407 105.47 176.763 100.885 162.178 100.885C147.593 100.885 135.587 105.47 126.884 114.648C118.174 123.825 113.825 137.475 113.825 155.586V186.295H210.176Z" fill="#FFECFD"/>
</g>
<g filter="url(#filter1_d_427_250)">
<path d="M684.698 68.9396C701.046 86.2347 709.229 111.239 709.229 143.936V294.994H639.345V146.06C639.345 131.238 635.463 120.002 627.7 112.352C619.937 104.707 609.577 100.879 596.643 100.879C582.756 100.879 571.762 104.938 563.644 113.056C555.526 121.174 551.467 133.351 551.467 149.587V295H481.583V146.06C481.583 131.238 477.991 120.002 470.82 112.352C463.643 104.707 453.821 100.879 441.348 100.879C427.935 100.879 417.225 104.938 409.231 113.056C401.232 121.174 397.232 133.351 397.232 149.587V295H327.348V47.9406H395.114V75.4718C402.64 64.8806 412.35 56.8278 424.231 51.2955C436.112 45.7691 449.934 43 465.702 43C481.471 43 496.109 45.9466 508.233 51.8221C520.35 57.7035 530.172 66.2948 537.705 77.5842C546.178 66.2888 557.23 57.7035 570.881 51.8221C584.525 45.9407 599.702 43 616.411 43C645.581 43 668.349 51.6446 684.704 68.9396H684.698Z" fill="#FFECFD"/>
</g>
<g filter="url(#filter2_d_427_250)">
<path d="M1007.46 47.9407L901.575 295H832.75L727.222 47.9407H802.751L869.807 208.88L938.283 47.9407H1007.46Z" fill="#FFECFD"/>
</g>
<defs>
<filter id="filter0_d_427_250" x="35" y="33" width="275.054" height="291.994" filterUnits="userSpaceOnUse" color-interpolation-filters="sRGB">
<feFlood flood-opacity="0" result="BackgroundImageFix"/>
<feColorMatrix in="SourceAlpha" type="matrix" values="0 0 0 0 0 0 0 0 0 0 0 0 0 0 0 0 0 0 127 0" result="hardAlpha"/>
<feOffset dx="10" dy="10"/>
<feGaussianBlur stdDeviation="10"/>
<feComposite in2="hardAlpha" operator="out"/>
<feColorMatrix type="matrix" values="0 0 0 0 0 0 0 0 0 0 0 0 0 0 0 0 0 0 0.4 0"/>
<feBlend mode="normal" in2="BackgroundImageFix" result="effect1_dropShadow_427_250"/>
<feBlend mode="normal" in="SourceGraphic" in2="effect1_dropShadow_427_250" result="shape"/>
</filter>
<filter id="filter1_d_427_250" x="317.348" y="33" width="421.882" height="292" filterUnits="userSpaceOnUse" color-interpolation-filters="sRGB">
<feFlood flood-opacity="0" result="BackgroundImageFix"/>
<feColorMatrix in="SourceAlpha" type="matrix" values="0 0 0 0 0 0 0 0 0 0 0 0 0 0 0 0 0 0 127 0" result="hardAlpha"/>
<feOffset dx="10" dy="10"/>
<feGaussianBlur stdDeviation="10"/>
<feComposite in2="hardAlpha" operator="out"/>
<feColorMatrix type="matrix" values="0 0 0 0 0 0 0 0 0 0 0 0 0 0 0 0 0 0 0.4 0"/>
<feBlend mode="normal" in2="BackgroundImageFix" result="effect1_dropShadow_427_250"/>
<feBlend mode="normal" in="SourceGraphic" in2="effect1_dropShadow_427_250" result="shape"/>
</filter>
<filter id="filter2_d_427_250" x="717.222" y="37.9407" width="320.235" height="287.059" filterUnits="userSpaceOnUse" color-interpolation-filters="sRGB">
<feFlood flood-opacity="0" result="BackgroundImageFix"/>
<feColorMatrix in="SourceAlpha" type="matrix" values="0 0 0 0 0 0 0 0 0 0 0 0 0 0 0 0 0 0 127 0" result="hardAlpha"/>
<feOffset dx="10" dy="10"/>
<feGaussianBlur stdDeviation="10"/>
<feComposite in2="hardAlpha" operator="out"/>
<feColorMatrix type="matrix" values="0 0 0 0 0 0 0 0 0 0 0 0 0 0 0 0 0 0 0.4 0"/>
<feBlend mode="normal" in2="BackgroundImageFix" result="effect1_dropShadow_427_250"/>
<feBlend mode="normal" in="SourceGraphic" in2="effect1_dropShadow_427_250" result="shape"/>
</filter>
</defs>
</svg>
