<svg width="1160" height="630" viewBox="0 0 1160 630" fill="none" xmlns="http://www.w3.org/2000/svg">
<g filter="url(#filter0_d_421_84)">
<path d="M218.928 81.949C234.193 89.9167 246.02 101.516 254.415 116.741C262.805 131.971 267 150.275 267 171.648V286H206.943V239.107H124.147V286H65V171.648C65 150.27 69.195 131.971 77.585 116.741C85.9749 101.516 97.8022 89.9218 113.072 81.949C128.337 73.9864 145.981 70 166 70C186.019 70 203.658 73.9864 218.928 81.949ZM206.948 192.827V166.505C206.948 150.975 203.206 139.28 195.726 131.414C188.241 123.547 178.234 119.617 165.7 119.617C153.166 119.617 142.849 123.547 135.369 131.414C127.884 139.28 124.147 150.98 124.147 166.505V192.827H206.948Z" fill="#FFECFD"/>
</g>
<g filter="url(#filter1_d_421_84)">
<path d="M332.32 283.662C316.184 279.431 303.081 273.792 293 266.74L312.66 222.616C322.138 228.863 333.126 233.904 345.631 237.724C358.131 241.555 370.433 243.465 382.532 243.465C405.519 243.465 417.015 237.724 417.015 226.239C417.015 220.195 413.734 215.711 407.182 212.793C400.626 209.874 390.093 206.799 375.575 203.577C359.642 200.152 346.336 196.474 335.647 192.547C324.957 188.621 315.784 182.323 308.122 173.659C300.454 165.001 296.626 153.313 296.626 138.605C296.626 125.716 300.15 114.078 307.214 103.697C314.273 93.3208 324.805 85.1132 338.821 79.0689C352.832 73.0247 370.022 70 390.392 70C404.307 70 418.019 71.5605 431.528 74.6865C445.037 77.8124 456.938 82.3925 467.222 88.4368L448.769 132.859C428.602 121.982 409.038 116.54 390.088 116.54C378.187 116.54 369.52 118.309 364.074 121.83C358.628 125.356 355.91 129.941 355.91 135.58C355.91 141.219 359.135 145.454 365.59 148.271C372.041 151.093 382.426 154.012 396.746 157.036C412.877 160.466 426.239 164.14 436.827 168.066C447.415 171.992 456.588 178.244 464.352 186.802C472.111 195.369 476 207.002 476 221.704C476 234.396 472.471 245.881 465.412 256.156C458.353 266.431 447.765 274.644 433.653 280.784C419.535 286.925 402.395 290 382.233 290C365.094 290 348.456 287.887 332.325 283.652L332.32 283.662Z" fill="#FFECFD"/>
</g>
<g filter="url(#filter2_d_421_84)">
<path d="M587.703 121.117V239.883H622V286H493V239.883H527.602V121.117H493V75H622V121.117H587.703Z" fill="#FFECFD"/>
</g>
<g filter="url(#filter3_d_421_84)">
<path d="M806.924 81.949C822.188 89.9167 834.015 101.516 842.41 116.741C850.8 131.971 855 150.275 855 171.648V286H794.945V239.107H712.145V286H653V171.648C653 150.27 657.195 131.971 665.585 116.741C673.974 101.516 685.801 89.9218 701.071 81.949C716.335 73.9864 733.979 70 753.997 70C774.016 70 791.655 73.9864 806.924 81.949ZM794.945 192.827V166.505C794.945 150.975 791.202 139.28 783.723 131.414C776.238 123.547 766.231 119.617 753.697 119.617C741.164 119.617 730.847 123.547 723.367 131.414C715.882 139.28 712.145 150.98 712.145 166.505V192.827H794.945Z" fill="#FFECFD"/>
</g>
<g filter="url(#filter4_d_421_84)">
<path d="M1075.02 94.0496C1089.01 110.081 1096 132.924 1096 162.572V286H1035.79V164.388C1035.79 149.467 1032.4 138.274 1025.6 130.809C1018.81 123.348 1009.34 119.616 997.175 119.616C985.011 119.616 974.469 123.602 966.766 131.564C959.059 139.532 955.21 151.481 955.21 167.41V286H895V74.2348H953.385V98.4365C967.776 79.4839 988.656 70 1016.03 70C1041.37 70 1061.03 78.0182 1075.02 94.0496Z" fill="#FFECFD"/>
</g>
<g filter="url(#filter5_d_421_84)">
<path d="M403 345V468.732C403 498.584 394.47 521.421 377.41 537.255C360.345 553.088 336.268 561 305.179 561C291.246 561 278.68 559.083 267.474 555.254C256.268 551.425 246.829 545.978 239.157 538.918C231.48 545.978 222.047 551.425 210.841 555.254C199.635 559.083 186.962 561 172.831 561C141.94 561 117.909 553.038 100.747 537.103C83.5808 521.173 75 498.381 75 468.732V345H134.969V466.917C134.969 482.04 138.046 493.233 144.205 500.496C150.364 507.758 159.6 511.384 171.917 511.384C184.235 511.384 193.466 507.753 199.63 500.496C205.789 493.233 208.866 482.04 208.866 466.917V345H268.835V466.917C268.835 482.04 271.962 493.233 278.223 500.496C284.478 507.758 293.866 511.384 306.387 511.384C318.908 511.384 327.89 507.753 333.947 500.496C340.005 493.233 343.031 482.04 343.031 466.917V345H403Z" fill="#FFECFD"/>
</g>
<g filter="url(#filter6_d_421_84)">
<path d="M595.924 352.004C611.188 360.009 623.015 371.662 631.41 386.957C639.8 402.258 644 420.647 644 442.118V557H583.945V509.89H501.145V557H442V442.118C442 420.642 446.195 402.258 454.585 386.957C462.974 371.662 474.801 360.014 490.071 352.004C505.335 344.005 522.979 340 542.997 340C563.016 340 580.655 344.005 595.924 352.004ZM583.945 463.396V436.952C583.945 421.35 580.202 409.601 572.723 401.698C565.238 393.795 555.231 389.846 542.697 389.846C530.164 389.846 519.847 393.795 512.367 401.698C504.883 409.601 501.145 421.355 501.145 436.952V463.396H583.945Z" fill="#FFECFD"/>
</g>
<g filter="url(#filter7_d_421_84)">
<path d="M894 345L802.942 557H743.753L653 345H717.954L775.622 483.101L834.506 345H893.995H894Z" fill="#FFECFD"/>
</g>
<g filter="url(#filter8_d_421_84)">
<path d="M1086 540.659C1075.07 546.934 1061.81 551.89 1046.23 555.534C1030.64 559.178 1014.45 561 997.65 561C974.98 561 955.7 558.267 939.814 552.801C923.924 547.336 911.983 539.748 903.992 530.033C895.996 520.318 892 509.086 892 496.338C892 485.208 895.034 475.391 901.106 466.892C907.178 458.393 915.576 451.818 926.306 447.162C918.004 442.912 911.682 436.993 907.331 429.401C902.974 421.813 900.805 413.461 900.805 404.357C900.805 392.621 904.496 381.894 911.886 372.178C919.271 362.463 930.561 354.677 945.739 348.804C960.917 342.936 979.637 340 1001.91 340C1015.87 340 1029.63 341.318 1043.19 343.944C1056.75 346.575 1068.7 350.117 1079.02 354.57L1062.62 399.497C1043.8 391.202 1024.37 387.049 1004.33 387.049C989.954 387.049 979.23 388.922 972.145 392.667C965.06 396.413 961.517 401.624 961.517 408.301C961.517 420.444 970.323 426.515 987.929 426.515H1048.04V472.353H983.984C973.662 472.353 965.869 474.022 960.606 477.36C955.338 480.699 952.712 485.61 952.712 492.083C952.712 498.964 956.555 504.328 964.251 508.17C971.941 512.017 983.882 513.936 1000.08 513.936C1011.62 513.936 1023.5 512.368 1035.75 509.228C1048 506.094 1058.68 501.793 1067.78 496.328L1086 540.649V540.659Z" fill="#FFECFD"/>
</g>
<defs>
<filter id="filter0_d_421_84" x="55" y="60" width="242" height="256" filterUnits="userSpaceOnUse" color-interpolation-filters="sRGB">
<feFlood flood-opacity="0" result="BackgroundImageFix"/>
<feColorMatrix in="SourceAlpha" type="matrix" values="0 0 0 0 0 0 0 0 0 0 0 0 0 0 0 0 0 0 127 0" result="hardAlpha"/>
<feOffset dx="10" dy="10"/>
<feGaussianBlur stdDeviation="10"/>
<feComposite in2="hardAlpha" operator="out"/>
<feColorMatrix type="matrix" values="0 0 0 0 0 0 0 0 0 0 0 0 0 0 0 0 0 0 0.4 0"/>
<feBlend mode="normal" in2="BackgroundImageFix" result="effect1_dropShadow_421_84"/>
<feBlend mode="normal" in="SourceGraphic" in2="effect1_dropShadow_421_84" result="shape"/>
</filter>
<filter id="filter1_d_421_84" x="283" y="60" width="223" height="260" filterUnits="userSpaceOnUse" color-interpolation-filters="sRGB">
<feFlood flood-opacity="0" result="BackgroundImageFix"/>
<feColorMatrix in="SourceAlpha" type="matrix" values="0 0 0 0 0 0 0 0 0 0 0 0 0 0 0 0 0 0 127 0" result="hardAlpha"/>
<feOffset dx="10" dy="10"/>
<feGaussianBlur stdDeviation="10"/>
<feComposite in2="hardAlpha" operator="out"/>
<feColorMatrix type="matrix" values="0 0 0 0 0 0 0 0 0 0 0 0 0 0 0 0 0 0 0.4 0"/>
<feBlend mode="normal" in2="BackgroundImageFix" result="effect1_dropShadow_421_84"/>
<feBlend mode="normal" in="SourceGraphic" in2="effect1_dropShadow_421_84" result="shape"/>
</filter>
<filter id="filter2_d_421_84" x="483" y="65" width="169" height="251" filterUnits="userSpaceOnUse" color-interpolation-filters="sRGB">
<feFlood flood-opacity="0" result="BackgroundImageFix"/>
<feColorMatrix in="SourceAlpha" type="matrix" values="0 0 0 0 0 0 0 0 0 0 0 0 0 0 0 0 0 0 127 0" result="hardAlpha"/>
<feOffset dx="10" dy="10"/>
<feGaussianBlur stdDeviation="10"/>
<feComposite in2="hardAlpha" operator="out"/>
<feColorMatrix type="matrix" values="0 0 0 0 0 0 0 0 0 0 0 0 0 0 0 0 0 0 0.4 0"/>
<feBlend mode="normal" in2="BackgroundImageFix" result="effect1_dropShadow_421_84"/>
<feBlend mode="normal" in="SourceGraphic" in2="effect1_dropShadow_421_84" result="shape"/>
</filter>
<filter id="filter3_d_421_84" x="643" y="60" width="242" height="256" filterUnits="userSpaceOnUse" color-interpolation-filters="sRGB">
<feFlood flood-opacity="0" result="BackgroundImageFix"/>
<feColorMatrix in="SourceAlpha" type="matrix" values="0 0 0 0 0 0 0 0 0 0 0 0 0 0 0 0 0 0 127 0" result="hardAlpha"/>
<feOffset dx="10" dy="10"/>
<feGaussianBlur stdDeviation="10"/>
<feComposite in2="hardAlpha" operator="out"/>
<feColorMatrix type="matrix" values="0 0 0 0 0 0 0 0 0 0 0 0 0 0 0 0 0 0 0.4 0"/>
<feBlend mode="normal" in2="BackgroundImageFix" result="effect1_dropShadow_421_84"/>
<feBlend mode="normal" in="SourceGraphic" in2="effect1_dropShadow_421_84" result="shape"/>
</filter>
<filter id="filter4_d_421_84" x="885" y="60" width="241" height="256" filterUnits="userSpaceOnUse" color-interpolation-filters="sRGB">
<feFlood flood-opacity="0" result="BackgroundImageFix"/>
<feColorMatrix in="SourceAlpha" type="matrix" values="0 0 0 0 0 0 0 0 0 0 0 0 0 0 0 0 0 0 127 0" result="hardAlpha"/>
<feOffset dx="10" dy="10"/>
<feGaussianBlur stdDeviation="10"/>
<feComposite in2="hardAlpha" operator="out"/>
<feColorMatrix type="matrix" values="0 0 0 0 0 0 0 0 0 0 0 0 0 0 0 0 0 0 0.4 0"/>
<feBlend mode="normal" in2="BackgroundImageFix" result="effect1_dropShadow_421_84"/>
<feBlend mode="normal" in="SourceGraphic" in2="effect1_dropShadow_421_84" result="shape"/>
</filter>
<filter id="filter5_d_421_84" x="65" y="335" width="368" height="256" filterUnits="userSpaceOnUse" color-interpolation-filters="sRGB">
<feFlood flood-opacity="0" result="BackgroundImageFix"/>
<feColorMatrix in="SourceAlpha" type="matrix" values="0 0 0 0 0 0 0 0 0 0 0 0 0 0 0 0 0 0 127 0" result="hardAlpha"/>
<feOffset dx="10" dy="10"/>
<feGaussianBlur stdDeviation="10"/>
<feComposite in2="hardAlpha" operator="out"/>
<feColorMatrix type="matrix" values="0 0 0 0 0 0 0 0 0 0 0 0 0 0 0 0 0 0 0.4 0"/>
<feBlend mode="normal" in2="BackgroundImageFix" result="effect1_dropShadow_421_84"/>
<feBlend mode="normal" in="SourceGraphic" in2="effect1_dropShadow_421_84" result="shape"/>
</filter>
<filter id="filter6_d_421_84" x="432" y="330" width="242" height="257" filterUnits="userSpaceOnUse" color-interpolation-filters="sRGB">
<feFlood flood-opacity="0" result="BackgroundImageFix"/>
<feColorMatrix in="SourceAlpha" type="matrix" values="0 0 0 0 0 0 0 0 0 0 0 0 0 0 0 0 0 0 127 0" result="hardAlpha"/>
<feOffset dx="10" dy="10"/>
<feGaussianBlur stdDeviation="10"/>
<feComposite in2="hardAlpha" operator="out"/>
<feColorMatrix type="matrix" values="0 0 0 0 0 0 0 0 0 0 0 0 0 0 0 0 0 0 0.4 0"/>
<feBlend mode="normal" in2="BackgroundImageFix" result="effect1_dropShadow_421_84"/>
<feBlend mode="normal" in="SourceGraphic" in2="effect1_dropShadow_421_84" result="shape"/>
</filter>
<filter id="filter7_d_421_84" x="643" y="335" width="281" height="252" filterUnits="userSpaceOnUse" color-interpolation-filters="sRGB">
<feFlood flood-opacity="0" result="BackgroundImageFix"/>
<feColorMatrix in="SourceAlpha" type="matrix" values="0 0 0 0 0 0 0 0 0 0 0 0 0 0 0 0 0 0 127 0" result="hardAlpha"/>
<feOffset dx="10" dy="10"/>
<feGaussianBlur stdDeviation="10"/>
<feComposite in2="hardAlpha" operator="out"/>
<feColorMatrix type="matrix" values="0 0 0 0 0 0 0 0 0 0 0 0 0 0 0 0 0 0 0.4 0"/>
<feBlend mode="normal" in2="BackgroundImageFix" result="effect1_dropShadow_421_84"/>
<feBlend mode="normal" in="SourceGraphic" in2="effect1_dropShadow_421_84" result="shape"/>
</filter>
<filter id="filter8_d_421_84" x="882" y="330" width="234" height="261" filterUnits="userSpaceOnUse" color-interpolation-filters="sRGB">
<feFlood flood-opacity="0" result="BackgroundImageFix"/>
<feColorMatrix in="SourceAlpha" type="matrix" values="0 0 0 0 0 0 0 0 0 0 0 0 0 0 0 0 0 0 127 0" result="hardAlpha"/>
<feOffset dx="10" dy="10"/>
<feGaussianBlur stdDeviation="10"/>
<feComposite in2="hardAlpha" operator="out"/>
<feColorMatrix type="matrix" values="0 0 0 0 0 0 0 0 0 0 0 0 0 0 0 0 0 0 0.4 0"/>
<feBlend mode="normal" in2="BackgroundImageFix" result="effect1_dropShadow_421_84"/>
<feBlend mode="normal" in="SourceGraphic" in2="effect1_dropShadow_421_84" result="shape"/>
</filter>
</defs>
</svg>
