<svg width="1129" height="630" viewBox="0 0 1129 630" fill="none" xmlns="http://www.w3.org/2000/svg">
<g filter="url(#filter0_d_418_50)">
<path d="M99.9758 245.367C82.5584 236.117 68.8748 223.24 58.9249 206.721C48.975 190.211 44 171.511 44 150.625C44 129.738 48.975 111.038 58.9249 94.5239C68.8748 78.0148 82.5584 65.1327 99.9758 55.8776C117.388 46.6275 137.043 42 158.939 42C178.049 42 195.261 45.3869 210.586 52.1456C225.911 58.9093 238.649 68.6597 248.799 81.3917L211.182 115.41C197.643 99.1014 181.227 90.9419 161.922 90.9419C150.576 90.9419 140.476 93.4333 131.622 98.401C122.763 103.374 115.897 110.388 111.022 119.438C106.142 128.493 103.709 138.883 103.709 150.62C103.709 162.356 106.147 172.752 111.022 181.802C115.897 190.857 122.763 197.871 131.622 202.838C140.476 207.816 150.581 210.298 161.922 210.298C181.227 210.298 197.643 202.143 211.182 185.829L248.799 219.848C238.649 232.58 225.911 242.33 210.586 249.094C195.256 255.853 178.044 259.239 158.939 259.239C137.043 259.239 117.388 254.612 99.9758 245.362V245.367Z" fill="#FFECFD"/>
</g>
<g filter="url(#filter1_d_418_50)">
<path d="M301.642 247.008C287.708 239.844 276.812 229.898 268.949 217.166C261.086 204.439 257.157 190.011 257.157 173.897C257.157 157.784 261.086 143.661 268.949 130.924C276.807 118.197 287.653 108.296 301.491 101.233C315.32 94.1737 330.996 90.6367 348.513 90.6367C366.031 90.6367 381.751 94.1687 395.685 101.233C409.614 108.296 420.465 118.142 428.228 130.774C435.99 143.411 439.869 157.779 439.869 173.892C439.869 190.006 435.99 204.434 428.228 217.161C420.465 229.893 409.614 239.839 395.685 247.003C381.751 254.167 366.026 257.744 348.513 257.744C331.001 257.744 315.571 254.162 301.642 247.003V247.008ZM372.993 202.393C379.359 195.529 382.547 186.034 382.547 173.897C382.547 161.761 379.359 152.611 372.993 145.847C366.621 139.088 358.463 135.701 348.513 135.701C338.563 135.701 330.4 139.088 324.034 145.847C317.663 152.611 314.479 161.961 314.479 173.897C314.479 185.834 317.663 195.534 324.034 202.393C330.4 209.257 338.558 212.689 348.513 212.689C358.468 212.689 366.621 209.257 372.993 202.393Z" fill="#FFECFD"/>
</g>
<g filter="url(#filter2_d_418_50)">
<path d="M484.944 253.126C471.806 250.044 461.256 246.017 453.298 241.04L470.315 202.248C477.677 206.826 486.436 210.453 496.586 213.139C506.736 215.826 516.786 217.166 526.741 217.166C535.895 217.166 542.412 216.226 546.295 214.33C550.174 212.444 552.116 209.702 552.116 206.125C552.116 202.548 549.774 200.007 545.099 198.516C540.42 197.025 533.007 195.585 522.857 194.189C509.919 192.598 498.923 190.512 489.869 187.92C480.81 185.339 473.002 180.561 466.431 173.597C459.864 166.634 456.581 156.888 456.581 144.351C456.581 134.011 459.664 124.806 465.835 116.746C472.001 108.687 481.01 102.323 492.852 97.6457C504.689 92.9731 518.873 90.6318 535.394 90.6318C547.136 90.6318 558.778 91.8275 570.324 94.2138C581.866 96.6001 591.52 99.987 599.283 104.359L582.266 142.856C567.937 134.901 552.411 130.919 535.695 130.919C526.741 130.919 520.169 131.965 515.99 134.051C511.811 136.142 509.719 138.878 509.719 142.255C509.719 146.037 512.006 148.669 516.586 150.165C521.16 151.655 528.723 153.201 539.273 154.792C552.607 156.783 563.653 159.074 572.411 161.656C581.165 164.242 588.778 168.965 595.249 175.829C601.716 182.692 604.954 192.293 604.954 204.624C604.954 214.77 601.866 223.87 595.7 231.93C589.528 239.989 580.424 246.302 568.382 250.88C556.335 255.452 541.856 257.744 524.944 257.744C511.406 257.744 498.077 256.203 484.939 253.116L484.944 253.126Z" fill="#FFECFD"/>
</g>
<g filter="url(#filter3_d_418_50)">
<path d="M528.794 326.932C542.723 333.2 553.469 342.15 561.036 353.787C568.599 365.423 572.383 379.106 572.383 394.819C572.383 410.533 568.599 424.165 561.036 435.702C553.469 447.243 542.723 456.143 528.794 462.411C514.86 468.68 498.439 471.812 479.535 471.812H443.114V526.422H384V317.532H479.535C498.439 317.532 514.86 320.663 528.794 326.932ZM503.419 417.352C509.585 412.084 512.673 404.57 512.673 394.819C512.673 385.069 509.585 377.51 503.419 372.142C497.248 366.769 488.089 364.082 475.952 364.082H443.109V425.256H475.952C488.089 425.256 497.248 422.619 503.419 417.347V417.352Z" fill="#FFECFD"/>
</g>
<g filter="url(#filter4_d_418_50)">
<path d="M617.908 513.74C606.862 503.494 601.336 488.821 601.336 469.726V305H658.058V466.739C658.058 472.707 659.6 477.285 662.688 480.466C665.771 483.653 670.1 485.239 675.676 485.239C680.25 485.239 684.529 484.244 688.513 482.257L690.901 524.931C682.342 527.712 673.483 529.108 664.329 529.108C644.424 529.108 628.954 523.99 617.908 513.74Z" fill="#FFECFD"/>
</g>
<g filter="url(#filter5_d_418_50)">
<path d="M879.283 364.683V526.422H825.25V510.308C814.699 522.84 798.778 529.108 777.482 529.108C762.752 529.108 749.369 525.676 737.327 518.813C725.285 511.949 715.73 502.154 708.668 489.422C701.601 476.695 698.068 461.966 698.068 445.257C698.068 428.548 701.596 413.875 708.668 401.243C715.73 388.611 725.285 378.916 737.327 372.147C749.369 365.388 762.752 362.001 777.482 362.001C796.591 362.001 811.616 367.575 822.562 378.711V364.683H879.283ZM813.903 473.753C820.27 466.889 823.458 457.394 823.458 445.257C823.458 433.121 820.27 423.971 813.903 417.207C807.532 410.448 799.374 407.061 789.424 407.061C779.474 407.061 771.311 410.448 764.944 417.207C758.573 423.971 755.39 433.321 755.39 445.257C755.39 457.194 758.573 466.894 764.944 473.753C771.311 480.617 779.469 484.049 789.424 484.049C799.379 484.049 807.532 480.617 813.903 473.753Z" fill="#FFECFD"/>
</g>
<g filter="url(#filter6_d_418_50)">
<path d="M1085.87 364.683V496.881C1085.87 526.917 1077.86 549.449 1061.84 564.473C1045.81 579.491 1022.78 587.005 992.726 587.005C977.001 587.005 962.321 585.214 948.692 581.632C935.059 578.05 923.467 572.777 913.913 565.818L934.513 526.132C940.88 531.505 948.888 535.727 958.547 538.814C968.197 541.895 977.801 543.441 987.356 543.441C1001.69 543.441 1012.23 540.159 1019 533.596C1025.77 527.032 1029.15 517.287 1029.15 504.35V500.768C1017.01 512.309 1001.88 518.077 983.772 518.077C962.872 518.077 946.2 511.914 933.768 499.577C921.325 487.245 915.109 468.745 915.109 444.071V364.683H971.831V434.811C971.831 447.148 974.118 456.103 978.697 461.666C983.272 467.239 989.939 470.021 998.697 470.021C1007.46 470.021 1014.97 466.839 1020.64 460.47C1026.31 454.107 1029.15 444.557 1029.15 431.825V364.683H1085.87H1085.87Z" fill="#FFECFD"/>
</g>
<defs>
<filter id="filter0_d_418_50" x="34" y="32" width="244.799" height="257.239" filterUnits="userSpaceOnUse" color-interpolation-filters="sRGB">
<feFlood flood-opacity="0" result="BackgroundImageFix"/>
<feColorMatrix in="SourceAlpha" type="matrix" values="0 0 0 0 0 0 0 0 0 0 0 0 0 0 0 0 0 0 127 0" result="hardAlpha"/>
<feOffset dx="10" dy="10"/>
<feGaussianBlur stdDeviation="10"/>
<feComposite in2="hardAlpha" operator="out"/>
<feColorMatrix type="matrix" values="0 0 0 0 0 0 0 0 0 0 0 0 0 0 0 0 0 0 0.4 0"/>
<feBlend mode="normal" in2="BackgroundImageFix" result="effect1_dropShadow_418_50"/>
<feBlend mode="normal" in="SourceGraphic" in2="effect1_dropShadow_418_50" result="shape"/>
</filter>
<filter id="filter1_d_418_50" x="247.157" y="80.6367" width="222.712" height="207.107" filterUnits="userSpaceOnUse" color-interpolation-filters="sRGB">
<feFlood flood-opacity="0" result="BackgroundImageFix"/>
<feColorMatrix in="SourceAlpha" type="matrix" values="0 0 0 0 0 0 0 0 0 0 0 0 0 0 0 0 0 0 127 0" result="hardAlpha"/>
<feOffset dx="10" dy="10"/>
<feGaussianBlur stdDeviation="10"/>
<feComposite in2="hardAlpha" operator="out"/>
<feColorMatrix type="matrix" values="0 0 0 0 0 0 0 0 0 0 0 0 0 0 0 0 0 0 0.4 0"/>
<feBlend mode="normal" in2="BackgroundImageFix" result="effect1_dropShadow_418_50"/>
<feBlend mode="normal" in="SourceGraphic" in2="effect1_dropShadow_418_50" result="shape"/>
</filter>
<filter id="filter2_d_418_50" x="443.298" y="80.6318" width="191.656" height="207.112" filterUnits="userSpaceOnUse" color-interpolation-filters="sRGB">
<feFlood flood-opacity="0" result="BackgroundImageFix"/>
<feColorMatrix in="SourceAlpha" type="matrix" values="0 0 0 0 0 0 0 0 0 0 0 0 0 0 0 0 0 0 127 0" result="hardAlpha"/>
<feOffset dx="10" dy="10"/>
<feGaussianBlur stdDeviation="10"/>
<feComposite in2="hardAlpha" operator="out"/>
<feColorMatrix type="matrix" values="0 0 0 0 0 0 0 0 0 0 0 0 0 0 0 0 0 0 0.4 0"/>
<feBlend mode="normal" in2="BackgroundImageFix" result="effect1_dropShadow_418_50"/>
<feBlend mode="normal" in="SourceGraphic" in2="effect1_dropShadow_418_50" result="shape"/>
</filter>
<filter id="filter3_d_418_50" x="374" y="307.532" width="228.383" height="248.89" filterUnits="userSpaceOnUse" color-interpolation-filters="sRGB">
<feFlood flood-opacity="0" result="BackgroundImageFix"/>
<feColorMatrix in="SourceAlpha" type="matrix" values="0 0 0 0 0 0 0 0 0 0 0 0 0 0 0 0 0 0 127 0" result="hardAlpha"/>
<feOffset dx="10" dy="10"/>
<feGaussianBlur stdDeviation="10"/>
<feComposite in2="hardAlpha" operator="out"/>
<feColorMatrix type="matrix" values="0 0 0 0 0 0 0 0 0 0 0 0 0 0 0 0 0 0 0.4 0"/>
<feBlend mode="normal" in2="BackgroundImageFix" result="effect1_dropShadow_418_50"/>
<feBlend mode="normal" in="SourceGraphic" in2="effect1_dropShadow_418_50" result="shape"/>
</filter>
<filter id="filter4_d_418_50" x="591.336" y="295" width="129.564" height="264.108" filterUnits="userSpaceOnUse" color-interpolation-filters="sRGB">
<feFlood flood-opacity="0" result="BackgroundImageFix"/>
<feColorMatrix in="SourceAlpha" type="matrix" values="0 0 0 0 0 0 0 0 0 0 0 0 0 0 0 0 0 0 127 0" result="hardAlpha"/>
<feOffset dx="10" dy="10"/>
<feGaussianBlur stdDeviation="10"/>
<feComposite in2="hardAlpha" operator="out"/>
<feColorMatrix type="matrix" values="0 0 0 0 0 0 0 0 0 0 0 0 0 0 0 0 0 0 0.4 0"/>
<feBlend mode="normal" in2="BackgroundImageFix" result="effect1_dropShadow_418_50"/>
<feBlend mode="normal" in="SourceGraphic" in2="effect1_dropShadow_418_50" result="shape"/>
</filter>
<filter id="filter5_d_418_50" x="688.068" y="352.001" width="221.215" height="207.107" filterUnits="userSpaceOnUse" color-interpolation-filters="sRGB">
<feFlood flood-opacity="0" result="BackgroundImageFix"/>
<feColorMatrix in="SourceAlpha" type="matrix" values="0 0 0 0 0 0 0 0 0 0 0 0 0 0 0 0 0 0 127 0" result="hardAlpha"/>
<feOffset dx="10" dy="10"/>
<feGaussianBlur stdDeviation="10"/>
<feComposite in2="hardAlpha" operator="out"/>
<feColorMatrix type="matrix" values="0 0 0 0 0 0 0 0 0 0 0 0 0 0 0 0 0 0 0.4 0"/>
<feBlend mode="normal" in2="BackgroundImageFix" result="effect1_dropShadow_418_50"/>
<feBlend mode="normal" in="SourceGraphic" in2="effect1_dropShadow_418_50" result="shape"/>
</filter>
<filter id="filter6_d_418_50" x="903.913" y="354.683" width="211.961" height="262.322" filterUnits="userSpaceOnUse" color-interpolation-filters="sRGB">
<feFlood flood-opacity="0" result="BackgroundImageFix"/>
<feColorMatrix in="SourceAlpha" type="matrix" values="0 0 0 0 0 0 0 0 0 0 0 0 0 0 0 0 0 0 127 0" result="hardAlpha"/>
<feOffset dx="10" dy="10"/>
<feGaussianBlur stdDeviation="10"/>
<feComposite in2="hardAlpha" operator="out"/>
<feColorMatrix type="matrix" values="0 0 0 0 0 0 0 0 0 0 0 0 0 0 0 0 0 0 0.4 0"/>
<feBlend mode="normal" in2="BackgroundImageFix" result="effect1_dropShadow_418_50"/>
<feBlend mode="normal" in="SourceGraphic" in2="effect1_dropShadow_418_50" result="shape"/>
</filter>
</defs>
</svg>
