<svg width="2902" height="519" viewBox="0 0 2902 519" fill="none" xmlns="http://www.w3.org/2000/svg">
<g clip-path="url(#clip0_6_14)" filter="url(#filter0_i_6_14)">
<path d="M486.063 112.469H0V0H601.957V239.928C601.957 388.508 515.378 477.127 364.038 477.127H0V185.384H115.893V363.966H361.308C444.485 363.966 486.063 322.396 486.063 237.871V112.469Z" fill="white"/>
<path d="M856.233 185.384H1127.56C1174.6 185.384 1201.18 159.476 1208.01 112.448H802.371V477.106H686.478V0H1320.48V91.3273C1320.48 211.963 1261.85 278.076 1144.59 290.358L1325.94 477.106H1185.5L1001.44 292.394H856.233V185.384Z" fill="white"/>
<path d="M1520.22 477.106H1404.33V0H1520.22V477.106Z" fill="white"/>
<path d="M2242.84 0L1910.84 518.697L1580.19 0H1717.21L1884.24 280.133C1894.47 297.181 1903.33 315.573 1910.15 333.292C1917.65 315.573 1927.87 297.853 1938.1 280.805L2105.8 0H2242.84Z" fill="white"/>
<path d="M2901.37 112.469H2411.88V185.384H2889.08V292.394H2418.01C2432.33 338.751 2465.72 363.965 2536.63 363.965H2901.37V477.106H2534.6C2386.66 477.106 2295.99 385.779 2295.99 239.907V0H2901.37V112.469Z" fill="white"/>
</g>
<defs>
<filter id="filter0_i_6_14" x="0" y="0" width="2922" height="544" filterUnits="userSpaceOnUse" color-interpolation-filters="sRGB">
<feFlood flood-opacity="0" result="BackgroundImageFix"/>
<feBlend mode="normal" in="SourceGraphic" in2="BackgroundImageFix" result="shape"/>
<feColorMatrix in="SourceAlpha" type="matrix" values="0 0 0 0 0 0 0 0 0 0 0 0 0 0 0 0 0 0 127 0" result="hardAlpha"/>
<feOffset dx="20" dy="25"/>
<feGaussianBlur stdDeviation="25"/>
<feComposite in2="hardAlpha" operator="arithmetic" k2="-1" k3="1"/>
<feColorMatrix type="matrix" values="0 0 0 0 0.172549 0 0 0 0 0.137255 0 0 0 0 0.6 0 0 0 1 0"/>
<feBlend mode="normal" in2="shape" result="effect1_innerShadow_6_14"/>
</filter>
<clipPath id="clip0_6_14">
<rect width="2902" height="519" fill="white"/>
</clipPath>
</defs>
</svg>
