<svg width="770" height="361" viewBox="0 0 770 361" fill="none" xmlns="http://www.w3.org/2000/svg">
<g filter="url(#filter0_d_421_100)">
<path d="M154.501 127.462V244.538H188V290H62V244.538H95.7975V127.462H62V82H188V127.462H154.501Z" fill="#FFECFD"/>
</g>
<g filter="url(#filter1_d_421_100)">
<path d="M370.669 144.75C382.893 156.583 389 174.432 389 198.296V290H332.363V207.466C332.363 185.575 323.517 174.63 305.831 174.63C296.091 174.63 288.29 177.789 282.433 184.097C276.571 190.411 273.637 199.878 273.637 212.495V290H217V129.663H270.958V147.115C277.315 140.609 284.866 135.629 293.612 132.178C302.353 128.731 311.893 127 322.228 127C342.298 127 358.445 132.917 370.669 144.75Z" fill="#FFECFD"/>
</g>
<g filter="url(#filter2_d_421_100)">
<path d="M479.183 135H517.663V177.163H480.673V290H424V130.843C424 111.245 429.916 95.7082 441.748 84.2239C453.579 72.7446 470.132 67 491.415 67C498.576 67 505.532 67.6969 512.298 69.0808C519.054 70.4697 524.624 72.5455 529 75.3183L514.978 115.108C509.407 111.941 503.741 110.358 497.976 110.358C492.21 110.358 487.384 112.141 484.104 115.705C480.823 119.269 479.183 124.516 479.183 131.44V135.005V135Z" fill="#FFECFD"/>
</g>
<g filter="url(#filter3_d_421_100)">
<path d="M571.306 282.335C557.426 275.219 546.573 265.339 538.746 252.691C530.914 240.049 527 225.716 527 209.709C527 193.702 530.914 179.673 538.746 167.02C546.573 154.378 557.377 144.543 571.161 137.526C584.936 130.514 600.551 127 618 127C635.449 127 651.109 130.509 664.988 137.526C678.863 144.543 689.671 154.323 697.404 166.871C705.136 179.424 709 193.697 709 209.704C709 225.711 705.136 240.044 697.404 252.686C689.671 265.334 678.863 275.214 664.988 282.33C651.109 289.447 635.444 293 618 293C600.556 293 585.186 289.442 571.311 282.33L571.306 282.335ZM642.379 238.016C648.721 231.198 651.896 221.766 651.896 209.709C651.896 197.653 648.721 188.564 642.379 181.845C636.032 175.131 627.906 171.766 617.995 171.766C608.084 171.766 599.953 175.131 593.611 181.845C587.265 188.564 584.094 197.852 584.094 209.709C584.094 221.567 587.265 231.203 593.611 238.016C599.953 244.834 608.079 248.244 617.995 248.244C627.911 248.244 636.032 244.834 642.379 238.016Z" fill="#FFECFD"/>
</g>
<defs>
<filter id="filter0_d_421_100" x="52" y="72" width="166" height="248" filterUnits="userSpaceOnUse" color-interpolation-filters="sRGB">
<feFlood flood-opacity="0" result="BackgroundImageFix"/>
<feColorMatrix in="SourceAlpha" type="matrix" values="0 0 0 0 0 0 0 0 0 0 0 0 0 0 0 0 0 0 127 0" result="hardAlpha"/>
<feOffset dx="10" dy="10"/>
<feGaussianBlur stdDeviation="10"/>
<feComposite in2="hardAlpha" operator="out"/>
<feColorMatrix type="matrix" values="0 0 0 0 0 0 0 0 0 0 0 0 0 0 0 0 0 0 0.4 0"/>
<feBlend mode="normal" in2="BackgroundImageFix" result="effect1_dropShadow_421_100"/>
<feBlend mode="normal" in="SourceGraphic" in2="effect1_dropShadow_421_100" result="shape"/>
</filter>
<filter id="filter1_d_421_100" x="207" y="117" width="212" height="203" filterUnits="userSpaceOnUse" color-interpolation-filters="sRGB">
<feFlood flood-opacity="0" result="BackgroundImageFix"/>
<feColorMatrix in="SourceAlpha" type="matrix" values="0 0 0 0 0 0 0 0 0 0 0 0 0 0 0 0 0 0 127 0" result="hardAlpha"/>
<feOffset dx="10" dy="10"/>
<feGaussianBlur stdDeviation="10"/>
<feComposite in2="hardAlpha" operator="out"/>
<feColorMatrix type="matrix" values="0 0 0 0 0 0 0 0 0 0 0 0 0 0 0 0 0 0 0.4 0"/>
<feBlend mode="normal" in2="BackgroundImageFix" result="effect1_dropShadow_421_100"/>
<feBlend mode="normal" in="SourceGraphic" in2="effect1_dropShadow_421_100" result="shape"/>
</filter>
<filter id="filter2_d_421_100" x="414" y="57" width="145" height="263" filterUnits="userSpaceOnUse" color-interpolation-filters="sRGB">
<feFlood flood-opacity="0" result="BackgroundImageFix"/>
<feColorMatrix in="SourceAlpha" type="matrix" values="0 0 0 0 0 0 0 0 0 0 0 0 0 0 0 0 0 0 127 0" result="hardAlpha"/>
<feOffset dx="10" dy="10"/>
<feGaussianBlur stdDeviation="10"/>
<feComposite in2="hardAlpha" operator="out"/>
<feColorMatrix type="matrix" values="0 0 0 0 0 0 0 0 0 0 0 0 0 0 0 0 0 0 0.4 0"/>
<feBlend mode="normal" in2="BackgroundImageFix" result="effect1_dropShadow_421_100"/>
<feBlend mode="normal" in="SourceGraphic" in2="effect1_dropShadow_421_100" result="shape"/>
</filter>
<filter id="filter3_d_421_100" x="517" y="117" width="222" height="206" filterUnits="userSpaceOnUse" color-interpolation-filters="sRGB">
<feFlood flood-opacity="0" result="BackgroundImageFix"/>
<feColorMatrix in="SourceAlpha" type="matrix" values="0 0 0 0 0 0 0 0 0 0 0 0 0 0 0 0 0 0 127 0" result="hardAlpha"/>
<feOffset dx="10" dy="10"/>
<feGaussianBlur stdDeviation="10"/>
<feComposite in2="hardAlpha" operator="out"/>
<feColorMatrix type="matrix" values="0 0 0 0 0 0 0 0 0 0 0 0 0 0 0 0 0 0 0.4 0"/>
<feBlend mode="normal" in2="BackgroundImageFix" result="effect1_dropShadow_421_100"/>
<feBlend mode="normal" in="SourceGraphic" in2="effect1_dropShadow_421_100" result="shape"/>
</filter>
</defs>
</svg>
