<svg width="60" height="60" viewBox="0 0 60 60" fill="none" xmlns="http://www.w3.org/2000/svg">
<path d="M34.0518 32.2835C34.8281 33.5222 36.8413 34.6408 40.0913 35.6395C41.4186 36.042 42.4102 36.2432 43.0662 36.2432C43.6333 36.2432 44.1097 36.2505 44.4982 36.2652L46.2206 36.3101H46.489C47.6819 36.3101 48.5675 36.1311 49.146 35.7732L52.8107 33.425L54.6898 29.5771C54.5554 29.0707 53.6392 28.7042 51.9412 28.4776C50.8728 28.3421 49.7969 28.2747 48.7199 28.2761C46.2768 28.2761 44.2712 28.5372 42.7033 29.0594L43.5756 27.227L42.3231 24.8779C44.0225 24.6687 45.7324 24.5567 47.4446 24.5426C51.2474 24.5426 54.2149 25.2145 56.3472 26.5582C57.5387 27.2998 58.4693 28.3945 59.0096 29.6898L57.1772 36.5126L49.9971 49.2622L49.4822 47.0029L45.9292 48.8618L51.1185 41.9501L53.2257 41.7046L51.8615 40.8324L52.5102 38.64C50.2435 39.3265 47.5744 39.6694 44.5027 39.6688C39.1486 39.6688 35.2117 38.4909 32.6922 36.1351C31.7827 35.6428 30.9179 34.8375 30.0976 33.7191C28.8149 31.9747 28.1736 29.8647 28.1736 27.3892C28.1795 25.6837 28.4665 23.9908 29.0229 22.3786C29.619 20.6488 30.4317 19.1726 31.4609 17.9498C32.4277 16.8137 33.412 16.1565 34.4137 15.9781C35.0098 14.4267 36.8813 13.0622 40.0281 11.8846C42.9654 10.7663 45.7167 10.2071 48.282 10.2071C49.2214 10.2071 49.9595 10.3115 50.4964 10.5204L50.9884 11.6382L52.1071 12.6231L50.7419 13.2488L51.8606 14.3675L43.6965 13.8755C42.3845 13.9799 40.9009 14.6136 39.2457 15.7766C37.4854 17.014 36.4935 18.2292 36.2699 19.4221C34.0033 21.3607 32.8702 23.8885 32.8709 27.0053C32.8684 28.7351 33.2621 30.4945 34.0518 32.2835Z" fill="#D0CEE8"/>
<path d="M27.2721 27.3855C27.2792 25.5801 27.5825 23.7881 28.1699 22.0808C28.8021 20.2485 29.678 18.6607 30.7746 17.3561C31.7357 16.2328 32.7426 15.509 33.7788 15.1939C33.9487 14.8716 34.1526 14.5684 34.3872 14.2896C34.3972 14.1265 34.4064 13.9616 34.4137 13.7903C34.7035 13.2531 34.8606 12.6543 34.8718 12.044C34.8698 11.2769 34.6198 10.5309 34.159 9.91757L34.1499 9.90475C33.1943 8.64133 31.9849 8 30.5538 8C27.9097 8 27.622 9.70502 27.622 10.438C27.6251 10.6575 27.645 10.8765 27.6816 11.093L26.9486 18.1971V18.2439C26.9486 18.7322 26.9202 19.3048 26.8634 19.9461C26.7489 21.0657 26.5327 21.4358 26.4585 21.533H25.8043L24.278 27.7438C22.1976 26.8298 20.2792 25.5844 18.5976 24.0561C16.0479 21.707 14.8074 18.811 14.8074 15.1985C14.809 14.6766 14.8374 14.1553 14.8926 13.6364L14.932 13.2488L12.3419 10.1897L10.756 13.0738L10.4711 13.05L9.21865 10.7944L6.52048 11.7206L3.83698 22.7286C3.37889 23.5724 3.15351 24.8505 3.15351 26.6279V27.6128C3.15351 29.8409 2.85025 31.644 2.25198 32.9605L2.21442 33.0421L0 42.4879L6.26762 41.011L8.84668 29.7136L8.3327 29.1208L9.04549 28.3201L10.4537 22.4482C10.5593 22.8096 10.6844 23.165 10.8284 23.5128V23.522C11.8976 26.0333 13.4707 27.8015 15.5009 28.7763L15.6842 28.8679H15.9068C16.1294 28.8679 17.0758 29.0603 19.9105 31.5249C22.2431 33.8621 22.561 34.8524 22.5922 35.163L22.4117 35.5158L23.3682 37.8456L29.7137 43.3757L28.8378 40.3734C28.6577 39.7669 28.5651 39.1379 28.563 38.5053C28.547 37.628 28.7558 36.7613 29.1695 35.9876C29.3664 35.6087 29.6309 35.269 29.9501 34.9853C29.7549 34.7562 29.5625 34.5144 29.3738 34.2569C27.9784 32.3613 27.2721 30.0489 27.2721 27.3855Z" fill="#D0CEE8"/>
<path d="M59.8754 29.3297C59.262 27.8635 58.2084 26.6239 56.8602 25.7822C54.589 24.353 51.43 23.6283 47.4703 23.6283C45.7223 23.643 43.9766 23.7571 42.2416 23.97L40.9067 24.1258L42.5742 27.2527L40.9764 30.6123L43.0176 29.9325C44.4835 29.4442 46.4075 29.1996 48.7447 29.1996C49.7815 29.1985 50.8174 29.2633 51.846 29.3938C52.7997 29.5184 53.3219 29.6687 53.5995 29.7814L52.1272 32.7956L48.6833 34.9999C48.3846 35.1832 47.7671 35.3976 46.5083 35.3976H46.2517L44.5467 35.3536C44.1436 35.338 43.6525 35.3307 43.0854 35.3307C42.6988 35.3307 41.9145 35.2327 40.3799 34.7672C36.7069 33.6385 35.3592 32.5684 34.8828 31.8519C34.1673 30.2111 33.8045 28.5821 33.8045 27.009C33.8045 24.1468 34.8123 21.8939 36.8828 20.122L37.1256 19.9104L37.1852 19.5934C37.3629 18.6488 38.2379 17.6172 39.7871 16.5278C41.2714 15.4843 42.5953 14.9016 43.7267 14.7953L54.2345 15.4293L52.3398 13.5337L53.7892 12.8686L51.7635 11.0857L51.2001 9.80304L50.8464 9.66561C50.1968 9.41275 49.364 9.28998 48.3003 9.28998C45.6351 9.28998 42.7492 9.8745 39.7248 11.0252C37.1815 11.9781 35.4188 13.0537 34.3908 14.2887C34.2882 15.9112 34.0243 17.1289 33.591 18.0001C33.3161 18.5499 33.1732 19.2892 33.1732 20.1852C33.1732 20.2961 33.1732 20.5792 33.1952 21.303V21.379L31.3848 34.2569L30.8681 34.4402C30.5321 34.5626 30.2215 34.7458 29.9519 34.9807C30.6528 35.8053 31.3958 36.4374 32.1682 36.8745C34.8544 39.3317 39.0084 40.5768 44.5192 40.5768C46.9764 40.5768 49.2119 40.3578 51.1891 39.9244L50.8546 41.0532L50.643 41.0779L45.2155 48.3121L46.3718 49.6745L48.8748 48.368L49.6526 51.7826L58.0513 36.8598L59.9973 29.6219L59.8754 29.3297Z" fill="#D0CEE8"/>
</svg>
