<svg id="Слой_1" data-name="Слой 1" xmlns="http://www.w3.org/2000/svg" viewBox="0 0 654.89 477.87"><path d="M962.05,609.05q12.71,20.28,65.92,36.63,21.73,6.59,32.47,6.59c6.19,0,11.39.08,15.63.24l18.8.49h2.93q19.53,0,29-5.86l40-25.63,20.51-42q-2.2-8.29-30-12a276.57,276.57,0,0,0-35.16-2.2q-40,0-65.67,8.55l9.52-20-13.67-25.64a490.25,490.25,0,0,1,55.9-3.66q62.26,0,97.17,22a73.66,73.66,0,0,1,29.06,34.18l-20,74.47-78.37,139.16-5.62-24.66L1091.69,790l56.64-75.44,23-2.68-14.89-9.52,7.08-23.93q-37.11,11.24-87.4,11.23-87.66,0-128.91-38.57-14.89-8.06-28.32-26.37-21-28.56-21-69.09a169.44,169.44,0,0,1,9.27-54.69q9.76-28.32,26.61-48.34Q949.6,434,966,431.08q9.76-25.4,61.28-44.68,48.09-18.31,90.09-18.31,15.38,0,24.17,3.42l5.37,12.2,12.21,10.75-14.9,6.83,12.21,12.21-89.11-5.37q-21.48,1.71-48.58,20.75-28.82,20.26-32.48,39.79-37.11,31.74-37.1,82.77Q949.12,579.76,962.05,609.05Z" transform="translate(-590.38 -343.96)"/><path d="M888.05,555.59a180.16,180.16,0,0,1,9.8-57.9c6.9-20,16.46-37.33,28.43-51.57,10.49-12.26,21.48-20.16,32.79-23.6a55.62,55.62,0,0,1,6.64-9.87c.11-1.78.21-3.58.29-5.45a41.76,41.76,0,0,0,5-19.06,38.81,38.81,0,0,0-7.78-23.21l-.1-.14C952.69,351,939.49,344,923.87,344c-28.86,0-32,18.61-32,26.61a46.88,46.88,0,0,0,.65,7.15l-8,77.54v.51c0,5.33-.31,11.58-.93,18.58-1.25,12.22-3.61,16.26-4.42,17.32h-7.14l-16.66,67.79a229.31,229.31,0,0,1-62-40.25C765.54,493.61,752,462,752,422.57a166.17,166.17,0,0,1,.93-17.05l.43-4.23L725.09,367.9l-17.31,31.48-3.11-.26L691,374.5l-29.45,10.11L632.26,504.76c-5,9.21-7.46,23.16-7.46,42.56v10.75c0,24.32-3.31,44-9.84,58.37l-.41.89-24.17,103.1,68.41-16.12L686.94,581l-5.61-6.47,7.78-8.74,15.37-64.09a113.91,113.91,0,0,0,4.09,11.62l0,.1c11.67,27.41,28.84,46.71,51,57.35l2,1H764c2.43,0,12.76,2.1,43.7,29,25.46,25.51,28.93,36.32,29.27,39.71L835,644.33l10.44,25.43,69.26,60.36-9.56-32.77a72.48,72.48,0,0,1-3-20.39,56.11,56.11,0,0,1,6.62-27.48,38.22,38.22,0,0,1,8.52-10.94c-2.13-2.5-4.23-5.14-6.29-7.95C895.76,609.9,888.05,584.66,888.05,555.59Z" transform="translate(-590.38 -343.96)"/><path d="M1243.91,576.81A83.76,83.76,0,0,0,1211,538.09c-24.79-15.6-59.27-23.51-102.49-23.51a503.41,503.41,0,0,0-57.07,3.73l-14.57,1.7,18.2,34.13-17.44,36.67,22.28-7.42c16-5.33,37-8,62.51-8a266.66,266.66,0,0,1,33.85,2.12c10.41,1.36,16.11,3,19.14,4.23l-16.07,32.9-37.59,24.06c-3.26,2-10,4.34-23.74,4.34h-2.8l-18.61-.48c-4.4-.17-9.76-.25-15.95-.25-4.22,0-12.78-1.07-29.53-6.15-40.09-12.32-54.8-24-60-31.82-7.81-17.91-11.77-35.69-11.77-52.86,0-31.24,11-55.83,33.6-75.17L995.6,474l.65-3.46c1.94-10.31,11.49-21.57,28.4-33.46,16.2-11.39,30.65-17.75,43-18.91l114.69,6.92-20.68-20.69,15.82-7.26-22.11-19.46-6.15-14-3.86-1.5c-7.09-2.76-16.18-4.1-27.79-4.1-29.09,0-60.59,6.38-93.6,18.94-27.76,10.4-47,22.14-58.22,35.62-1.12,17.71-4,31-8.73,40.51-3,6-4.56,14.07-4.56,23.85,0,1.21,0,4.3.24,12.2l0,.83L932.94,630.59l-5.64,2a31.8,31.8,0,0,0-10,5.9c7.65,9,15.76,15.9,24.19,20.67,29.32,26.82,74.66,40.41,134.81,40.41,26.82,0,51.22-2.39,72.8-7.12l-3.65,12.32-2.31.27L1083.9,784l12.62,14.87,27.32-14.26,8.49,37.27L1224,659l21.24-79Z" transform="translate(-590.38 -343.96)"/></svg>