<svg width="391" height="120" viewBox="0 0 391 120" fill="none" xmlns="http://www.w3.org/2000/svg">
<g filter="url(#filter0_d_418_43)">
<path d="M58.8735 82.3709H45.8598V104.909H22V20.0886H60.5603C68.1903 20.0886 74.8184 21.3603 80.4424 23.9056C86.0644 26.4509 90.4017 30.0851 93.4561 34.8101C96.5085 39.5351 98.0357 45.0909 98.0357 51.4715C98.0357 57.8521 96.6095 62.9631 93.7571 67.5276C90.9047 72.0921 86.828 75.6673 81.5272 78.2513L99.7225 104.909H74.176L58.8735 82.3709ZM70.2003 42.2632C67.7095 40.0815 64.0127 38.9907 59.1139 38.9907H45.8598V63.8305H59.1139C64.0127 63.8305 67.7095 62.7599 70.2003 60.6188C72.6891 58.4798 73.9356 55.4286 73.9356 51.4695C73.9356 47.5103 72.6891 44.4409 70.2003 42.2612V42.2632Z" fill="#FFFCB9"/>
</g>
<g filter="url(#filter1_d_418_43)">
<path d="M178.768 39.2344V104.909H156.957V97.8806C154.547 100.546 151.654 102.567 148.28 103.94C144.907 105.313 141.331 106 137.556 106C129.122 106 122.393 103.497 117.372 98.4879C112.35 93.4806 109.841 85.9685 109.841 75.9497V39.2344H132.736V72.1937C132.736 77.1218 133.659 80.7174 135.507 82.9783C137.354 85.2413 140.044 86.3707 143.582 86.3707C147.119 86.3707 150.149 85.0991 152.438 82.5537C154.727 80.0084 155.872 76.1122 155.872 70.8611V39.2344H178.766H178.768Z" fill="#FFFCB9"/>
</g>
<g filter="url(#filter2_d_418_43)">
<path d="M200.155 99.7596C195.697 95.5993 193.467 89.6412 193.467 81.8874V15H216.361V80.6747C216.361 83.0982 216.983 84.9569 218.23 86.2488C219.474 87.5428 221.221 88.1868 223.472 88.1868C225.318 88.1868 227.045 87.7825 228.653 86.9761L229.617 104.304C226.163 105.433 222.587 106 218.892 106C210.858 106 204.614 103.922 200.155 99.7596Z" fill="#FFFCB9"/>
</g>
<g filter="url(#filter3_d_418_43)">
<path d="M279.686 87.0959C281.975 86.2082 284.284 84.7537 286.615 82.7346L298.544 95.3373C292.358 102.447 283.12 106 270.83 106C263.198 106 256.491 104.546 250.707 101.639C244.924 98.7297 240.445 94.6913 237.271 89.5214C234.098 84.3536 232.512 78.495 232.512 71.952C232.512 65.4089 234.077 59.6946 237.211 54.5633C240.344 49.434 244.661 45.4139 250.164 42.507C255.665 39.5981 261.832 38.1456 268.66 38.1456C275.005 38.1456 280.809 39.4599 286.072 42.0845C291.332 44.7111 295.53 48.5484 298.663 53.5964C301.796 58.6464 303.362 64.643 303.362 71.5904L256.729 80.5569C259.218 85.808 264.159 88.4326 271.551 88.4326C274.684 88.4326 277.395 87.9897 279.684 87.1L279.686 87.0959ZM259.141 58.1974C256.65 60.6615 255.244 64.1961 254.923 68.7992L281.433 63.5887C280.629 60.8443 279.102 58.6423 276.854 56.9847C274.603 55.3291 271.912 54.5003 268.781 54.5003C264.844 54.5003 261.63 55.7334 259.141 58.1954V58.1974Z" fill="#FFFCB9"/>
</g>
<g filter="url(#filter4_d_418_43)">
<path d="M321.559 104.121C316.256 102.87 311.998 101.234 308.786 99.2131L315.654 83.4618C318.626 85.3205 322.161 86.7933 326.258 87.8841C330.355 88.975 334.411 89.5194 338.429 89.5194C342.124 89.5194 344.754 89.1375 346.322 88.3676C347.888 87.6017 348.671 86.4885 348.671 85.0361C348.671 83.5837 347.726 82.5517 345.839 81.9464C343.95 81.341 340.959 80.756 336.862 80.1892C331.64 79.5432 327.202 78.6961 323.547 77.6439C319.891 76.5957 316.739 74.6557 314.089 71.828C311.438 69.0003 310.111 65.0432 310.111 59.9525C310.111 55.7537 311.356 52.0159 313.846 48.7434C316.335 45.4708 319.971 42.8869 324.751 40.9875C329.529 39.0902 335.254 38.1395 341.922 38.1395C346.661 38.1395 351.36 38.625 356.021 39.594C360.679 40.563 364.576 41.9382 367.709 43.7137L360.841 59.3452C355.057 56.1153 348.791 54.4983 342.043 54.4983C338.429 54.4983 335.777 54.9228 334.09 55.7699C332.403 56.619 331.559 57.7302 331.559 59.1014C331.559 60.6371 332.482 61.7056 334.331 62.313C336.177 62.9184 339.229 63.5461 343.488 64.1921C348.869 65.0005 353.328 65.9309 356.863 66.9791C360.396 68.0293 363.469 69.947 366.081 72.734C368.691 75.5211 369.998 79.4193 369.998 84.4267C369.998 88.5463 368.752 92.2414 366.263 95.514C363.772 98.7866 360.097 101.35 355.237 103.209C350.374 105.066 344.53 105.996 337.704 105.996C332.24 105.996 326.86 105.37 321.557 104.117L321.559 104.121Z" fill="#FFFCB9"/>
</g>
<defs>
<filter id="filter0_d_418_43" x="16" y="14.0886" width="97.7225" height="104.821" filterUnits="userSpaceOnUse" color-interpolation-filters="sRGB">
<feFlood flood-opacity="0" result="BackgroundImageFix"/>
<feColorMatrix in="SourceAlpha" type="matrix" values="0 0 0 0 0 0 0 0 0 0 0 0 0 0 0 0 0 0 127 0" result="hardAlpha"/>
<feOffset dx="4" dy="4"/>
<feGaussianBlur stdDeviation="5"/>
<feComposite in2="hardAlpha" operator="out"/>
<feColorMatrix type="matrix" values="0 0 0 0 0 0 0 0 0 0 0 0 0 0 0 0 0 0 0.3 0"/>
<feBlend mode="normal" in2="BackgroundImageFix" result="effect1_dropShadow_418_43"/>
<feBlend mode="normal" in="SourceGraphic" in2="effect1_dropShadow_418_43" result="shape"/>
</filter>
<filter id="filter1_d_418_43" x="103.841" y="33.2344" width="88.9269" height="86.7656" filterUnits="userSpaceOnUse" color-interpolation-filters="sRGB">
<feFlood flood-opacity="0" result="BackgroundImageFix"/>
<feColorMatrix in="SourceAlpha" type="matrix" values="0 0 0 0 0 0 0 0 0 0 0 0 0 0 0 0 0 0 127 0" result="hardAlpha"/>
<feOffset dx="4" dy="4"/>
<feGaussianBlur stdDeviation="5"/>
<feComposite in2="hardAlpha" operator="out"/>
<feColorMatrix type="matrix" values="0 0 0 0 0 0 0 0 0 0 0 0 0 0 0 0 0 0 0.3 0"/>
<feBlend mode="normal" in2="BackgroundImageFix" result="effect1_dropShadow_418_43"/>
<feBlend mode="normal" in="SourceGraphic" in2="effect1_dropShadow_418_43" result="shape"/>
</filter>
<filter id="filter2_d_418_43" x="187.467" y="9" width="56.1503" height="111" filterUnits="userSpaceOnUse" color-interpolation-filters="sRGB">
<feFlood flood-opacity="0" result="BackgroundImageFix"/>
<feColorMatrix in="SourceAlpha" type="matrix" values="0 0 0 0 0 0 0 0 0 0 0 0 0 0 0 0 0 0 127 0" result="hardAlpha"/>
<feOffset dx="4" dy="4"/>
<feGaussianBlur stdDeviation="5"/>
<feComposite in2="hardAlpha" operator="out"/>
<feColorMatrix type="matrix" values="0 0 0 0 0 0 0 0 0 0 0 0 0 0 0 0 0 0 0.3 0"/>
<feBlend mode="normal" in2="BackgroundImageFix" result="effect1_dropShadow_418_43"/>
<feBlend mode="normal" in="SourceGraphic" in2="effect1_dropShadow_418_43" result="shape"/>
</filter>
<filter id="filter3_d_418_43" x="226.512" y="32.1456" width="90.8501" height="87.8544" filterUnits="userSpaceOnUse" color-interpolation-filters="sRGB">
<feFlood flood-opacity="0" result="BackgroundImageFix"/>
<feColorMatrix in="SourceAlpha" type="matrix" values="0 0 0 0 0 0 0 0 0 0 0 0 0 0 0 0 0 0 127 0" result="hardAlpha"/>
<feOffset dx="4" dy="4"/>
<feGaussianBlur stdDeviation="5"/>
<feComposite in2="hardAlpha" operator="out"/>
<feColorMatrix type="matrix" values="0 0 0 0 0 0 0 0 0 0 0 0 0 0 0 0 0 0 0.3 0"/>
<feBlend mode="normal" in2="BackgroundImageFix" result="effect1_dropShadow_418_43"/>
<feBlend mode="normal" in="SourceGraphic" in2="effect1_dropShadow_418_43" result="shape"/>
</filter>
<filter id="filter4_d_418_43" x="302.786" y="32.1395" width="81.212" height="87.8564" filterUnits="userSpaceOnUse" color-interpolation-filters="sRGB">
<feFlood flood-opacity="0" result="BackgroundImageFix"/>
<feColorMatrix in="SourceAlpha" type="matrix" values="0 0 0 0 0 0 0 0 0 0 0 0 0 0 0 0 0 0 127 0" result="hardAlpha"/>
<feOffset dx="4" dy="4"/>
<feGaussianBlur stdDeviation="5"/>
<feComposite in2="hardAlpha" operator="out"/>
<feColorMatrix type="matrix" values="0 0 0 0 0 0 0 0 0 0 0 0 0 0 0 0 0 0 0.3 0"/>
<feBlend mode="normal" in2="BackgroundImageFix" result="effect1_dropShadow_418_43"/>
<feBlend mode="normal" in="SourceGraphic" in2="effect1_dropShadow_418_43" result="shape"/>
</filter>
</defs>
</svg>
