<svg width="550" height="37" viewBox="0 0 550 37" fill="none" xmlns="http://www.w3.org/2000/svg">
<path d="M47.9753 36.9956H38.9701V22.6774H8.95259V37H0V18.445C0 6.87061 6.68811 0 18.3791 0H47.9753V36.9956ZM38.9701 8.72039H22.7325C11.9894 8.72039 10.2516 11.0987 9.51432 14.534H38.9525L38.9701 8.72039Z" fill="#F8EB02"/>
<path d="M54.874 0H93.7914C100.52 0 103.885 3.1182 103.885 9.3546C103.885 14.4811 101.691 17.3879 97.5129 18.1278C101.568 18.9735 103.885 22.0388 103.885 27.5881C103.885 33.8774 100.515 36.9956 93.7914 36.9956H54.874V0ZM63.8266 28.4338H91.4216C93.4228 28.4338 94.4234 27.4824 94.4234 25.5798C94.4234 23.5186 93.4228 22.4616 91.4216 22.4616H70.1461V14.5868H91.4216C93.4228 14.5868 94.4234 13.5298 94.4234 11.3629C94.4234 9.566 93.4228 8.66754 91.4216 8.66754H63.8266V28.4338Z" fill="#F8EB02"/>
<path d="M159.04 0V18.6035C159.04 30.125 152.352 36.9956 140.661 36.9956H110.117V18.445C110.117 7.13487 116.91 0 128.548 0H159.04ZM150.087 8.72039H128.706C121.334 8.72039 119.052 10.993 119.052 18.6035V28.2224H140.45C147.665 28.2224 150.105 26.1083 150.105 18.445L150.087 8.72039Z" fill="#F8EB02"/>
<path d="M174.733 0V18.0221C174.733 24.8399 179.315 28.2224 188.531 28.2224H203.329V0H212.282V36.9956H186.214C173.733 36.9956 165.781 30.125 165.781 17.4408V0H174.733Z" fill="#F8EB02"/>
<path d="M263.592 8.72039H246.617V36.9956H237.665V8.72039H231.451C227.554 8.72039 225.447 10.5702 225.131 14.3754H216.635C217.425 4.75657 222.779 0 232.873 0H263.592V8.72039Z" fill="#F8EB02"/>
<path d="M290.169 36.9956V0H339.14V7.08201C339.14 17.4408 333.506 22.673 322.346 22.673H303.282V14.3754H324.241C327.871 14.3754 329.946 12.3671 330.451 8.72039H299.139V36.9956H290.169Z" fill="#F8EB02"/>
<path d="M390.065 36.9956H381.06V22.6774H351.047V37H342.094V18.445C342.094 6.87061 348.782 0 360.473 0H390.065V36.9956ZM381.06 8.72039H364.822C354.079 8.72039 352.341 11.0987 351.604 14.534H381.038L381.06 8.72039Z" fill="#F8EB02"/>
<path d="M410.081 14.3754H431.036C434.67 14.3754 436.741 12.3671 437.25 8.72039H405.921V36.9956H396.968V0H445.939V7.08201C445.939 16.4366 441.411 21.5631 432.335 22.4968L446.343 36.978H435.495L421.298 22.6774H410.081V14.3754Z" fill="#F8EB02"/>
<path d="M496.622 8.72039H479.67V36.9956H470.717V8.72039H464.503C460.606 8.72039 458.499 10.5702 458.183 14.3754H449.665C450.455 4.75657 455.809 0 465.903 0H496.622V8.72039Z" fill="#F8EB02"/>
<path d="M550 0V18.6035C550 30.125 543.369 36.9956 531.625 36.9956H501.555V28.2224H531.397C536.874 28.2224 539.507 26.3197 540.508 22.7259H501.538V0H510.49V14.6397H541.034V0H550Z" fill="#F8EB02"/>
</svg>
