<svg width="465" height="37" viewBox="0 0 465 37" fill="none" xmlns="http://www.w3.org/2000/svg">
<path d="M0 0H39.0103C45.7562 0 49.1291 3.11708 49.1291 9.35125C49.1291 14.476 46.9294 17.3817 42.7411 18.1214C46.8062 18.9667 49.1291 22.0309 49.1291 27.5783C49.1291 33.8653 45.7503 36.9824 39.0103 36.9824H0V0ZM8.95297 28.4236H36.617C38.6232 28.4236 39.6262 27.4726 39.6262 25.5707C39.6262 23.5102 38.6232 22.4536 36.617 22.4536H15.3058V14.5816H36.6346C38.6408 14.5816 39.6438 13.525 39.6438 11.3589C39.6438 9.56258 38.6408 8.66444 36.6346 8.66444H8.95297V28.4236Z" fill="#F8EB02"/>
<path d="M104.422 0V18.5968C104.422 30.1142 97.7174 36.9824 85.9972 36.9824H55.3767V18.4384C55.3767 7.13232 62.1871 0 73.8546 0H104.422ZM95.4473 8.71727H74.013C66.6218 8.71727 64.3341 10.989 64.3341 18.5968V28.2123H85.7684C93.0012 28.2123 95.4473 26.099 95.4473 18.4384V8.71727Z" fill="#F8EB02"/>
<path d="M161.228 36.9824H151.725C141.606 23.1404 131.822 14.0885 122.213 10.4607C121.527 10.2494 120.682 9.87958 119.785 9.5802C119.89 10.901 119.943 11.7815 119.943 12.169V37H111.179V0.0176279H118.94C130.766 3.82153 141.747 12.3803 150.986 22.4184L152.623 24.1794C152.517 23.0699 152.464 22.2775 152.464 21.7492V0H161.228V36.9824Z" fill="#F8EB02"/>
<path d="M177.172 0V18.0289C177.172 24.8442 181.765 28.2255 191.004 28.2255H205.839V0H214.814V36.9824H188.681C176.169 36.9824 168.197 30.1142 168.197 17.4346V0H177.172Z" fill="#F8EB02"/>
<path d="M266.077 8.71727H235.826C232.078 8.71727 229.966 10.5664 229.491 14.3703H266.235V21.4146C266.235 31.7696 260.639 37 249.447 37H220.938V28.2123H251.365C255.008 28.2123 257.084 26.2575 257.648 22.6649H220.956V15.5854C220.956 5.23037 226.552 0 237.797 0H266.095L266.077 8.71727Z" fill="#F8EB02"/>
<path d="M303.455 36.9824H294.48V0H303.455V36.9824Z" fill="#F8EB02"/>
<path d="M360.521 36.9824H351.022C340.903 23.1404 331.119 14.0885 321.51 10.4607C320.824 10.2494 319.979 9.87958 319.082 9.5802C319.188 10.901 319.24 11.7815 319.24 12.169V37H310.477V0.0176279H318.237C330.063 3.82153 341.044 12.3803 350.283 22.4184L351.92 24.1794C351.814 23.0699 351.761 22.2775 351.761 21.7492V0H360.521V36.9824Z" fill="#F8EB02"/>
<path d="M409.307 22.6649H376.104V36.9824H367.129V18.4384C367.129 7.13232 373.939 0 385.607 0H412.263V8.71727H385.765C380.274 8.71727 377.687 10.7249 376.579 14.3703H409.307V22.6649Z" fill="#F8EB02"/>
<path d="M465 0V18.5968C465 30.1142 458.295 36.9824 446.575 36.9824H415.959V18.4384C415.959 7.13232 422.769 0 434.437 0H465ZM456.025 8.71727H434.591C427.2 8.71727 424.912 10.989 424.912 18.5968V28.2123H446.342C453.575 28.2123 456.021 26.099 456.021 18.4384L456.025 8.71727Z" fill="#F8EB02"/>
</svg>
