<svg width="2051" height="382" viewBox="0 0 2051 382" fill="none" xmlns="http://www.w3.org/2000/svg">
<g filter="url(#filter0_d_426_244)">
<path d="M90.017 276.115C75.4923 268.758 64.1925 258.545 56.1176 245.47C48.0375 232.4 44 217.583 44 201.035C44 184.487 48.0375 169.727 56.1176 156.754C64.1925 143.782 75.4923 133.671 90.017 126.417C104.536 119.168 121.005 115.536 139.413 115.536C157.821 115.536 174.49 119.574 188.192 127.64C201.894 135.711 211.609 146.901 217.339 161.198L172.243 184.184C164.672 169.275 153.629 161.815 139.11 161.815C128.679 161.815 120.033 165.293 113.187 172.234C106.331 179.18 102.911 188.782 102.911 201.04C102.911 213.298 106.331 223.26 113.187 230.303C120.038 237.352 128.679 240.877 139.11 240.877C153.629 240.877 164.672 233.422 172.243 218.508L217.339 241.493C211.609 255.796 201.894 266.98 188.192 275.051C174.485 283.123 158.227 287.156 139.413 287.156C120.599 287.156 104.542 283.477 90.017 276.125V276.115Z" fill="#FFECFD"/>
</g>
<g filter="url(#filter1_d_426_244)">
<path d="M272.866 276.115C258.547 268.758 247.35 258.545 239.27 245.47C231.19 232.4 227.152 217.583 227.152 201.035C227.152 184.487 231.19 169.984 239.27 156.903C247.345 143.833 258.49 133.666 272.712 126.412C286.922 119.163 303.031 115.531 321.033 115.531C339.034 115.531 355.189 119.158 369.508 126.412C383.822 133.666 394.973 143.777 402.95 156.749C410.927 169.727 414.913 184.482 414.913 201.03C414.913 217.578 410.927 232.395 402.95 245.464C394.973 258.539 383.822 268.753 369.508 276.11C355.189 283.467 339.029 287.14 321.033 287.14C303.036 287.14 287.18 283.462 272.866 276.11V276.115ZM346.188 230.298C352.731 223.25 356.007 213.499 356.007 201.035C356.007 188.571 352.731 179.175 346.188 172.229C339.641 165.288 331.258 161.81 321.033 161.81C310.808 161.81 302.419 165.288 295.877 172.229C289.329 179.175 286.058 188.777 286.058 201.035C286.058 213.293 289.329 223.255 295.877 230.298C302.419 237.347 310.803 240.871 321.033 240.871C331.263 240.871 339.641 237.347 346.188 230.298Z" fill="#FFECFD"/>
</g>
<g filter="url(#filter2_d_426_244)">
<path d="M707.437 133.923C719.601 146.181 725.691 164.671 725.691 189.388V284.386H667.402V198.887C667.402 187.241 665.201 178.661 660.808 173.143C656.406 167.625 650.223 164.867 642.246 164.867C633.451 164.867 626.395 167.929 621.076 174.063C615.753 180.192 613.099 189.491 613.099 201.949V284.386H554.81V198.887C554.81 176.21 546.422 164.872 529.655 164.872C520.654 164.872 513.494 167.934 508.181 174.068C502.858 180.197 500.204 189.496 500.204 201.955V284.392H441.915V118.295H497.447V135.762C503.583 129.022 510.892 123.967 519.383 120.591C527.87 117.221 537.123 115.536 547.147 115.536C558.807 115.536 569.237 117.683 578.439 121.973C587.64 126.263 595.108 132.803 600.832 141.588C607.375 133.214 615.661 126.777 625.685 122.281C635.704 117.791 646.649 115.541 658.509 115.541C678.959 115.541 695.273 121.67 707.442 133.928L707.437 133.923Z" fill="#FFECFD"/>
</g>
<g filter="url(#filter3_d_426_244)">
<path d="M908.385 126.109C920.76 133.158 930.573 143.171 937.836 156.143C945.093 169.12 948.729 184.184 948.729 201.343C948.729 218.503 945.098 233.571 937.836 246.543C930.573 259.521 920.755 269.529 908.385 276.577C896.011 283.626 882.257 287.15 867.121 287.15C847.689 287.15 832.249 281.33 820.795 269.683V343.843H762.506V118.295H818.038V134.843C828.875 121.973 845.236 115.536 867.126 115.536C882.263 115.536 896.011 119.06 908.39 126.109H908.385ZM880.005 230.303C886.547 223.255 889.823 213.601 889.823 201.343C889.823 189.085 886.547 179.432 880.005 172.383C873.457 165.334 865.074 161.81 854.849 161.81C844.624 161.81 836.235 165.334 829.693 172.383C823.146 179.432 819.875 189.085 819.875 201.343C819.875 213.601 823.146 223.255 829.693 230.303C836.235 237.352 844.619 240.877 854.849 240.877C865.079 240.877 873.457 237.352 880.005 230.303Z" fill="#FFECFD"/>
</g>
<g filter="url(#filter4_d_426_244)">
<path d="M1085.4 239.341C1091.23 237.095 1097.11 233.417 1103.04 228.31L1133.41 260.184C1117.67 278.165 1094.15 287.151 1062.85 287.151C1043.42 287.151 1026.35 283.472 1011.62 276.12C996.896 268.763 985.493 258.55 977.413 245.475C969.333 232.405 965.296 217.588 965.296 201.04C965.296 184.492 969.282 170.04 977.259 157.063C985.236 144.09 996.227 133.923 1010.24 126.571C1024.24 119.214 1039.95 115.541 1057.33 115.541C1073.48 115.541 1088.26 118.865 1101.66 125.503C1115.05 132.146 1125.74 141.851 1133.72 154.617C1141.69 167.389 1145.68 182.555 1145.68 200.126L1026.95 222.803C1033.29 236.083 1045.87 242.721 1064.69 242.721C1072.67 242.721 1079.57 241.601 1085.4 239.351L1085.4 239.341ZM1033.09 166.254C1026.75 172.486 1023.17 181.425 1022.36 193.067L1089.85 179.889C1087.8 172.948 1083.92 167.379 1078.19 163.187C1072.46 159 1065.61 156.903 1057.64 156.903C1047.61 156.903 1039.43 160.022 1033.09 166.249V166.254Z" fill="#FFECFD"/>
</g>
<g filter="url(#filter5_d_426_244)">
<path d="M1279.76 277.651C1274.85 280.713 1268.86 283.066 1261.81 284.7C1254.75 286.334 1247.24 287.15 1239.26 287.15C1217.58 287.15 1200.96 281.838 1189.41 271.214C1177.85 260.594 1172.08 244.76 1172.08 223.712V81.2119H1230.37V124.424H1268.1V167.939H1230.37V223.101C1230.37 229.23 1231.9 233.931 1234.97 237.198C1238.03 240.471 1242.23 242.099 1247.55 242.099C1254.3 242.099 1260.23 240.368 1265.34 236.89L1279.77 277.646L1279.76 277.651Z" fill="#FFECFD"/>
</g>
<g filter="url(#filter6_d_426_244)">
<path d="M1305.52 91.0195C1298.98 85.0959 1295.71 77.744 1295.71 68.9537C1295.71 60.1634 1298.98 52.8167 1305.52 46.888C1312.07 40.9644 1320.66 38 1331.3 38C1341.94 38 1350.52 40.8102 1357.07 46.4256C1363.61 52.0461 1366.89 59.2489 1366.89 68.029C1366.89 76.809 1363.61 84.8339 1357.07 90.8602C1350.52 96.8865 1341.93 99.9023 1331.3 99.9023C1320.66 99.9023 1312.07 96.9431 1305.52 91.0143V91.0195ZM1302.15 118.295H1360.44V284.391H1302.15V118.295Z" fill="#FFECFD"/>
</g>
<g filter="url(#filter7_d_426_244)">
<path d="M1505.24 277.651C1500.34 280.713 1494.35 283.066 1487.3 284.7C1480.24 286.334 1472.73 287.15 1464.75 287.15C1443.07 287.15 1426.45 281.838 1414.9 271.214C1403.34 260.594 1397.56 244.76 1397.56 223.712V81.2119H1455.85V124.424H1493.59V167.939H1455.85V223.101C1455.85 229.23 1457.38 233.931 1460.45 237.198C1463.52 240.471 1467.71 242.099 1473.04 242.099C1479.78 242.099 1485.71 240.368 1490.83 236.89L1505.25 277.646L1505.24 277.651Z" fill="#FFECFD"/>
</g>
<g filter="url(#filter8_d_426_244)">
<path d="M1531.02 91.0195C1524.47 85.0959 1521.2 77.744 1521.2 68.9537C1521.2 60.1634 1524.47 52.8167 1531.02 46.888C1537.56 40.9644 1546.15 38 1556.79 38C1567.43 38 1576.01 40.8102 1582.56 46.4256C1589.1 52.0461 1592.38 59.2489 1592.38 68.029C1592.38 76.809 1589.1 84.8339 1582.56 90.8602C1576.01 96.8865 1567.43 99.9023 1556.79 99.9023C1546.15 99.9023 1537.56 96.9431 1531.02 91.0143V91.0195ZM1527.64 118.295H1585.93V284.391H1527.64V118.295Z" fill="#FFECFD"/>
</g>
<g filter="url(#filter9_d_426_244)">
<path d="M1658.94 276.115C1644.63 268.758 1633.43 258.545 1625.35 245.47C1617.27 232.4 1613.24 217.583 1613.24 201.035C1613.24 184.487 1617.27 169.984 1625.35 156.903C1633.43 143.833 1644.57 133.666 1658.8 126.412C1673.01 119.163 1689.11 115.531 1707.12 115.531C1725.12 115.531 1741.27 119.158 1755.59 126.412C1769.91 133.666 1781.06 143.777 1789.03 156.749C1797.01 169.727 1801 184.482 1801 201.03C1801 217.578 1797.01 232.395 1789.03 245.464C1781.06 258.539 1769.91 268.753 1755.59 276.11C1741.27 283.467 1725.11 287.14 1707.12 287.14C1689.12 287.14 1673.26 283.462 1658.95 276.11L1658.94 276.115ZM1732.27 230.298C1738.81 223.25 1742.09 213.499 1742.09 201.035C1742.09 188.571 1738.81 179.175 1732.27 172.229C1725.72 165.288 1717.34 161.81 1707.11 161.81C1696.89 161.81 1688.5 165.288 1681.96 172.229C1675.41 179.175 1672.14 188.777 1672.14 201.035C1672.14 213.293 1675.41 223.255 1681.96 230.298C1688.5 237.347 1696.88 240.871 1707.11 240.871C1717.34 240.871 1725.72 237.347 1732.27 230.298Z" fill="#FFECFD"/>
</g>
<g filter="url(#filter10_d_426_244)">
<path d="M1986.13 133.923C1998.72 146.181 2005 164.671 2005 189.388V284.386H1946.71V198.887C1946.71 176.21 1937.61 164.872 1919.41 164.872C1909.38 164.872 1901.35 168.144 1895.32 174.679C1889.29 181.219 1886.27 191.027 1886.27 204.097V284.386H1827.98V118.29H1883.51V136.369C1890.05 129.628 1897.82 124.47 1906.82 120.894C1915.82 117.324 1925.63 115.531 1936.27 115.531C1956.93 115.531 1973.54 121.66 1986.12 133.918L1986.13 133.923Z" fill="#FFECFD"/>
</g>
<defs>
<filter id="filter0_d_426_244" x="34" y="105.536" width="213.339" height="211.62" filterUnits="userSpaceOnUse" color-interpolation-filters="sRGB">
<feFlood flood-opacity="0" result="BackgroundImageFix"/>
<feColorMatrix in="SourceAlpha" type="matrix" values="0 0 0 0 0 0 0 0 0 0 0 0 0 0 0 0 0 0 127 0" result="hardAlpha"/>
<feOffset dx="10" dy="10"/>
<feGaussianBlur stdDeviation="10"/>
<feComposite in2="hardAlpha" operator="out"/>
<feColorMatrix type="matrix" values="0 0 0 0 0 0 0 0 0 0 0 0 0 0 0 0 0 0 0.4 0"/>
<feBlend mode="normal" in2="BackgroundImageFix" result="effect1_dropShadow_426_244"/>
<feBlend mode="normal" in="SourceGraphic" in2="effect1_dropShadow_426_244" result="shape"/>
</filter>
<filter id="filter1_d_426_244" x="217.152" y="105.531" width="227.761" height="211.609" filterUnits="userSpaceOnUse" color-interpolation-filters="sRGB">
<feFlood flood-opacity="0" result="BackgroundImageFix"/>
<feColorMatrix in="SourceAlpha" type="matrix" values="0 0 0 0 0 0 0 0 0 0 0 0 0 0 0 0 0 0 127 0" result="hardAlpha"/>
<feOffset dx="10" dy="10"/>
<feGaussianBlur stdDeviation="10"/>
<feComposite in2="hardAlpha" operator="out"/>
<feColorMatrix type="matrix" values="0 0 0 0 0 0 0 0 0 0 0 0 0 0 0 0 0 0 0.4 0"/>
<feBlend mode="normal" in2="BackgroundImageFix" result="effect1_dropShadow_426_244"/>
<feBlend mode="normal" in="SourceGraphic" in2="effect1_dropShadow_426_244" result="shape"/>
</filter>
<filter id="filter2_d_426_244" x="431.915" y="105.536" width="323.776" height="208.856" filterUnits="userSpaceOnUse" color-interpolation-filters="sRGB">
<feFlood flood-opacity="0" result="BackgroundImageFix"/>
<feColorMatrix in="SourceAlpha" type="matrix" values="0 0 0 0 0 0 0 0 0 0 0 0 0 0 0 0 0 0 127 0" result="hardAlpha"/>
<feOffset dx="10" dy="10"/>
<feGaussianBlur stdDeviation="10"/>
<feComposite in2="hardAlpha" operator="out"/>
<feColorMatrix type="matrix" values="0 0 0 0 0 0 0 0 0 0 0 0 0 0 0 0 0 0 0.4 0"/>
<feBlend mode="normal" in2="BackgroundImageFix" result="effect1_dropShadow_426_244"/>
<feBlend mode="normal" in="SourceGraphic" in2="effect1_dropShadow_426_244" result="shape"/>
</filter>
<filter id="filter3_d_426_244" x="752.506" y="105.536" width="226.223" height="268.307" filterUnits="userSpaceOnUse" color-interpolation-filters="sRGB">
<feFlood flood-opacity="0" result="BackgroundImageFix"/>
<feColorMatrix in="SourceAlpha" type="matrix" values="0 0 0 0 0 0 0 0 0 0 0 0 0 0 0 0 0 0 127 0" result="hardAlpha"/>
<feOffset dx="10" dy="10"/>
<feGaussianBlur stdDeviation="10"/>
<feComposite in2="hardAlpha" operator="out"/>
<feColorMatrix type="matrix" values="0 0 0 0 0 0 0 0 0 0 0 0 0 0 0 0 0 0 0.4 0"/>
<feBlend mode="normal" in2="BackgroundImageFix" result="effect1_dropShadow_426_244"/>
<feBlend mode="normal" in="SourceGraphic" in2="effect1_dropShadow_426_244" result="shape"/>
</filter>
<filter id="filter4_d_426_244" x="955.296" y="105.541" width="220.385" height="211.609" filterUnits="userSpaceOnUse" color-interpolation-filters="sRGB">
<feFlood flood-opacity="0" result="BackgroundImageFix"/>
<feColorMatrix in="SourceAlpha" type="matrix" values="0 0 0 0 0 0 0 0 0 0 0 0 0 0 0 0 0 0 127 0" result="hardAlpha"/>
<feOffset dx="10" dy="10"/>
<feGaussianBlur stdDeviation="10"/>
<feComposite in2="hardAlpha" operator="out"/>
<feColorMatrix type="matrix" values="0 0 0 0 0 0 0 0 0 0 0 0 0 0 0 0 0 0 0.4 0"/>
<feBlend mode="normal" in2="BackgroundImageFix" result="effect1_dropShadow_426_244"/>
<feBlend mode="normal" in="SourceGraphic" in2="effect1_dropShadow_426_244" result="shape"/>
</filter>
<filter id="filter5_d_426_244" x="1162.08" y="71.2119" width="147.69" height="245.938" filterUnits="userSpaceOnUse" color-interpolation-filters="sRGB">
<feFlood flood-opacity="0" result="BackgroundImageFix"/>
<feColorMatrix in="SourceAlpha" type="matrix" values="0 0 0 0 0 0 0 0 0 0 0 0 0 0 0 0 0 0 127 0" result="hardAlpha"/>
<feOffset dx="10" dy="10"/>
<feGaussianBlur stdDeviation="10"/>
<feComposite in2="hardAlpha" operator="out"/>
<feColorMatrix type="matrix" values="0 0 0 0 0 0 0 0 0 0 0 0 0 0 0 0 0 0 0.4 0"/>
<feBlend mode="normal" in2="BackgroundImageFix" result="effect1_dropShadow_426_244"/>
<feBlend mode="normal" in="SourceGraphic" in2="effect1_dropShadow_426_244" result="shape"/>
</filter>
<filter id="filter6_d_426_244" x="1285.71" y="28" width="111.183" height="286.391" filterUnits="userSpaceOnUse" color-interpolation-filters="sRGB">
<feFlood flood-opacity="0" result="BackgroundImageFix"/>
<feColorMatrix in="SourceAlpha" type="matrix" values="0 0 0 0 0 0 0 0 0 0 0 0 0 0 0 0 0 0 127 0" result="hardAlpha"/>
<feOffset dx="10" dy="10"/>
<feGaussianBlur stdDeviation="10"/>
<feComposite in2="hardAlpha" operator="out"/>
<feColorMatrix type="matrix" values="0 0 0 0 0 0 0 0 0 0 0 0 0 0 0 0 0 0 0.4 0"/>
<feBlend mode="normal" in2="BackgroundImageFix" result="effect1_dropShadow_426_244"/>
<feBlend mode="normal" in="SourceGraphic" in2="effect1_dropShadow_426_244" result="shape"/>
</filter>
<filter id="filter7_d_426_244" x="1387.56" y="71.2119" width="147.69" height="245.938" filterUnits="userSpaceOnUse" color-interpolation-filters="sRGB">
<feFlood flood-opacity="0" result="BackgroundImageFix"/>
<feColorMatrix in="SourceAlpha" type="matrix" values="0 0 0 0 0 0 0 0 0 0 0 0 0 0 0 0 0 0 127 0" result="hardAlpha"/>
<feOffset dx="10" dy="10"/>
<feGaussianBlur stdDeviation="10"/>
<feComposite in2="hardAlpha" operator="out"/>
<feColorMatrix type="matrix" values="0 0 0 0 0 0 0 0 0 0 0 0 0 0 0 0 0 0 0.4 0"/>
<feBlend mode="normal" in2="BackgroundImageFix" result="effect1_dropShadow_426_244"/>
<feBlend mode="normal" in="SourceGraphic" in2="effect1_dropShadow_426_244" result="shape"/>
</filter>
<filter id="filter8_d_426_244" x="1511.2" y="28" width="111.183" height="286.391" filterUnits="userSpaceOnUse" color-interpolation-filters="sRGB">
<feFlood flood-opacity="0" result="BackgroundImageFix"/>
<feColorMatrix in="SourceAlpha" type="matrix" values="0 0 0 0 0 0 0 0 0 0 0 0 0 0 0 0 0 0 127 0" result="hardAlpha"/>
<feOffset dx="10" dy="10"/>
<feGaussianBlur stdDeviation="10"/>
<feComposite in2="hardAlpha" operator="out"/>
<feColorMatrix type="matrix" values="0 0 0 0 0 0 0 0 0 0 0 0 0 0 0 0 0 0 0.4 0"/>
<feBlend mode="normal" in2="BackgroundImageFix" result="effect1_dropShadow_426_244"/>
<feBlend mode="normal" in="SourceGraphic" in2="effect1_dropShadow_426_244" result="shape"/>
</filter>
<filter id="filter9_d_426_244" x="1603.24" y="105.531" width="227.761" height="211.609" filterUnits="userSpaceOnUse" color-interpolation-filters="sRGB">
<feFlood flood-opacity="0" result="BackgroundImageFix"/>
<feColorMatrix in="SourceAlpha" type="matrix" values="0 0 0 0 0 0 0 0 0 0 0 0 0 0 0 0 0 0 127 0" result="hardAlpha"/>
<feOffset dx="10" dy="10"/>
<feGaussianBlur stdDeviation="10"/>
<feComposite in2="hardAlpha" operator="out"/>
<feColorMatrix type="matrix" values="0 0 0 0 0 0 0 0 0 0 0 0 0 0 0 0 0 0 0.4 0"/>
<feBlend mode="normal" in2="BackgroundImageFix" result="effect1_dropShadow_426_244"/>
<feBlend mode="normal" in="SourceGraphic" in2="effect1_dropShadow_426_244" result="shape"/>
</filter>
<filter id="filter10_d_426_244" x="1817.98" y="105.531" width="217.021" height="208.856" filterUnits="userSpaceOnUse" color-interpolation-filters="sRGB">
<feFlood flood-opacity="0" result="BackgroundImageFix"/>
<feColorMatrix in="SourceAlpha" type="matrix" values="0 0 0 0 0 0 0 0 0 0 0 0 0 0 0 0 0 0 127 0" result="hardAlpha"/>
<feOffset dx="10" dy="10"/>
<feGaussianBlur stdDeviation="10"/>
<feComposite in2="hardAlpha" operator="out"/>
<feColorMatrix type="matrix" values="0 0 0 0 0 0 0 0 0 0 0 0 0 0 0 0 0 0 0.4 0"/>
<feBlend mode="normal" in2="BackgroundImageFix" result="effect1_dropShadow_426_244"/>
<feBlend mode="normal" in="SourceGraphic" in2="effect1_dropShadow_426_244" result="shape"/>
</filter>
</defs>
</svg>
