<svg width="1350" height="361" viewBox="0 0 1350 361" fill="none" xmlns="http://www.w3.org/2000/svg">
<g filter="url(#filter0_d_424_189)">
<path d="M112.056 248.551C95.2362 239.615 82.0218 227.174 72.4131 211.214C62.8044 195.264 58 177.197 58 157.018C58 136.839 62.8044 118.772 72.4131 102.817C82.0218 86.8669 95.2362 74.4211 112.056 65.4794C128.872 56.5426 147.852 52.0718 168.998 52.0718C187.452 52.0718 204.074 55.3439 218.874 61.8738C233.673 68.4084 245.974 77.8286 255.776 90.1294L219.449 122.996C206.375 107.239 190.521 99.3563 171.879 99.3563C160.922 99.3563 151.168 101.763 142.618 106.563C134.063 111.367 127.431 118.143 122.724 126.887C118.011 135.635 115.662 145.674 115.662 157.013C115.662 168.352 118.016 178.396 122.724 187.139C127.431 195.888 134.063 202.664 142.618 207.463C151.168 212.273 160.927 214.67 171.879 214.67C190.521 214.67 206.375 206.792 219.449 191.03L255.776 223.897C245.974 236.198 233.673 245.618 218.874 252.152C204.069 258.682 187.447 261.954 168.998 261.954C147.852 261.954 128.872 257.483 112.056 248.547V248.551Z" fill="#FFECFD"/>
</g>
<g filter="url(#filter1_d_424_189)">
<path d="M306.807 250.137C293.351 243.215 282.829 233.607 275.236 221.306C267.642 209.01 263.848 195.071 263.848 179.502C263.848 163.934 267.642 150.29 275.236 137.984C282.824 125.688 293.298 116.123 306.662 109.298C320.017 102.478 335.155 99.0613 352.072 99.0613C368.988 99.0613 384.17 102.474 397.626 109.298C411.077 116.123 421.556 125.635 429.053 137.839C436.549 150.048 440.295 163.929 440.295 179.498C440.295 195.066 436.549 209.005 429.053 221.301C421.556 233.602 411.077 243.211 397.626 250.132C384.17 257.053 368.983 260.509 352.072 260.509C335.16 260.509 320.258 257.048 306.807 250.132V250.137ZM375.712 207.033C381.86 200.402 384.938 191.228 384.938 179.502C384.938 167.777 381.86 158.937 375.712 152.402C369.559 145.872 361.68 142.6 352.072 142.6C342.463 142.6 334.58 145.872 328.432 152.402C322.279 158.937 319.205 167.97 319.205 179.502C319.205 191.035 322.279 200.407 328.432 207.033C334.58 213.664 342.458 216.98 352.072 216.98C361.685 216.98 369.559 213.664 375.712 207.033Z" fill="#FFECFD"/>
</g>
<g filter="url(#filter2_d_424_189)">
<path d="M483.824 256.048C471.136 253.07 460.948 249.18 453.263 244.37L469.696 206.893C476.806 211.315 485.264 214.819 495.066 217.415C504.869 220.01 514.574 221.306 524.187 221.306C533.028 221.306 539.321 220.397 543.071 218.565C546.817 216.743 548.693 214.094 548.693 210.639C548.693 207.183 546.431 204.727 541.916 203.287C537.397 201.847 530.239 200.455 520.437 199.106C507.943 197.569 497.324 195.554 488.58 193.05C479.832 190.556 472.292 185.94 465.945 179.212C459.604 172.484 456.433 163.069 456.433 150.957C456.433 140.966 459.411 132.073 465.37 124.286C471.325 116.5 480.025 110.352 491.461 105.833C502.892 101.318 516.589 99.0564 532.544 99.0564C543.883 99.0564 555.126 100.212 566.276 102.517C577.422 104.823 586.746 108.095 594.242 112.319L577.809 149.512C563.971 141.827 548.978 137.979 532.834 137.979C524.187 137.979 517.841 138.989 513.805 141.005C509.77 143.025 507.749 145.669 507.749 148.932C507.749 152.586 509.958 155.128 514.381 156.573C518.798 158.013 526.101 159.507 536.29 161.044C549.166 162.968 559.834 165.181 568.292 167.675C576.745 170.174 584.097 174.737 590.347 181.368C596.591 187.999 599.718 197.274 599.718 209.189C599.718 218.991 596.736 227.782 590.782 235.569C584.822 243.355 576.03 249.455 564.401 253.878C552.767 258.295 538.784 260.509 522.452 260.509C509.378 260.509 496.507 259.02 483.819 256.038L483.824 256.048Z" fill="#FFECFD"/>
</g>
<g filter="url(#filter3_d_424_189)">
<path d="M760.452 109.013C772.081 115.644 781.303 125.065 788.128 137.269C794.948 149.478 798.365 163.649 798.365 179.792C798.365 195.936 794.953 210.112 788.128 222.316C781.303 234.525 772.076 243.94 760.452 250.572C748.823 257.203 735.899 260.519 721.674 260.519C703.413 260.519 688.904 255.043 678.14 244.085V313.855H623.363V101.662H675.549V117.23C685.733 105.122 701.108 99.0662 721.679 99.0662C735.903 99.0662 748.823 102.382 760.457 109.013H760.452ZM733.782 207.038C739.93 200.407 743.008 191.325 743.008 179.792C743.008 168.26 739.93 159.178 733.782 152.547C727.629 145.916 719.75 142.6 710.142 142.6C700.533 142.6 692.65 145.916 686.502 152.547C680.349 159.178 677.275 168.26 677.275 179.792C677.275 191.325 680.349 200.407 686.502 207.038C692.65 213.669 700.528 216.985 710.142 216.985C719.755 216.985 727.629 213.669 733.782 207.038Z" fill="#FFECFD"/>
</g>
<g filter="url(#filter4_d_424_189)">
<path d="M839.734 245.671C829.066 235.772 823.73 221.596 823.73 203.147V44H878.507V200.262C878.507 206.028 879.996 210.45 882.978 213.524C885.955 216.603 890.136 218.135 895.52 218.135C899.938 218.135 904.071 217.173 907.918 215.255L910.224 256.483C901.958 259.17 893.403 260.519 884.563 260.519C865.341 260.519 850.396 255.574 839.729 245.671H839.734Z" fill="#FFECFD"/>
</g>
<g filter="url(#filter5_d_424_189)">
<path d="M1092.15 101.662V257.923H1039.97V242.355C1029.78 254.463 1014.4 260.519 993.836 260.519C979.611 260.519 966.687 257.203 955.058 250.572C943.429 243.94 934.202 234.477 927.382 222.176C920.557 209.88 917.145 195.651 917.145 179.507C917.145 163.364 920.557 149.188 927.382 136.984C934.202 124.78 943.429 115.413 955.058 108.873C966.682 102.343 979.607 99.071 993.836 99.071C1012.29 99.071 1026.8 104.455 1037.37 115.214V101.662H1092.15ZM1029.01 207.038C1035.16 200.407 1038.24 191.233 1038.24 179.507C1038.24 167.782 1035.16 158.942 1029.01 152.407C1022.86 145.877 1014.98 142.605 1005.37 142.605C995.76 142.605 987.876 145.877 981.728 152.407C975.576 158.942 972.502 167.975 972.502 179.507C972.502 191.04 975.576 200.411 981.728 207.038C987.876 213.669 995.755 216.985 1005.37 216.985C1014.98 216.985 1022.86 213.669 1029.01 207.038Z" fill="#FFECFD"/>
</g>
<g filter="url(#filter6_d_424_189)">
<path d="M1291.65 101.662V229.382C1291.65 258.402 1283.92 280.171 1268.44 294.686C1252.97 309.195 1230.72 316.455 1201.7 316.455C1186.51 316.455 1172.34 314.725 1159.18 311.264C1146.01 307.803 1134.82 302.709 1125.59 295.986L1145.48 257.643C1151.63 262.834 1159.37 266.913 1168.69 269.895C1178.01 272.873 1187.29 274.366 1196.51 274.366C1210.35 274.366 1220.54 271.196 1227.08 264.854C1233.6 258.513 1236.88 249.098 1236.88 236.599V233.138C1225.15 244.288 1210.54 249.861 1193.05 249.861C1172.87 249.861 1156.77 243.907 1144.76 231.988C1132.75 220.073 1126.74 202.2 1126.74 178.362V101.662H1181.52V169.415C1181.52 181.334 1183.73 189.986 1188.15 195.361C1192.57 200.745 1199.01 203.432 1207.47 203.432C1215.92 203.432 1223.18 200.358 1228.66 194.205C1234.13 188.057 1236.87 178.831 1236.87 166.53V101.662H1291.65H1291.65Z" fill="#FFECFD"/>
</g>
<defs>
<filter id="filter0_d_424_189" x="48" y="42.0718" width="237.776" height="249.883" filterUnits="userSpaceOnUse" color-interpolation-filters="sRGB">
<feFlood flood-opacity="0" result="BackgroundImageFix"/>
<feColorMatrix in="SourceAlpha" type="matrix" values="0 0 0 0 0 0 0 0 0 0 0 0 0 0 0 0 0 0 127 0" result="hardAlpha"/>
<feOffset dx="10" dy="10"/>
<feGaussianBlur stdDeviation="10"/>
<feComposite in2="hardAlpha" operator="out"/>
<feColorMatrix type="matrix" values="0 0 0 0 0 0 0 0 0 0 0 0 0 0 0 0 0 0 0.4 0"/>
<feBlend mode="normal" in2="BackgroundImageFix" result="effect1_dropShadow_424_189"/>
<feBlend mode="normal" in="SourceGraphic" in2="effect1_dropShadow_424_189" result="shape"/>
</filter>
<filter id="filter1_d_424_189" x="253.848" y="89.0613" width="216.447" height="201.448" filterUnits="userSpaceOnUse" color-interpolation-filters="sRGB">
<feFlood flood-opacity="0" result="BackgroundImageFix"/>
<feColorMatrix in="SourceAlpha" type="matrix" values="0 0 0 0 0 0 0 0 0 0 0 0 0 0 0 0 0 0 127 0" result="hardAlpha"/>
<feOffset dx="10" dy="10"/>
<feGaussianBlur stdDeviation="10"/>
<feComposite in2="hardAlpha" operator="out"/>
<feColorMatrix type="matrix" values="0 0 0 0 0 0 0 0 0 0 0 0 0 0 0 0 0 0 0.4 0"/>
<feBlend mode="normal" in2="BackgroundImageFix" result="effect1_dropShadow_424_189"/>
<feBlend mode="normal" in="SourceGraphic" in2="effect1_dropShadow_424_189" result="shape"/>
</filter>
<filter id="filter2_d_424_189" x="443.263" y="89.0564" width="186.456" height="201.453" filterUnits="userSpaceOnUse" color-interpolation-filters="sRGB">
<feFlood flood-opacity="0" result="BackgroundImageFix"/>
<feColorMatrix in="SourceAlpha" type="matrix" values="0 0 0 0 0 0 0 0 0 0 0 0 0 0 0 0 0 0 127 0" result="hardAlpha"/>
<feOffset dx="10" dy="10"/>
<feGaussianBlur stdDeviation="10"/>
<feComposite in2="hardAlpha" operator="out"/>
<feColorMatrix type="matrix" values="0 0 0 0 0 0 0 0 0 0 0 0 0 0 0 0 0 0 0.4 0"/>
<feBlend mode="normal" in2="BackgroundImageFix" result="effect1_dropShadow_424_189"/>
<feBlend mode="normal" in="SourceGraphic" in2="effect1_dropShadow_424_189" result="shape"/>
</filter>
<filter id="filter3_d_424_189" x="613.363" y="89.0662" width="215.002" height="254.788" filterUnits="userSpaceOnUse" color-interpolation-filters="sRGB">
<feFlood flood-opacity="0" result="BackgroundImageFix"/>
<feColorMatrix in="SourceAlpha" type="matrix" values="0 0 0 0 0 0 0 0 0 0 0 0 0 0 0 0 0 0 127 0" result="hardAlpha"/>
<feOffset dx="10" dy="10"/>
<feGaussianBlur stdDeviation="10"/>
<feComposite in2="hardAlpha" operator="out"/>
<feColorMatrix type="matrix" values="0 0 0 0 0 0 0 0 0 0 0 0 0 0 0 0 0 0 0.4 0"/>
<feBlend mode="normal" in2="BackgroundImageFix" result="effect1_dropShadow_424_189"/>
<feBlend mode="normal" in="SourceGraphic" in2="effect1_dropShadow_424_189" result="shape"/>
</filter>
<filter id="filter4_d_424_189" x="813.73" y="34" width="126.493" height="256.519" filterUnits="userSpaceOnUse" color-interpolation-filters="sRGB">
<feFlood flood-opacity="0" result="BackgroundImageFix"/>
<feColorMatrix in="SourceAlpha" type="matrix" values="0 0 0 0 0 0 0 0 0 0 0 0 0 0 0 0 0 0 127 0" result="hardAlpha"/>
<feOffset dx="10" dy="10"/>
<feGaussianBlur stdDeviation="10"/>
<feComposite in2="hardAlpha" operator="out"/>
<feColorMatrix type="matrix" values="0 0 0 0 0 0 0 0 0 0 0 0 0 0 0 0 0 0 0.4 0"/>
<feBlend mode="normal" in2="BackgroundImageFix" result="effect1_dropShadow_424_189"/>
<feBlend mode="normal" in="SourceGraphic" in2="effect1_dropShadow_424_189" result="shape"/>
</filter>
<filter id="filter5_d_424_189" x="907.145" y="89.071" width="215.002" height="201.448" filterUnits="userSpaceOnUse" color-interpolation-filters="sRGB">
<feFlood flood-opacity="0" result="BackgroundImageFix"/>
<feColorMatrix in="SourceAlpha" type="matrix" values="0 0 0 0 0 0 0 0 0 0 0 0 0 0 0 0 0 0 127 0" result="hardAlpha"/>
<feOffset dx="10" dy="10"/>
<feGaussianBlur stdDeviation="10"/>
<feComposite in2="hardAlpha" operator="out"/>
<feColorMatrix type="matrix" values="0 0 0 0 0 0 0 0 0 0 0 0 0 0 0 0 0 0 0.4 0"/>
<feBlend mode="normal" in2="BackgroundImageFix" result="effect1_dropShadow_424_189"/>
<feBlend mode="normal" in="SourceGraphic" in2="effect1_dropShadow_424_189" result="shape"/>
</filter>
<filter id="filter6_d_424_189" x="1115.59" y="91.6616" width="206.065" height="254.793" filterUnits="userSpaceOnUse" color-interpolation-filters="sRGB">
<feFlood flood-opacity="0" result="BackgroundImageFix"/>
<feColorMatrix in="SourceAlpha" type="matrix" values="0 0 0 0 0 0 0 0 0 0 0 0 0 0 0 0 0 0 127 0" result="hardAlpha"/>
<feOffset dx="10" dy="10"/>
<feGaussianBlur stdDeviation="10"/>
<feComposite in2="hardAlpha" operator="out"/>
<feColorMatrix type="matrix" values="0 0 0 0 0 0 0 0 0 0 0 0 0 0 0 0 0 0 0.4 0"/>
<feBlend mode="normal" in2="BackgroundImageFix" result="effect1_dropShadow_424_189"/>
<feBlend mode="normal" in="SourceGraphic" in2="effect1_dropShadow_424_189" result="shape"/>
</filter>
</defs>
</svg>
