<svg width="1129" height="308" viewBox="0 0 1129 308" fill="none" xmlns="http://www.w3.org/2000/svg">
<g filter="url(#filter0_d_4_59)">
<path d="M57 38H156.881C180.015 38 200.533 42.6958 218.442 52.0711C236.345 61.4518 250.226 74.7603 260.086 91.9912C269.94 109.228 274.873 129.41 274.873 152.527C274.873 175.644 269.94 195.832 260.086 213.063C250.226 230.299 236.345 243.608 218.442 252.983C200.533 262.364 180.015 267.054 156.881 267.054H57V38ZM154.468 215.356C172.573 215.356 187.102 209.793 198.07 198.668C209.032 187.543 214.516 172.161 214.516 152.527C214.516 132.893 209.032 117.511 198.07 106.386C187.102 95.2608 172.573 89.6982 154.468 89.6982H116.75V215.35H154.468V215.356Z" fill="#FFECFD"/>
</g>
<g filter="url(#filter1_d_4_59)">
<path d="M476.436 89.7037V267.06H421.816V249.39C411.152 263.132 395.06 270.006 373.534 270.006C358.646 270.006 345.119 266.242 332.948 258.716C320.776 251.189 311.119 240.448 303.981 226.487C296.838 212.531 293.266 196.381 293.266 178.058C293.266 159.735 296.838 143.651 303.981 129.794C311.119 115.942 320.776 105.311 332.948 97.8885C345.119 90.4772 358.641 86.7633 373.534 86.7633C392.849 86.7633 408.035 92.8745 419.099 105.086V89.7037H476.43H476.436ZM410.352 209.305C416.787 201.779 420.01 191.367 420.01 178.058C420.01 164.749 416.787 154.716 410.352 147.299C403.912 139.888 395.667 136.174 385.61 136.174C375.553 136.174 367.302 139.888 360.867 147.299C354.427 154.716 351.21 164.969 351.21 178.058C351.21 191.147 354.427 201.784 360.867 209.305C367.302 216.832 375.548 220.595 385.61 220.595C395.672 220.595 403.912 216.832 410.352 209.305Z" fill="#FFECFD"/>
</g>
<g filter="url(#filter2_d_4_59)">
<path d="M668.802 106.391C681.175 119.481 687.357 139.224 687.357 165.622V267.06H630.026V175.759C630.026 151.545 621.072 139.438 603.169 139.438C593.309 139.438 585.412 142.932 579.478 149.91C573.544 156.894 570.575 167.366 570.575 181.322V267.054H513.243V89.7037H567.863V109.008C574.298 101.811 581.942 96.3031 590.795 92.485C599.643 88.6724 609.3 86.7578 619.762 86.7578C640.078 86.7578 656.423 93.3024 668.797 106.391H668.802Z" fill="#FFECFD"/>
</g>
<g filter="url(#filter3_d_4_59)">
<path d="M760.685 258.222C746.399 250.366 735.284 239.461 727.342 225.499C719.395 211.543 715.424 195.722 715.424 178.053C715.424 160.383 719.395 144.622 727.342 130.77C735.284 116.919 746.399 106.123 760.685 98.3767C774.966 90.6363 791.164 86.7578 809.269 86.7578C827.375 86.7578 843.77 91.0697 857.247 99.6824C870.724 108.301 880.28 120.249 885.915 135.516L841.56 160.059C834.113 144.139 823.252 136.174 808.971 136.174C798.712 136.174 790.213 139.888 783.475 147.299C776.731 154.716 773.367 164.969 773.367 178.058C773.367 191.147 776.736 201.784 783.475 209.305C790.213 216.832 798.712 220.595 808.971 220.595C823.252 220.595 834.113 212.635 841.56 196.71L885.915 221.253C880.28 236.526 870.724 248.468 857.247 257.086C843.765 265.705 827.774 270.011 809.269 270.011C790.764 270.011 774.971 266.083 760.685 258.233V258.222Z" fill="#FFECFD"/>
</g>
<g filter="url(#filter4_d_4_59)">
<path d="M1013.71 218.955C1019.44 216.557 1025.22 212.63 1031.06 207.177L1060.93 241.211C1045.43 260.411 1022.31 270.006 991.528 270.006C972.416 270.006 955.621 266.078 941.137 258.227C926.654 250.372 915.439 239.466 907.491 225.505C899.544 211.549 895.573 195.728 895.573 178.058C895.573 160.388 899.493 144.957 907.339 131.1C915.186 117.248 925.996 106.392 939.776 98.5413C953.552 90.6857 968.996 86.7633 986.095 86.7633C1001.98 86.7633 1016.52 90.3126 1029.7 97.4003C1042.87 104.493 1053.38 114.856 1061.23 128.488C1069.07 142.126 1072.99 158.32 1072.99 177.082L956.218 201.296C962.45 215.477 974.824 222.564 993.334 222.564C1001.18 222.564 1007.97 221.368 1013.7 218.966L1013.71 218.955ZM962.258 140.914C956.02 147.568 952.499 157.113 951.695 169.544L1018.08 155.473C1016.07 148.062 1012.24 142.115 1006.61 137.639C1000.98 133.168 994.239 130.929 986.398 130.929C976.539 130.929 968.49 134.259 962.258 140.908V140.914Z" fill="#FFECFD"/>
</g>
<defs>
<filter id="filter0_d_4_59" x="47" y="28" width="257.873" height="269.054" filterUnits="userSpaceOnUse" color-interpolation-filters="sRGB">
<feFlood flood-opacity="0" result="BackgroundImageFix"/>
<feColorMatrix in="SourceAlpha" type="matrix" values="0 0 0 0 0 0 0 0 0 0 0 0 0 0 0 0 0 0 127 0" result="hardAlpha"/>
<feOffset dx="10" dy="10"/>
<feGaussianBlur stdDeviation="10"/>
<feComposite in2="hardAlpha" operator="out"/>
<feColorMatrix type="matrix" values="0 0 0 0 0 0 0 0 0 0 0 0 0 0 0 0 0 0 0.4 0"/>
<feBlend mode="normal" in2="BackgroundImageFix" result="effect1_dropShadow_4_59"/>
<feBlend mode="normal" in="SourceGraphic" in2="effect1_dropShadow_4_59" result="shape"/>
</filter>
<filter id="filter1_d_4_59" x="283.266" y="76.7633" width="223.169" height="223.242" filterUnits="userSpaceOnUse" color-interpolation-filters="sRGB">
<feFlood flood-opacity="0" result="BackgroundImageFix"/>
<feColorMatrix in="SourceAlpha" type="matrix" values="0 0 0 0 0 0 0 0 0 0 0 0 0 0 0 0 0 0 127 0" result="hardAlpha"/>
<feOffset dx="10" dy="10"/>
<feGaussianBlur stdDeviation="10"/>
<feComposite in2="hardAlpha" operator="out"/>
<feColorMatrix type="matrix" values="0 0 0 0 0 0 0 0 0 0 0 0 0 0 0 0 0 0 0.4 0"/>
<feBlend mode="normal" in2="BackgroundImageFix" result="effect1_dropShadow_4_59"/>
<feBlend mode="normal" in="SourceGraphic" in2="effect1_dropShadow_4_59" result="shape"/>
</filter>
<filter id="filter2_d_4_59" x="503.243" y="76.7578" width="214.114" height="220.302" filterUnits="userSpaceOnUse" color-interpolation-filters="sRGB">
<feFlood flood-opacity="0" result="BackgroundImageFix"/>
<feColorMatrix in="SourceAlpha" type="matrix" values="0 0 0 0 0 0 0 0 0 0 0 0 0 0 0 0 0 0 127 0" result="hardAlpha"/>
<feOffset dx="10" dy="10"/>
<feGaussianBlur stdDeviation="10"/>
<feComposite in2="hardAlpha" operator="out"/>
<feColorMatrix type="matrix" values="0 0 0 0 0 0 0 0 0 0 0 0 0 0 0 0 0 0 0.4 0"/>
<feBlend mode="normal" in2="BackgroundImageFix" result="effect1_dropShadow_4_59"/>
<feBlend mode="normal" in="SourceGraphic" in2="effect1_dropShadow_4_59" result="shape"/>
</filter>
<filter id="filter3_d_4_59" x="705.424" y="76.7578" width="210.492" height="223.253" filterUnits="userSpaceOnUse" color-interpolation-filters="sRGB">
<feFlood flood-opacity="0" result="BackgroundImageFix"/>
<feColorMatrix in="SourceAlpha" type="matrix" values="0 0 0 0 0 0 0 0 0 0 0 0 0 0 0 0 0 0 127 0" result="hardAlpha"/>
<feOffset dx="10" dy="10"/>
<feGaussianBlur stdDeviation="10"/>
<feComposite in2="hardAlpha" operator="out"/>
<feColorMatrix type="matrix" values="0 0 0 0 0 0 0 0 0 0 0 0 0 0 0 0 0 0 0.4 0"/>
<feBlend mode="normal" in2="BackgroundImageFix" result="effect1_dropShadow_4_59"/>
<feBlend mode="normal" in="SourceGraphic" in2="effect1_dropShadow_4_59" result="shape"/>
</filter>
<filter id="filter4_d_4_59" x="885.573" y="76.7633" width="217.422" height="223.242" filterUnits="userSpaceOnUse" color-interpolation-filters="sRGB">
<feFlood flood-opacity="0" result="BackgroundImageFix"/>
<feColorMatrix in="SourceAlpha" type="matrix" values="0 0 0 0 0 0 0 0 0 0 0 0 0 0 0 0 0 0 127 0" result="hardAlpha"/>
<feOffset dx="10" dy="10"/>
<feGaussianBlur stdDeviation="10"/>
<feComposite in2="hardAlpha" operator="out"/>
<feColorMatrix type="matrix" values="0 0 0 0 0 0 0 0 0 0 0 0 0 0 0 0 0 0 0.4 0"/>
<feBlend mode="normal" in2="BackgroundImageFix" result="effect1_dropShadow_4_59"/>
<feBlend mode="normal" in="SourceGraphic" in2="effect1_dropShadow_4_59" result="shape"/>
</filter>
</defs>
</svg>
