<svg width="975" height="166" viewBox="0 0 975 166" fill="none" xmlns="http://www.w3.org/2000/svg">
<g filter="url(#filter0_d_422_148)">
<path d="M105.158 83.2551C108.03 86.9672 109.469 91.564 109.469 97.0454C109.469 105.265 106.263 111.743 99.854 116.471C93.4428 121.201 84.3594 123.564 72.604 123.564H25V30.7501H70.0853C81.225 30.7501 89.8637 32.8507 96.0081 37.0473C102.15 41.2462 105.225 47.19 105.225 54.8809C105.225 59.3888 104.142 63.3676 101.977 66.813C99.8095 70.2606 96.6928 73.0013 92.6291 75.0329C98.1089 76.8023 102.286 79.5408 105.16 83.2529L105.158 83.2551ZM50.8583 67.8733H67.5666C74.9916 67.8733 78.7063 64.8236 78.7063 58.7242C78.7063 52.6248 74.9938 49.5751 67.5666 49.5751H50.8583V67.8733ZM82.9478 95.0538C82.9478 88.7788 79.1464 85.6402 71.5437 85.6402H50.8583V104.734H71.5437C79.1464 104.734 82.9478 101.509 82.9478 95.056V95.0538Z" fill="#FFFCB9"/>
</g>
<g filter="url(#filter1_d_422_148)">
<path d="M136.652 119.775C130.397 116.597 125.531 112.184 122.053 106.534C118.574 100.887 116.835 94.4851 116.835 87.3352C116.835 80.1852 118.574 73.8077 122.053 68.2027C125.531 62.5977 130.397 58.2291 136.652 55.0947C142.904 51.9626 149.996 50.3932 157.924 50.3932C165.851 50.3932 173.029 52.138 178.93 55.623C184.83 59.1104 189.014 63.9451 191.482 70.1228L172.061 80.0542C168.801 73.6123 164.046 70.3892 157.793 70.3892C153.301 70.3892 149.58 71.892 146.63 74.8909C143.677 77.8921 142.204 82.0409 142.204 87.3374C142.204 92.6338 143.677 96.938 146.63 99.9814C149.58 103.027 153.301 104.55 157.793 104.55C164.046 104.55 168.803 101.329 172.061 94.8847L191.482 104.816C189.014 110.996 184.83 115.829 178.93 119.316C173.027 122.803 166.026 124.546 157.924 124.546C149.822 124.546 142.907 122.956 136.652 119.78V119.775Z" fill="#FFFCB9"/>
</g>
<g filter="url(#filter2_d_422_148)">
<path d="M203.539 39.9308C200.739 37.3688 199.339 34.1892 199.339 30.3874C199.339 26.5856 200.739 23.4082 203.539 20.844C206.338 18.2821 210.012 17 214.563 17C219.115 17 222.787 18.2154 225.588 20.644C228.386 23.0749 229.787 26.1901 229.787 29.9874C229.787 33.7848 228.386 37.2555 225.588 39.8619C222.787 42.4682 219.113 43.7725 214.563 43.7725C210.014 43.7725 206.34 42.4927 203.539 39.9285V39.9308ZM202.096 51.7272H227.029V123.564H202.096V51.7272Z" fill="#FFFCB9"/>
</g>
<g filter="url(#filter3_d_422_148)">
<path d="M313.334 123.561V85.8622L295.02 117.212H284.347L266.559 85.3344V123.564H244.029V51.8664H270.38L290.275 89.3017L312.147 51.8664H335.731L335.864 123.561H313.334Z" fill="#FFFCB9"/>
</g>
<g filter="url(#filter4_d_422_148)">
<path d="M465.514 51.8664V123.564H440.486V71.8409H416.386V123.564H391.358V51.8664H465.514Z" fill="#FFFCB9"/>
</g>
<g filter="url(#filter5_d_422_148)">
<path d="M541.669 54.8977C547.494 57.9007 551.97 62.2076 555.104 67.816C558.235 73.4267 559.804 79.9835 559.804 87.4911C559.804 94.9986 558.348 101.424 555.435 107.033C552.523 112.644 548.419 116.97 543.124 120.018C537.829 123.065 531.695 124.589 524.725 124.589C516.518 124.589 510.075 122.072 505.397 117.037V149.1H480.247V87.7554C480.247 80.3367 481.922 73.7998 485.278 68.147C488.631 62.4963 493.396 58.1228 499.574 55.031C505.75 51.9391 512.943 50.3932 521.152 50.3932C529.361 50.3932 535.845 51.8969 541.671 54.8977H541.669ZM530.881 99.8785C533.662 96.7445 535.051 92.6153 535.051 87.4911C535.051 82.3669 533.662 78.2399 530.881 75.1036C528.1 71.9696 524.461 70.3992 519.96 70.3992C515.459 70.3992 511.84 71.9674 509.106 75.1036C506.369 78.2399 505.002 82.3691 505.002 87.4911C505.002 92.6131 506.347 96.8555 509.039 99.9452C511.729 103.037 515.371 104.583 519.96 104.583C524.549 104.583 528.1 103.015 530.881 99.8785Z" fill="#FFFCB9"/>
</g>
<g filter="url(#filter6_d_422_148)">
<path d="M645.746 51.8664V123.358H621.814V115.84C619.17 118.655 616.018 120.809 612.36 122.303C608.701 123.798 604.802 124.546 600.659 124.546C591.316 124.546 583.889 121.821 578.38 116.368C572.87 110.917 570.117 102.74 570.117 91.8337V51.8664H595.237V87.745C595.237 98.0342 599.247 103.178 607.269 103.178C611.234 103.178 614.453 101.793 616.92 99.0227C619.387 96.2519 620.621 92.0106 620.621 86.2944V51.8664H645.742H645.746Z" fill="#FFFCB9"/>
</g>
<g filter="url(#filter7_d_422_148)">
<path d="M732.67 102.928C732.67 109.366 730.153 114.416 725.117 118.075C720.082 121.736 712.662 123.564 702.857 123.564H662.443V51.8664H701.002C710.365 51.8664 717.631 53.4986 722.798 56.7608C727.965 60.0252 730.549 64.6113 730.549 70.5192C730.549 73.9588 729.665 77.0014 727.899 79.6471C726.13 82.2928 723.614 84.4084 720.346 85.9963C728.561 88.7307 732.668 94.3746 732.668 102.928H732.67ZM684.968 80.7049H698.75C704.581 80.7049 707.495 78.5449 707.495 74.2227C707.495 69.9005 704.581 68.0043 698.75 68.0043H684.968V80.7027V80.7049ZM709.746 100.679C709.746 96.2707 706.784 94.0641 700.869 94.0641H684.968V107.293H700.605C706.7 107.293 709.748 105.09 709.748 100.679H709.746Z" fill="#FFFCB9"/>
</g>
<g filter="url(#filter8_d_422_148)">
<path d="M746.692 39.9308C743.891 37.3688 742.492 34.1892 742.492 30.3874C742.492 26.5856 743.891 23.4082 746.692 20.844C749.49 18.2821 753.164 17 757.716 17C762.268 17 765.94 18.2154 768.74 20.644C771.539 23.0749 772.94 26.1901 772.94 29.9874C772.94 33.7848 771.539 37.2555 768.74 39.8619C765.94 42.4682 762.266 43.7725 757.716 43.7725C753.167 43.7725 749.493 42.4927 746.692 39.9285V39.9308ZM745.249 51.7272H770.181V123.564H745.249V51.7272Z" fill="#FFFCB9"/>
</g>
<g filter="url(#filter9_d_422_148)">
<path d="M901.599 58.3605C906.843 63.672 909.465 71.6838 909.465 82.3959V123.559H884.347V86.512C884.347 81.4654 883.399 77.7478 881.506 75.3569C879.609 72.9661 876.945 71.7729 873.507 71.7729C869.717 71.7729 866.677 73.0996 864.385 75.7576C862.091 78.4134 860.947 82.4427 860.947 87.841V123.561H835.83V86.5142C835.83 76.6881 832.215 71.7751 824.99 71.7751C821.111 71.7751 818.026 73.1018 815.737 75.7598C813.443 78.4156 812.299 82.4449 812.299 87.8432V123.564H787.182V51.5886H811.109V59.1574C813.753 56.2368 816.902 54.044 820.562 52.5837C824.219 51.1234 828.206 50.3932 832.525 50.3932C837.55 50.3932 842.044 51.3237 846.009 53.1825C849.974 55.0413 853.192 57.8752 855.659 61.6818C858.478 58.0533 862.049 55.2639 866.368 53.3161C870.686 51.3705 875.402 50.3954 880.513 50.3954C889.325 50.3954 896.355 53.0512 901.599 58.3627V58.3605Z" fill="#FFFCB9"/>
</g>
<g filter="url(#filter10_d_422_148)">
<path d="M925.474 120.511C922.658 117.821 921.251 114.536 921.251 110.655C921.251 106.774 922.658 103.425 925.474 100.866C928.288 98.3084 931.894 97.0287 936.295 97.0287C940.695 97.0287 944.279 98.3084 947.049 100.866C949.821 103.425 951.206 106.687 951.206 110.655C951.206 114.623 949.796 117.821 946.982 120.511C944.166 123.202 940.602 124.546 936.293 124.546C931.983 124.546 928.286 123.202 925.472 120.511H925.474ZM921.384 30.7501H951.208L946.193 89.621H926.266L921.384 30.7501Z" fill="#FFFCB9"/>
</g>
<defs>
<filter id="filter0_d_422_148" x="19" y="24.7501" width="104.469" height="112.813" filterUnits="userSpaceOnUse" color-interpolation-filters="sRGB">
<feFlood flood-opacity="0" result="BackgroundImageFix"/>
<feColorMatrix in="SourceAlpha" type="matrix" values="0 0 0 0 0 0 0 0 0 0 0 0 0 0 0 0 0 0 127 0" result="hardAlpha"/>
<feOffset dx="4" dy="4"/>
<feGaussianBlur stdDeviation="5"/>
<feComposite in2="hardAlpha" operator="out"/>
<feColorMatrix type="matrix" values="0 0 0 0 0 0 0 0 0 0 0 0 0 0 0 0 0 0 0.3 0"/>
<feBlend mode="normal" in2="BackgroundImageFix" result="effect1_dropShadow_422_148"/>
<feBlend mode="normal" in="SourceGraphic" in2="effect1_dropShadow_422_148" result="shape"/>
</filter>
<filter id="filter1_d_422_148" x="110.835" y="44.3932" width="94.6465" height="94.1525" filterUnits="userSpaceOnUse" color-interpolation-filters="sRGB">
<feFlood flood-opacity="0" result="BackgroundImageFix"/>
<feColorMatrix in="SourceAlpha" type="matrix" values="0 0 0 0 0 0 0 0 0 0 0 0 0 0 0 0 0 0 127 0" result="hardAlpha"/>
<feOffset dx="4" dy="4"/>
<feGaussianBlur stdDeviation="5"/>
<feComposite in2="hardAlpha" operator="out"/>
<feColorMatrix type="matrix" values="0 0 0 0 0 0 0 0 0 0 0 0 0 0 0 0 0 0 0.3 0"/>
<feBlend mode="normal" in2="BackgroundImageFix" result="effect1_dropShadow_422_148"/>
<feBlend mode="normal" in="SourceGraphic" in2="effect1_dropShadow_422_148" result="shape"/>
</filter>
<filter id="filter2_d_422_148" x="193.339" y="11" width="50.4478" height="126.564" filterUnits="userSpaceOnUse" color-interpolation-filters="sRGB">
<feFlood flood-opacity="0" result="BackgroundImageFix"/>
<feColorMatrix in="SourceAlpha" type="matrix" values="0 0 0 0 0 0 0 0 0 0 0 0 0 0 0 0 0 0 127 0" result="hardAlpha"/>
<feOffset dx="4" dy="4"/>
<feGaussianBlur stdDeviation="5"/>
<feComposite in2="hardAlpha" operator="out"/>
<feColorMatrix type="matrix" values="0 0 0 0 0 0 0 0 0 0 0 0 0 0 0 0 0 0 0.3 0"/>
<feBlend mode="normal" in2="BackgroundImageFix" result="effect1_dropShadow_422_148"/>
<feBlend mode="normal" in="SourceGraphic" in2="effect1_dropShadow_422_148" result="shape"/>
</filter>
<filter id="filter3_d_422_148" x="238.029" y="45.8664" width="111.835" height="91.6971" filterUnits="userSpaceOnUse" color-interpolation-filters="sRGB">
<feFlood flood-opacity="0" result="BackgroundImageFix"/>
<feColorMatrix in="SourceAlpha" type="matrix" values="0 0 0 0 0 0 0 0 0 0 0 0 0 0 0 0 0 0 127 0" result="hardAlpha"/>
<feOffset dx="4" dy="4"/>
<feGaussianBlur stdDeviation="5"/>
<feComposite in2="hardAlpha" operator="out"/>
<feColorMatrix type="matrix" values="0 0 0 0 0 0 0 0 0 0 0 0 0 0 0 0 0 0 0.3 0"/>
<feBlend mode="normal" in2="BackgroundImageFix" result="effect1_dropShadow_422_148"/>
<feBlend mode="normal" in="SourceGraphic" in2="effect1_dropShadow_422_148" result="shape"/>
</filter>
<filter id="filter4_d_422_148" x="385.358" y="45.8664" width="94.1558" height="91.6971" filterUnits="userSpaceOnUse" color-interpolation-filters="sRGB">
<feFlood flood-opacity="0" result="BackgroundImageFix"/>
<feColorMatrix in="SourceAlpha" type="matrix" values="0 0 0 0 0 0 0 0 0 0 0 0 0 0 0 0 0 0 127 0" result="hardAlpha"/>
<feOffset dx="4" dy="4"/>
<feGaussianBlur stdDeviation="5"/>
<feComposite in2="hardAlpha" operator="out"/>
<feColorMatrix type="matrix" values="0 0 0 0 0 0 0 0 0 0 0 0 0 0 0 0 0 0 0.3 0"/>
<feBlend mode="normal" in2="BackgroundImageFix" result="effect1_dropShadow_422_148"/>
<feBlend mode="normal" in="SourceGraphic" in2="effect1_dropShadow_422_148" result="shape"/>
</filter>
<filter id="filter5_d_422_148" x="474.247" y="44.3932" width="99.5576" height="118.706" filterUnits="userSpaceOnUse" color-interpolation-filters="sRGB">
<feFlood flood-opacity="0" result="BackgroundImageFix"/>
<feColorMatrix in="SourceAlpha" type="matrix" values="0 0 0 0 0 0 0 0 0 0 0 0 0 0 0 0 0 0 127 0" result="hardAlpha"/>
<feOffset dx="4" dy="4"/>
<feGaussianBlur stdDeviation="5"/>
<feComposite in2="hardAlpha" operator="out"/>
<feColorMatrix type="matrix" values="0 0 0 0 0 0 0 0 0 0 0 0 0 0 0 0 0 0 0.3 0"/>
<feBlend mode="normal" in2="BackgroundImageFix" result="effect1_dropShadow_422_148"/>
<feBlend mode="normal" in="SourceGraphic" in2="effect1_dropShadow_422_148" result="shape"/>
</filter>
<filter id="filter6_d_422_148" x="564.117" y="45.8664" width="95.6289" height="92.6793" filterUnits="userSpaceOnUse" color-interpolation-filters="sRGB">
<feFlood flood-opacity="0" result="BackgroundImageFix"/>
<feColorMatrix in="SourceAlpha" type="matrix" values="0 0 0 0 0 0 0 0 0 0 0 0 0 0 0 0 0 0 127 0" result="hardAlpha"/>
<feOffset dx="4" dy="4"/>
<feGaussianBlur stdDeviation="5"/>
<feComposite in2="hardAlpha" operator="out"/>
<feColorMatrix type="matrix" values="0 0 0 0 0 0 0 0 0 0 0 0 0 0 0 0 0 0 0.3 0"/>
<feBlend mode="normal" in2="BackgroundImageFix" result="effect1_dropShadow_422_148"/>
<feBlend mode="normal" in="SourceGraphic" in2="effect1_dropShadow_422_148" result="shape"/>
</filter>
<filter id="filter7_d_422_148" x="656.443" y="45.8664" width="90.2271" height="91.6971" filterUnits="userSpaceOnUse" color-interpolation-filters="sRGB">
<feFlood flood-opacity="0" result="BackgroundImageFix"/>
<feColorMatrix in="SourceAlpha" type="matrix" values="0 0 0 0 0 0 0 0 0 0 0 0 0 0 0 0 0 0 127 0" result="hardAlpha"/>
<feOffset dx="4" dy="4"/>
<feGaussianBlur stdDeviation="5"/>
<feComposite in2="hardAlpha" operator="out"/>
<feColorMatrix type="matrix" values="0 0 0 0 0 0 0 0 0 0 0 0 0 0 0 0 0 0 0.3 0"/>
<feBlend mode="normal" in2="BackgroundImageFix" result="effect1_dropShadow_422_148"/>
<feBlend mode="normal" in="SourceGraphic" in2="effect1_dropShadow_422_148" result="shape"/>
</filter>
<filter id="filter8_d_422_148" x="736.492" y="11" width="50.4478" height="126.564" filterUnits="userSpaceOnUse" color-interpolation-filters="sRGB">
<feFlood flood-opacity="0" result="BackgroundImageFix"/>
<feColorMatrix in="SourceAlpha" type="matrix" values="0 0 0 0 0 0 0 0 0 0 0 0 0 0 0 0 0 0 127 0" result="hardAlpha"/>
<feOffset dx="4" dy="4"/>
<feGaussianBlur stdDeviation="5"/>
<feComposite in2="hardAlpha" operator="out"/>
<feColorMatrix type="matrix" values="0 0 0 0 0 0 0 0 0 0 0 0 0 0 0 0 0 0 0.3 0"/>
<feBlend mode="normal" in2="BackgroundImageFix" result="effect1_dropShadow_422_148"/>
<feBlend mode="normal" in="SourceGraphic" in2="effect1_dropShadow_422_148" result="shape"/>
</filter>
<filter id="filter9_d_422_148" x="781.182" y="44.3932" width="142.283" height="93.1703" filterUnits="userSpaceOnUse" color-interpolation-filters="sRGB">
<feFlood flood-opacity="0" result="BackgroundImageFix"/>
<feColorMatrix in="SourceAlpha" type="matrix" values="0 0 0 0 0 0 0 0 0 0 0 0 0 0 0 0 0 0 127 0" result="hardAlpha"/>
<feOffset dx="4" dy="4"/>
<feGaussianBlur stdDeviation="5"/>
<feComposite in2="hardAlpha" operator="out"/>
<feColorMatrix type="matrix" values="0 0 0 0 0 0 0 0 0 0 0 0 0 0 0 0 0 0 0.3 0"/>
<feBlend mode="normal" in2="BackgroundImageFix" result="effect1_dropShadow_422_148"/>
<feBlend mode="normal" in="SourceGraphic" in2="effect1_dropShadow_422_148" result="shape"/>
</filter>
<filter id="filter10_d_422_148" x="915.251" y="24.7501" width="49.957" height="113.796" filterUnits="userSpaceOnUse" color-interpolation-filters="sRGB">
<feFlood flood-opacity="0" result="BackgroundImageFix"/>
<feColorMatrix in="SourceAlpha" type="matrix" values="0 0 0 0 0 0 0 0 0 0 0 0 0 0 0 0 0 0 127 0" result="hardAlpha"/>
<feOffset dx="4" dy="4"/>
<feGaussianBlur stdDeviation="5"/>
<feComposite in2="hardAlpha" operator="out"/>
<feColorMatrix type="matrix" values="0 0 0 0 0 0 0 0 0 0 0 0 0 0 0 0 0 0 0.3 0"/>
<feBlend mode="normal" in2="BackgroundImageFix" result="effect1_dropShadow_422_148"/>
<feBlend mode="normal" in="SourceGraphic" in2="effect1_dropShadow_422_148" result="shape"/>
</filter>
</defs>
</svg>
