<svg width="780" height="350" viewBox="0 0 780 350" fill="none" xmlns="http://www.w3.org/2000/svg">
<g filter="url(#filter0_d_428_257)">
<path d="M61.9259 275.604C49.3512 270.273 39.0425 262.579 31 252.523L63.2815 213.904C74.5461 228.588 86.6149 235.927 99.4881 235.927C108.335 235.927 115.027 233.317 119.554 228.082C124.081 222.852 126.342 215.214 126.342 205.153V84.1612H53.3269V38H185.478V201.532C185.478 228.886 178.583 249.403 164.81 263.08C151.031 276.757 130.763 283.596 104.015 283.596C88.5219 283.596 74.4955 280.925 61.9259 275.599V275.604Z" fill="#FFECFD"/>
</g>
<g filter="url(#filter1_d_428_257)">
<path d="M395.175 85.6736V249.205H340.562V231.704C334.528 238.34 327.284 243.373 318.837 246.793C310.39 250.212 301.437 251.922 291.983 251.922C270.865 251.922 254.016 245.69 241.447 233.216C228.872 220.748 222.59 202.043 222.59 177.096V85.6736H279.914V167.743C279.914 180.014 282.226 188.967 286.854 194.597C291.477 200.232 298.215 203.044 307.072 203.044C315.929 203.044 323.516 199.878 329.247 193.54C334.978 187.202 337.846 177.5 337.846 164.425V85.6736H395.17H395.175Z" fill="#FFECFD"/>
</g>
<g filter="url(#filter2_d_428_257)">
<path d="M509.369 88.5365C518.722 84.8187 529.435 82.9523 541.504 82.9523V134.546C536.274 133.944 531.949 133.641 528.53 133.641C516.259 133.641 506.653 136.959 499.718 143.595C492.778 150.231 489.309 160.393 489.309 174.071V249.2H431.984V85.6736H486.597V105.284C492.429 97.8436 500.022 92.2644 509.379 88.5365H509.369Z" fill="#FFECFD"/>
</g>
<g filter="url(#filter3_d_428_257)">
<path d="M737.621 85.6736V219.332C737.621 249.701 729.523 272.483 713.331 287.673C697.135 302.858 673.852 310.455 643.483 310.455C627.59 310.455 612.754 308.644 598.981 305.023C585.202 301.401 573.487 296.07 563.831 289.034L584.651 248.907C591.085 254.339 599.178 258.608 608.94 261.729C618.692 264.845 628.399 266.408 638.055 266.408C652.537 266.408 663.194 263.09 670.038 256.454C676.877 249.817 680.296 239.964 680.296 226.883V223.262C668.025 234.931 652.734 240.763 634.433 240.763C613.31 240.763 596.461 234.531 583.897 222.058C571.322 209.589 565.04 190.884 565.04 165.937V85.6736H622.365V156.574C622.365 169.048 624.676 178.102 629.304 183.727C633.928 189.362 640.665 192.174 649.517 192.174C658.369 192.174 665.961 188.957 671.692 182.518C677.423 176.084 680.291 166.428 680.291 153.555V85.6736H737.616H737.621Z" fill="#FFECFD"/>
</g>
<defs>
<filter id="filter0_d_428_257" x="21" y="28" width="194.478" height="285.596" filterUnits="userSpaceOnUse" color-interpolation-filters="sRGB">
<feFlood flood-opacity="0" result="BackgroundImageFix"/>
<feColorMatrix in="SourceAlpha" type="matrix" values="0 0 0 0 0 0 0 0 0 0 0 0 0 0 0 0 0 0 127 0" result="hardAlpha"/>
<feOffset dx="10" dy="10"/>
<feGaussianBlur stdDeviation="10"/>
<feComposite in2="hardAlpha" operator="out"/>
<feColorMatrix type="matrix" values="0 0 0 0 0 0 0 0 0 0 0 0 0 0 0 0 0 0 0.4 0"/>
<feBlend mode="normal" in2="BackgroundImageFix" result="effect1_dropShadow_428_257"/>
<feBlend mode="normal" in="SourceGraphic" in2="effect1_dropShadow_428_257" result="shape"/>
</filter>
<filter id="filter1_d_428_257" x="212.59" y="75.6736" width="212.586" height="206.248" filterUnits="userSpaceOnUse" color-interpolation-filters="sRGB">
<feFlood flood-opacity="0" result="BackgroundImageFix"/>
<feColorMatrix in="SourceAlpha" type="matrix" values="0 0 0 0 0 0 0 0 0 0 0 0 0 0 0 0 0 0 127 0" result="hardAlpha"/>
<feOffset dx="10" dy="10"/>
<feGaussianBlur stdDeviation="10"/>
<feComposite in2="hardAlpha" operator="out"/>
<feColorMatrix type="matrix" values="0 0 0 0 0 0 0 0 0 0 0 0 0 0 0 0 0 0 0.4 0"/>
<feBlend mode="normal" in2="BackgroundImageFix" result="effect1_dropShadow_428_257"/>
<feBlend mode="normal" in="SourceGraphic" in2="effect1_dropShadow_428_257" result="shape"/>
</filter>
<filter id="filter2_d_428_257" x="421.984" y="72.9523" width="149.52" height="206.248" filterUnits="userSpaceOnUse" color-interpolation-filters="sRGB">
<feFlood flood-opacity="0" result="BackgroundImageFix"/>
<feColorMatrix in="SourceAlpha" type="matrix" values="0 0 0 0 0 0 0 0 0 0 0 0 0 0 0 0 0 0 127 0" result="hardAlpha"/>
<feOffset dx="10" dy="10"/>
<feGaussianBlur stdDeviation="10"/>
<feComposite in2="hardAlpha" operator="out"/>
<feColorMatrix type="matrix" values="0 0 0 0 0 0 0 0 0 0 0 0 0 0 0 0 0 0 0.4 0"/>
<feBlend mode="normal" in2="BackgroundImageFix" result="effect1_dropShadow_428_257"/>
<feBlend mode="normal" in="SourceGraphic" in2="effect1_dropShadow_428_257" result="shape"/>
</filter>
<filter id="filter3_d_428_257" x="553.831" y="75.6736" width="213.79" height="264.781" filterUnits="userSpaceOnUse" color-interpolation-filters="sRGB">
<feFlood flood-opacity="0" result="BackgroundImageFix"/>
<feColorMatrix in="SourceAlpha" type="matrix" values="0 0 0 0 0 0 0 0 0 0 0 0 0 0 0 0 0 0 127 0" result="hardAlpha"/>
<feOffset dx="10" dy="10"/>
<feGaussianBlur stdDeviation="10"/>
<feComposite in2="hardAlpha" operator="out"/>
<feColorMatrix type="matrix" values="0 0 0 0 0 0 0 0 0 0 0 0 0 0 0 0 0 0 0.4 0"/>
<feBlend mode="normal" in2="BackgroundImageFix" result="effect1_dropShadow_428_257"/>
<feBlend mode="normal" in="SourceGraphic" in2="effect1_dropShadow_428_257" result="shape"/>
</filter>
</defs>
</svg>
