<?xml version="1.0" encoding="utf-8"?>
<!-- Generator: Adobe Illustrator 25.0.0, SVG Export Plug-In . SVG Version: 6.00 Build 0)  -->
<svg version="1.1" id="Слой_1" xmlns="http://www.w3.org/2000/svg" xmlns:xlink="http://www.w3.org/1999/xlink" x="0px" y="0px"
	 viewBox="0 0 1920 1920" style="enable-background:new 0 0 1920 1920;" xml:space="preserve">
<style type="text/css">
	.st0{fill:#F5FFF7;}
</style>
<g>
	<path class="st0" d="M903.96,1371.29c-22.45-39.01-33.83-89.95-33.83-151.42c0-28.35,2.99-74.29,9.14-140.41l6.51-90.67
		c5.18-57.29,14.14-75.06,20.6-83.2c11.66-16.97,36.78-28.22,76.75-34.38l0.27-0.04c26.14-3.47,38.33-6.76,43.96-8.9l13.22-152.54
		c0.91-9.28-1.87-29.96-8.37-62.01s-11.62-52.71-15.32-62.01c-36.24-83.61-96.14-135.65-179.73-156.1
		c-26.93-6.5-96.59-9.75-208.95-9.75c-96.61,0-157.91,2.34-183.91,6.97c-22.3,3.74-47.84,15.8-76.62,36.24
		c-14.87,10.24-33.43,30.67-55.74,61.32c-22.3,30.67-33.9,53.42-34.82,68.29l-20.9,235.52c-2.8,26.95-21,43.69-54.56,50.19
		c-48.51,9.3-77.9,17.18-88.16,23.68c-14,8.37-21.45,20.43-22.38,36.24l-44.2,510.09c-2.78,26.93,17.18,44.14,59.92,51.57
		c11.15,1.85,41.36,2.78,90.59,2.78c50.17,0,78.97-0.47,86.41-1.4c45.52-5.57,69.67-22.75,72.47-51.55l73.86-842.97
		c1.85-24.15,40.87-36.24,117.06-36.24c2.78,0,19.03,0.51,48.77,1.48c29.74,1,38.55,1.48,26.49,1.48c90.11,0,141.21,0.35,153.28,1
		c24.15,1.87,49.24,17.23,75.26,46.07c26,28.84,38.09,55.37,36.24,79.54l-65.55,748.15c-1.87,16.74,6.03,30.25,23.68,40.48
		c14.87,9.3,31.12,13.95,48.79,13.95c17.63,0,35.28-4.65,52.95-13.93c17.5-9.22,27.22-22.08,29.21-38.58
		C944.24,1425.52,919.96,1399.08,903.96,1371.29z"/>
	<path class="st0" d="M1806.13,1253.35c-3.47,46.45-6.5,91.51-9.1,135.16c-12.11,76.15-34.43,114.24-66.97,114.24h-581.83
		c-13.95,0-34.88-3.96-62.79-11.84c-27.91-7.9-47.92-15.56-60-22.99c-52.08-31.59-88.83-65.95-110.22-103.11
		c-21.39-37.17-32.09-85.47-32.09-144.93c0-27.87,3.05-74.3,9.1-139.34l6.5-90.57c3.7-40.87,9.75-66.42,18.12-76.64
		c9.28-13.93,32.03-23.68,68.27-29.27c27.85-3.7,45.5-7.88,52.93-12.53c16.72-7.43,26.47-21.37,29.25-41.8
		c3.72-30.65,6.97-61.3,9.75-91.97c4.63-35.3,11.15-65.02,19.52-89.17c30.63-87.32,81.25-149.09,151.86-185.33
		c58.5-30.65,137.92-45.99,238.25-45.99c13,0,32.72,0,59.21,0c26.47,0,46.21,0,59.21,0h214.56c39.93,0,57.57,26.02,52.93,78.06
		c-1.87,17.98-8.37,35-19.5,51.09c-13,18.93-27.4,28.38-43.18,28.38h-441.57c-23.24,0-50.64,15.11-82.2,45.3
		c-31.57,30.18-48.28,56.9-50.13,80.09l-47.37,528.06l6.99,13.93c-3.74,17.65,9.06,39.71,38.37,66.18
		c29.31,26.49,53.28,39.71,71.89,39.71h337.76l22.71-275.78c0.93-5.57-2.56-12.53-10.46-20.9c-7.9-8.35-14.62-12.53-20.19-12.53
		h-220.21c-18.59,0-32.05-8.82-40.4-26.47c-7.43-14.87-10.24-32.05-8.37-51.57c4.63-52.93,39.49-79.42,104.53-79.42
		c8.35,0,20.41,0.47,36.22,1.4c15.8,0.93,27.87,1.38,36.24,1.38c95.69,0,161.2,9.77,196.5,29.27
		c51.11,27.87,76.66,84.05,76.66,168.57C1816.85,1110.8,1813.28,1167.92,1806.13,1253.35z"/>
</g>
</svg>
