<?xml version="1.0" encoding="utf-8"?>
<!-- Generator: Adobe Illustrator 25.0.0, SVG Export Plug-In . SVG Version: 6.00 Build 0)  -->
<svg version="1.1" id="Слой_1" xmlns="http://www.w3.org/2000/svg" xmlns:xlink="http://www.w3.org/1999/xlink" x="0px" y="0px"
	 viewBox="0 0 1920 1920" style="enable-background:new 0 0 1920 1920;" xml:space="preserve">
<style type="text/css">
	.st0{fill:#FFBFF6;}
	.st1{fill:#F5FFF7;}
</style>
<g>
	<path class="st0" d="M197.4,1512.8c-50.2,0-80.4-1-92.2-2.9c-60.6-10.5-70.5-39.7-68.2-62.4l44.2-509.9c1.2-19.1,10.3-33.9,27.1-44
		c7.3-4.6,24.9-12.2,91.5-25c38.5-7.5,45-27.1,46.5-41.3l20.9-235.3c1.1-17,13.1-41,36.7-73.4c23.2-31.8,42.2-52.7,58.1-63.6
		c29.8-21.2,56.9-33.9,80.6-37.9c26.9-4.8,87.7-7.1,185.6-7.1c114.2,0,183.3,3.3,211.3,10c86.4,21.1,149.2,75.6,186.6,161.8l0.1,0.3
		c4,10,9.2,30.9,15.8,63.7c9,44.2,9.2,58.2,8.5,64.9l-13.8,158.7l-5.9,2.2c-8.9,3.4-24.4,6.6-46.1,9.5l-0.2,0
		c-36.5,5.6-60.1,15.8-70,30.2l-0.2,0.3l-0.2,0.3c-8.6,10.8-14.8,37-18.5,77.8l-6.5,90.8c-6.1,65.8-9.1,111.4-9.1,139.5
		c0,59.7,10.9,109,32.5,146.4c15.3,26.5,38.8,52.1,69.8,76l4.5,3.5l-0.7,5.7c-2.4,19.9-14,35.4-34.5,46.2
		c-19.1,10-38.4,15.1-57.6,15.1c-19.4,0-37.6-5.2-53.9-15.4c-26.3-15.3-30-35.6-28.5-50l65.5-748c1.6-21.2-9.7-45.4-33.7-72
		c-24.1-26.7-47.1-41.1-68.5-42.8c-8.5-0.4-42-1-152.6-1v-0.5c-3.9-0.2-11.7-0.5-26.8-1c-27.9-0.9-45.7-1.5-48.4-1.5
		c-36.9,0-65,2.9-83.4,8.6c-15.1,4.7-23.1,10.9-23.6,18.4l-73.9,843.1c-1.7,17.4-9.9,31.5-24.4,41.8c-13.6,9.7-32.2,15.8-56.8,18.8
		C282.2,1511.6,273.3,1512.8,197.4,1512.8z"/>
	<path class="st1" d="M904,1371.3c-22.5-39-33.8-89.9-33.8-151.4c0-28.3,3-74.3,9.1-140.4l6.5-90.7c5.2-57.3,14.1-75.1,20.6-83.2
		c11.7-17,36.8-28.2,76.8-34.4l0.3,0c26.1-3.5,38.3-6.8,44-8.9l13.2-152.5c0.9-9.3-1.9-30-8.4-62s-11.6-52.7-15.3-62
		c-36.2-83.6-96.1-135.6-179.7-156.1c-26.9-6.5-96.6-9.8-209-9.8c-96.6,0-157.9,2.3-183.9,7c-22.3,3.7-47.8,15.8-76.6,36.2
		c-14.9,10.2-33.4,30.7-55.7,61.3c-22.3,30.7-33.9,53.4-34.8,68.3l-20.9,235.5c-2.8,27-21,43.7-54.6,50.2
		c-48.5,9.3-77.9,17.2-88.2,23.7c-14,8.4-21.4,20.4-22.4,36.2l-44.2,510.1c-2.8,26.9,17.2,44.1,59.9,51.6
		c11.2,1.8,41.4,2.8,90.6,2.8c50.2,0,79-0.5,86.4-1.4c45.5-5.6,69.7-22.8,72.5-51.6l73.9-843c1.9-24.2,40.9-36.2,117.1-36.2
		c2.8,0,19,0.5,48.8,1.5c29.7,1,38.5,1.5,26.5,1.5c90.1,0,141.2,0.3,153.3,1c24.2,1.9,49.2,17.2,75.3,46.1
		c26,28.8,38.1,55.4,36.2,79.5l-65.5,748.2c-1.9,16.7,6,30.2,23.7,40.5c14.9,9.3,31.1,13.9,48.8,13.9c17.6,0,35.3-4.7,53-13.9
		c17.5-9.2,27.2-22.1,29.2-38.6C944.2,1425.5,920,1399.1,904,1371.3z"/>
	<path class="st0" d="M1148.2,1512.8c-15,0-36.4-4-65.5-12.2c-29.1-8.2-49.6-16.1-62.5-24.1c-53.3-32.3-91.5-68.2-113.6-106.6
		c-22.2-38.5-33.4-89-33.4-149.9c0-28.2,3-74.1,9.1-140.2l6.5-90.6c3.9-43.4,10.3-69.4,20-81.7c11.1-16.3,35.6-27.2,74.8-33.2l0.2,0
		c34.5-4.6,45.5-8.9,48.9-11.1l0.6-0.4l0.6-0.3c13.4-6,21.1-17.1,23.4-33.9c3.7-30.4,7-61.2,9.7-91.6l0-0.2l0-0.2
		c4.7-35.7,11.4-66.4,20-91.1c31.4-89.4,84.1-153.7,156.7-191c59.6-31.2,141.3-47.1,242.8-47.1h333c20.1,0,35.9,6,46.7,17.9
		c13.8,15.1,19.1,38.3,16.2,71.1l0,0.1c-2,19.6-9.2,38.3-21.2,55.7c-14.9,21.7-32.2,32.7-51.4,32.7h-441.6
		c-20.5,0-45.8,14.3-75.3,42.5c-29.6,28.3-45.4,53.1-47.1,73.7l-47.1,525.3l7.3,14.5l-0.7,3.4c-2.9,13.6,9.3,33.2,35.3,56.7
		c34,30.7,54.2,37.1,65.2,37.1h328.6l22-267l0.1-0.4c0.2-1-0.9-5-7.9-12.4c-8.8-9.3-12.8-9.4-12.9-9.4h-220.2
		c-22.3,0-39.4-11.1-49.4-32.1c-8.2-16.5-11.4-35.7-9.3-56.9c2.6-29.2,13.8-51.6,33.5-66.6c19.1-14.5,46.4-21.9,81-21.9
		c8.6,0,20.6,0.5,36.8,1.4c15.4,0.9,27.4,1.4,35.7,1.4c98.3,0,164.2,10,201.3,30.5c54.3,29.6,81.8,89.3,81.8,177.3
		c0,29.1-3.7,87-10.8,172.2c-3.4,45.9-6.5,91.3-9.1,134.9l0,0.5l-0.1,0.5c-6.3,39.7-15.2,68.9-27.1,89.2
		c-13,22.2-29.8,33.5-49.8,33.5H1148.2z"/>
	<path class="st1" d="M1806.1,1253.3c-3.5,46.4-6.5,91.5-9.1,135.2c-12.1,76.2-34.4,114.2-67,114.2h-581.8c-13.9,0-34.9-4-62.8-11.8
		c-27.9-7.9-47.9-15.6-60-23c-52.1-31.6-88.8-65.9-110.2-103.1c-21.4-37.2-32.1-85.5-32.1-144.9c0-27.9,3-74.3,9.1-139.3l6.5-90.6
		c3.7-40.9,9.8-66.4,18.1-76.6c9.3-13.9,32-23.7,68.3-29.3c27.8-3.7,45.5-7.9,52.9-12.5c16.7-7.4,26.5-21.4,29.2-41.8
		c3.7-30.7,7-61.3,9.8-92c4.6-35.3,11.2-65,19.5-89.2c30.6-87.3,81.2-149.1,151.9-185.3c58.5-30.6,137.9-46,238.2-46
		c13,0,32.7,0,59.2,0c26.5,0,46.2,0,59.2,0h214.6c39.9,0,57.6,26,52.9,78.1c-1.9,18-8.4,35-19.5,51.1c-13,18.9-27.4,28.4-43.2,28.4
		h-441.6c-23.2,0-50.6,15.1-82.2,45.3c-31.6,30.2-48.3,56.9-50.1,80.1l-47.4,528.1l7,13.9c-3.7,17.7,9.1,39.7,38.4,66.2
		c29.3,26.5,53.3,39.7,71.9,39.7h337.8l22.7-275.8c0.9-5.6-2.6-12.5-10.5-20.9c-7.9-8.3-14.6-12.5-20.2-12.5h-220.2
		c-18.6,0-32.1-8.8-40.4-26.5c-7.4-14.9-10.2-32-8.4-51.6c4.6-52.9,39.5-79.4,104.5-79.4c8.3,0,20.4,0.5,36.2,1.4
		c15.8,0.9,27.9,1.4,36.2,1.4c95.7,0,161.2,9.8,196.5,29.3c51.1,27.9,76.7,84,76.7,168.6C1816.8,1110.8,1813.3,1167.9,1806.1,1253.3
		z"/>
</g>
</svg>
