<svg xmlns="http://www.w3.org/2000/svg" viewBox="0 0 988.35 718.24"><g id="Слой_4" data-name="Слой 4"><path d="M902.91,429c10.21-29.63,24.37-55.31,42.1-76.38,11.67-13.64,23.73-23.58,36.07-29.76,2.69-12.22,4.36-26.82,5-44,4.93-9.43,7.43-18.77,7.43-27.81a55.31,55.31,0,0,0-11.08-33l-.12-.17c-15-19.94-34-30-56.46-30-40.58,0-45,25.8-45,36.9a68.64,68.64,0,0,0,1,10.65l-12,116.54v.62c0,8.08-.47,17.56-1.41,28.16-2.59,25.3-8.35,28.65-8.4,28.67h-9.57L825.28,512.24c-36.67-15.93-69.28-36.87-97.09-62.36-42.48-39-63.13-87.14-63.13-147.17a254.68,254.68,0,0,1,1.4-25.87l.53-5.08L628.25,226l-24.8,45.09-8.2-.67-20.08-36.13-40.25,13.81-43.62,179c-7.4,13.34-11,33.9-11,62.74V506c0,36.91-5.06,66.79-15,88.79l-.48,1.07L429.68,745.47l96.09-22.64,41.47-181.69-9.16-10.55L571,516.08l25.73-107.31a165.89,165.89,0,0,0,9,29c17.22,40.43,42.47,68.86,75.07,84.49l2.46,1.18H686c5,0,21.65,4.34,67.61,44.38,39.76,39.83,44.73,56.69,44.9,62.33,0,.09-.1.24-.2.45l-2.43,4.87,14.86,36.23,95.65,83.34-11.48-39.32a112,112,0,0,1-4.65-31.43c0-15.72,3.45-30.06,10.29-42.65,4.86-9,10.86-15.94,18.16-20.9-20.15-29.58-30.37-65.14-30.37-105.83A266.92,266.92,0,0,1,902.91,429Z" transform="translate(-429.68 -187.81)"/><path d="M1416.4,547.92a122.73,122.73,0,0,0-48.23-56.71c-36.69-23.09-87.88-34.8-152.14-34.8-24.76,0-53.44,1.88-85.25,5.57l-17.49,2,26,48.64-23.79,50,26.74-8.91c24.29-8.1,56.16-12.2,94.71-12.2a402.61,402.61,0,0,1,51.17,3.19c19.43,2.56,28.39,5.79,32.37,7.86l-25.83,52.88-57.12,36.58c-5.22,3.18-15.91,7-37.21,7H1196l-27.9-.73c-6.57-.25-14.61-.37-23.89-.37-6.54,0-19.69-1.63-45.18-9.36-61.3-18.83-83.79-37-91.79-49.15-12-27.33-18-54.49-18-80.74,0-47.78,16.83-85.41,51.46-115l3.22-2.75.78-4.16c3-16.26,17.79-33.78,43.81-52.09,24.84-17.45,47.08-27.18,66.13-28.91L1319,315.67l-28.49-28.49L1314,276.42l-30.19-26.57-9-20.44-4.64-1.8c-10.29-4-23.57-5.94-40.6-5.94-43.26,0-90.16,9.5-139.34,28.23-51.53,19.29-83.12,41.56-96.26,67.93a73.79,73.79,0,0,0-12.9,5.06,105.06,105.06,0,0,1-8.2,24.37c-4.75,9.49-7.16,22-7.16,37.12,0,1.82.06,6.49.36,18.37l0,1-29.34,208.8L930,615a51.38,51.38,0,0,0-11.28,5.74c1.12,1.65,2.26,3.29,3.44,4.9,14,19.12,29.18,33.33,45.08,42.26,43.4,39.85,110.82,60.06,200.44,60.06,42.1,0,80.17-4,113.53-11.74l-7.11,24,1.6,1-6.13.71-88,117.28,15.15,17.84,44.43-23.19L1253,906.05l133.55-237.14L1418,551.74Z" transform="translate(-429.68 -187.81)"/><path d="M902.91,429c10.21-29.63,24.37-55.31,42.1-76.38a140,140,0,0,1,21-20.26q7-20.79,8.2-56.78,7.32-12.81,7.32-24.54a43.38,43.38,0,0,0-8.79-26q-19-25.26-46.87-25.26-33,0-33,24.9A61.48,61.48,0,0,0,894,235L881.94,352.52q0,12.81-1.46,29.29-4,39.56-20.51,39.55L833.6,528.66Q768.41,503,720.08,458.72q-67-61.53-67-156a265.25,265.25,0,0,1,1.47-27.1l-24.17-28.56-20.15,36.62-22.33-1.83-18.32-33L545,257.3,502.55,431.62q-10.26,16.85-10.26,58.22V506q0,58.23-16.11,93.75L445.79,729.35l69.94-16.48,38.45-168.46L542.1,530.49,560,510.35l38.82-161.86,9.16,4a119.52,119.52,0,0,0-2.57,24.9,144.52,144.52,0,0,0,11.36,55.66Q641,489.86,686,511.45q21.24,0,75.81,47.61,48.69,48.71,48.7,71.41a12.4,12.4,0,0,1-1.46,5.49l11.72,28.57,62.62,54.56a123.71,123.71,0,0,1-5.13-34.79q0-26.73,11.72-48.34,8.78-16.29,22.35-25.37c-15.91-27.46-24-59.54-24-95.67A266.92,266.92,0,0,1,902.91,429Z" transform="translate(-429.68 -187.81)"/><path d="M996.67,595.12q19,30.4,98.88,54.93,32.58,9.88,48.7,9.89,13.92,0,23.44.36l28.2.74h4.39q29.29,0,43.58-8.79l60.06-38.45,30.76-63q-3.3-12.45-45-17.95a414.64,414.64,0,0,0-52.74-3.29q-60.06,0-98.51,12.81l14.29-30-20.51-38.46q47.24-5.49,83.86-5.49,93.39,0,145.75,33a110.35,110.35,0,0,1,43.58,51.27l-30,111.69L1257.78,873.07l-8.43-37-58.22,30.39,85-113.16,34.42-4L1288.17,735l10.62-35.89Q1243.13,716,1167.69,716q-131.48,0-193.36-57.86Q952,646,931.85,618.56q-31.5-42.85-31.49-103.64a253.87,253.87,0,0,1,13.91-82q14.64-42.48,39.92-72.51,23.8-27.83,48.34-32.23,14.64-38.08,91.92-67,72.13-27.47,135.13-27.46,23.07,0,36.25,5.13l8.06,18.31,18.31,16.11-22.34,10.25,18.31,18.31-133.66-8q-32.23,2.56-72.88,31.13-43.22,30.39-48.71,59.69-55.67,47.61-55.66,124.14Q977.26,551.18,996.67,595.12Z" transform="translate(-429.68 -187.81)"/></g></svg>