<svg width="316" height="308" viewBox="0 0 316 308" fill="none" xmlns="http://www.w3.org/2000/svg">
<g filter="url(#filter0_d_4_26)">
<path d="M77.1254 82.3142C76.9911 83.5197 76.285 84.4597 75.0133 85.1312C73.7385 85.7995 72.4637 86.1367 71.189 86.1367C69.9142 86.1367 68.7394 85.7995 67.6677 85.128C66.3929 84.391 65.8211 83.4166 65.9586 82.2081L70.6859 28.2277C70.8203 26.4819 69.9486 24.5675 68.0708 22.4876C66.193 20.4078 64.3808 19.2991 62.6373 19.1648C61.7656 19.1148 58.0756 19.0899 51.5705 19.0899C52.4422 19.0899 51.8048 19.0524 49.6583 18.9774C47.5118 18.9025 46.337 18.865 46.137 18.865C40.638 18.865 37.8197 19.7363 37.6854 21.4789L32.3519 82.3174C32.1519 84.3941 30.4054 85.6371 27.1216 86.0368C26.5841 86.1024 24.5064 86.1367 20.8851 86.1367C17.3295 86.1367 15.1517 86.068 14.3456 85.9369C11.2618 85.3997 9.81828 84.1599 10.0182 82.2174L13.2364 45.4133C13.3021 44.2734 13.8395 43.4021 14.8455 42.7994C15.5829 42.331 17.6951 41.7595 21.1851 41.0911C23.6003 40.6227 24.9063 39.4172 25.1094 37.4716L26.6185 20.4765C26.6841 19.4053 27.5246 17.7626 29.1337 15.5484C30.7428 13.3343 32.0832 11.8633 33.158 11.1232C35.2358 9.64915 37.0823 8.77785 38.6914 8.50927C40.5692 8.17511 44.9966 8.00647 51.9704 8.00647C60.0846 8.00647 65.115 8.2407 67.0616 8.70914C73.098 10.1832 77.4254 13.937 80.0406 19.9705C80.3093 20.642 80.678 22.1316 81.1466 24.4457C81.6153 26.7599 81.8153 28.2526 81.7496 28.921L77.1254 82.3142Z" fill="#FFE1FE"/>
<path d="M105.899 82.3078C105.696 84.3877 103.911 85.6306 100.543 86.0335C100.003 86.099 97.9125 86.1334 94.2756 86.1334C89.4233 86.1334 86.73 86.0335 86.1895 85.8305C84.5742 85.2246 83.7649 83.2103 83.7649 79.7875C83.7649 78.9787 84.068 75.5247 84.671 69.4099L85.374 61.3496C85.7771 56.7838 86.4145 54.2979 87.2862 53.8951C87.5518 53.7608 89.7014 53.258 93.7257 52.3835C96.2065 51.8464 97.5125 50.6035 97.65 48.6578L98.8467 34.1517C98.9123 32.9431 99.6122 31.9875 100.94 31.2817C102.271 30.579 103.537 30.223 104.733 30.223C106.064 30.223 107.227 30.5259 108.226 31.1287C109.492 31.8657 110.057 32.84 109.923 34.0486L105.899 82.3078ZM111.735 13.5308C111.398 17.2846 109.386 19.1615 105.699 19.1615C101.94 19.1615 100.231 17.2846 100.568 13.5308C100.903 9.84567 102.949 8 106.705 8C110.392 8 112.069 9.84567 111.735 13.5308Z" fill="#FFE1FE"/>
<path d="M169.684 66.6274C169.485 68.7728 168.713 71.0183 167.369 73.3636C164.082 78.9943 159.755 82.7169 154.39 84.5251C151.238 85.5962 146.576 86.1334 140.405 86.1334C132.222 86.1334 126.086 84.6906 121.993 81.8018C117.028 78.376 114.547 72.7702 114.547 64.9784C114.547 63.367 114.581 62.0897 114.647 61.1497C114.847 58.464 115.15 56.6183 115.553 55.6096C116.291 53.7295 117.7 52.7895 119.777 52.7895C123.333 52.7895 125.445 52.3211 126.117 51.3779C126.183 51.2437 127.054 49.0295 128.732 44.7292C129.27 43.3176 129.938 41.9747 130.744 40.6974C132.688 37.6088 135.54 35.0917 139.296 33.143C143.052 31.1942 146.807 30.2199 150.563 30.2199C156.262 30.2199 161.192 32.0062 165.351 35.5726C169.709 39.4108 171.656 44.1577 171.187 49.8102C170.919 52.7052 169.041 54.1543 165.554 54.1543C163.342 54.1543 161.933 53.717 161.33 52.8364C160.861 51.0126 159.786 48.4111 158.111 45.0321C156.368 42.5993 153.584 41.3845 149.76 41.3845C144.729 41.3845 141.243 43.5362 139.296 47.8396C138.356 49.8571 137.687 53.3548 137.284 58.3297C137.084 60.75 136.981 62.5332 136.981 63.6762C136.981 71.2088 140.333 74.9719 147.042 74.9719C151.2 74.9719 154.387 73.398 156.599 70.2469C157.605 68.2357 159.014 65.9216 160.824 63.3077C161.695 62.6394 163.036 62.3021 164.848 62.3021C168.275 62.3021 169.884 63.7449 169.684 66.6274Z" fill="#FFE1FE"/>
<path d="M231.655 55.5658C231.186 60.9967 229.609 63.7105 226.928 63.7105H197.652C197.452 63.8448 197.314 64.282 197.249 65.019C197.049 67.0302 197.886 69.1757 199.764 71.4555C201.642 73.7352 203.588 74.8751 205.6 74.8751H222.3C223.506 74.8751 224.447 75.5528 225.119 76.905C225.653 77.9856 225.856 79.2035 225.722 80.5589C225.453 84.0754 224.013 85.9023 221.394 86.0366C220.188 86.1022 215.627 86.1365 207.712 86.1365C196.242 86.1365 188.328 85.0622 183.97 82.9136C177.999 79.9593 175.015 74.1506 175.015 65.4844C175.015 64.0759 175.084 62.63 175.215 61.1528C175.48 58.3328 175.783 56.4871 176.121 55.6127C176.858 53.7327 178.267 52.7927 180.345 52.7927C183.429 52.7927 185.441 52.3898 186.382 51.5841C187.05 50.9813 187.956 49.1325 189.097 46.0439C189.5 44.8353 190.237 43.0553 191.309 40.7037C192.918 37.7493 195.871 35.2322 200.164 33.1461C204.119 31.2005 207.909 30.2261 211.534 30.2261C218.107 30.2261 223.169 32.306 226.725 36.4596C230.077 40.3476 231.755 45.6442 231.755 52.3492C231.758 53.6889 231.721 54.7601 231.655 55.5658ZM220.691 52.5491L220.891 50.5191C220.957 49.8446 220.641 48.764 219.935 47.2744C219.232 45.7878 218.61 44.7698 218.073 44.2295C217.067 43.2145 215.358 42.3026 212.943 41.4906C212.743 41.4219 211.937 41.3876 210.527 41.3876C207.709 41.3876 205.06 42.4369 202.579 44.5324C200.098 46.631 198.755 48.661 198.555 50.6222L198.355 52.5491H220.691Z" fill="#FFE1FE"/>
<path d="M76.6073 163.342C76.3792 166.696 76.1761 169.947 76.0043 173.095C75.1294 178.591 73.5203 181.34 71.1676 181.34H29.1498C28.1406 181.34 26.6315 181.052 24.6131 180.484C22.5978 179.912 21.1543 179.36 20.2795 178.826C16.5176 176.546 13.8618 174.063 12.3184 171.383C10.7749 168.704 10 165.216 10 160.925C10 158.914 10.2343 155.563 10.703 150.869L11.206 144.332C11.4716 141.384 11.909 139.539 12.5121 138.802C13.1807 137.796 14.821 137.093 17.4331 136.691C19.4421 136.425 20.7169 136.122 21.2512 135.785C22.4541 135.248 23.1602 134.242 23.3602 132.768C23.6289 130.557 23.8601 128.343 24.0632 126.132C24.3975 123.583 24.8662 121.441 25.4692 119.695C27.6782 113.393 31.3307 108.937 36.4205 106.32C40.6385 104.109 46.3656 103 53.5987 103C54.5361 103 55.9608 103 57.8699 103C59.7789 103 61.2037 103 62.141 103H77.6102C80.491 103 81.7626 104.877 81.4283 108.631C81.294 109.93 80.8253 111.157 80.0223 112.316C79.085 113.681 78.0477 114.364 76.9104 114.364H45.0908C43.4161 114.364 41.4415 115.454 39.1669 117.631C36.8891 119.811 35.6862 121.738 35.555 123.415L32.1399 161.527L32.6399 162.533C32.3743 163.807 33.2897 165.4 35.3988 167.308C37.5046 169.219 39.2262 170.175 40.5666 170.175H64.8374L66.5465 150.263C66.6121 149.86 66.3622 149.357 65.7904 148.755C65.2186 148.152 64.7343 147.849 64.3313 147.849H48.434C47.0905 147.849 46.1188 147.212 45.5158 145.938C44.9784 144.866 44.7784 143.624 44.9127 142.218C45.2471 138.396 47.7622 136.488 52.4583 136.488C53.0613 136.488 53.9331 136.522 55.0735 136.587C56.2139 136.656 57.0856 136.687 57.6887 136.687C64.5969 136.687 69.3242 137.39 71.8737 138.799C75.5606 140.81 77.4071 144.866 77.4071 150.966C77.4103 153.052 77.1416 157.174 76.6073 163.342Z" fill="#FFE1FE"/>
<path d="M137.172 168.951C137.103 170.025 136.231 171.724 134.557 174.038C132.879 176.355 131.573 177.748 130.632 178.217C129.492 179.022 127.68 179.928 125.199 180.937C123.455 181.205 119.128 181.34 112.22 181.34C102.493 181.34 95.5509 180.296 91.3954 178.217C85.2902 175.194 82.2407 169.251 82.2407 160.388C82.2407 158.508 82.2751 157.165 82.3438 156.356C82.6812 152.258 83.3218 149.841 84.2685 149.104C84.7403 148.701 86.8055 148.164 90.4549 147.493C93.0919 146.956 94.5104 145.747 94.7135 143.867L96.0102 129.361C96.1414 128.152 96.8413 127.197 98.1067 126.491C99.369 125.788 100.638 125.432 101.9 125.432C103.231 125.432 104.393 125.735 105.393 126.338C106.655 127.078 107.224 128.052 107.09 129.261L104.374 161.515C104.24 163.261 105.152 165.109 107.115 167.058C109.074 169.007 110.951 170.016 112.748 170.081C114.276 170.15 116.038 170.181 118.031 170.181C121.487 170.181 122.884 170.216 122.218 170.281C124.612 170.081 125.874 169.241 126.005 167.761L129.348 129.364C129.483 128.087 130.226 127.078 131.576 126.338C132.657 125.735 133.907 125.432 135.325 125.432C136.675 125.432 137.859 125.735 138.868 126.338C140.153 127.075 140.724 128.049 140.59 129.258L137.172 168.951Z" fill="#FFE1FE"/>
<path d="M200.152 167.355C199.883 171.034 199.38 176.315 198.643 183.204C196.43 192.298 191.903 198.247 185.06 201.058C181.305 202.594 174.965 203.366 166.045 203.366C165.304 203.366 164.217 203.416 162.774 203.516C161.33 203.616 160.24 203.666 159.505 203.666C157.09 203.666 155.381 203.328 154.375 202.66C153.1 201.789 152.563 200.212 152.766 197.935C152.966 195.789 153.622 194.315 154.728 193.51C155.834 192.704 157.528 192.27 159.809 192.201H166.448C168.192 192.201 170.222 191.186 172.535 189.163C174.85 187.133 176.106 185.29 176.309 183.632L176.612 181.24H164.136C162.055 181.24 159.106 180.4 155.281 178.726C148.507 175.774 145.12 169.341 145.12 159.419C145.12 159.22 145.489 154.46 146.227 145.141C146.427 142.393 146.864 137.231 147.536 129.654C147.801 126.838 149.813 125.432 153.572 125.432C154.913 125.432 156.087 125.735 157.093 126.338C158.368 127.075 158.937 128.046 158.802 129.255L155.984 161.334C156.05 161.468 156.219 161.837 156.487 162.439C156.219 163.714 157.125 165.306 159.202 167.214C161.28 169.126 162.989 170.081 164.333 170.081H177.512L181.133 129.355C181.333 126.741 183.311 125.432 187.07 125.432C188.41 125.432 189.585 125.735 190.591 126.335C191.866 127.069 192.434 128.04 192.3 129.242L190.991 143.786C190.856 145.391 191.494 146.494 192.903 147.096C193.506 147.365 194.949 147.633 197.23 147.899C198.974 148.099 200.049 148.467 200.448 149.001C201.186 150.004 201.52 150.975 201.455 151.912C201.055 156.056 200.62 161.206 200.152 167.355Z" fill="#FFE1FE"/>
<path d="M250.052 180.337C248.24 181.005 247.169 181.343 246.834 181.343H211.518C210.244 181.343 209.306 180.706 208.7 179.431C208.163 178.357 207.963 177.152 208.097 175.812C208.232 174.469 208.666 173.264 209.406 172.192C210.278 170.853 211.318 170.181 212.525 170.181H235.864C237.608 170.181 238.614 168.339 238.882 164.65C239.217 160.897 238.545 159.02 236.87 159.02H218.661C217.989 159.02 216.983 158.682 215.643 158.011C209.941 155.188 207.091 151.019 207.091 145.504C207.091 144.966 207.157 143.858 207.291 142.174C207.625 137.802 209.134 134.005 211.818 130.776C214.702 127.212 218.224 125.429 222.382 125.429H256.189C259.341 125.429 260.751 127.275 260.413 130.96C260.279 132.234 259.841 133.44 259.104 134.579C258.232 135.922 257.192 136.591 255.986 136.591H221.379C219.77 136.591 218.795 138.452 218.461 142.171C218.124 145.959 218.764 147.852 220.373 147.852H249.749C250.418 147.852 251.424 148.189 252.768 148.858C258.467 151.674 261.319 155.797 261.319 161.228C261.319 171.221 257.564 177.586 250.052 180.337Z" fill="#FFE1FE"/>
<path d="M82.6528 220.323C82.1841 225.819 80.0689 230.647 76.3133 234.804C72.3546 239.095 67.6929 241.509 62.3282 242.043C62.0595 242.043 61.6252 242.143 61.019 242.346C60.416 242.546 59.9442 242.649 59.6099 242.649H35.9671L33.3519 272.314C33.1519 274.391 31.4054 275.634 28.1216 276.033C27.5841 276.099 25.5064 276.133 21.8851 276.133C18.3295 276.133 16.1517 276.065 15.3456 275.934C12.2618 275.396 10.8183 274.157 11.0182 272.214L14.2364 235.41C14.3021 234.27 14.8395 233.399 15.8455 232.796C16.5829 232.328 18.6951 231.756 22.1851 231.088C24.6003 230.619 25.9063 229.414 26.1094 227.468L27.6185 210.473C27.6841 209.402 28.5246 207.759 30.1337 205.545C31.7428 203.331 33.0832 201.86 34.158 201.12C36.6388 199.446 39.5915 198.44 43.0127 198.103C43.7501 198.037 46.9371 198.003 52.5705 198.003C59.613 198.003 64.7434 198.272 67.9647 198.809C72.8607 199.615 76.6819 202.194 79.4346 206.551C81.981 210.636 83.0558 215.229 82.6528 220.323ZM71.486 220.323C71.9546 214.892 69.8769 211.472 65.2495 210.067C63.303 209.464 59.0131 209.161 52.3705 209.161C47.4745 209.161 45.1592 209.127 45.428 209.062C41.1349 209.33 38.9228 210.167 38.7885 211.576L36.9763 231.488H61.3221C63.0655 231.488 65.0433 230.482 67.2586 228.471C69.4707 226.46 70.7798 224.548 71.1829 222.74C71.3172 222.334 71.4172 221.528 71.486 220.323Z" fill="#FFE1FE"/>
<path d="M137.081 259.469C136.697 263.62 136.428 266.665 136.275 268.604C135.403 273.623 133.825 276.13 131.547 276.13H92.5105C91.8387 276.13 90.8326 275.793 89.4922 275.125C83.7901 272.308 80.9406 268.151 80.9406 262.655C80.9406 261.315 80.975 260.241 81.0406 259.438C81.7123 251.328 85.4336 246.062 92.2074 243.651C94.0852 242.983 95.1569 242.646 95.4256 242.646H115.747C116.013 241.709 116.25 240.201 116.45 238.121C116.584 236.647 116.65 235.675 116.65 235.204C116.65 232.724 115.947 231.484 114.538 231.484H98.6407C96.0255 231.484 94.8507 229.623 95.1194 225.904C95.3881 222.116 97.9033 220.223 102.665 220.223C103.268 220.223 104.155 220.257 105.33 220.323C106.502 220.392 107.392 220.423 107.995 220.423C113.16 220.423 116.278 220.523 117.353 220.723C120.103 221.26 122.518 222.715 124.596 225.092C126.673 227.468 127.779 230.06 127.917 232.871C127.982 233.274 127.867 234.058 127.564 235.229C127.261 236.4 127.111 237.187 127.111 237.587C127.111 239.595 127.814 241 129.223 241.803C129.826 242.14 131.201 242.474 133.347 242.805C135.291 243.074 136.515 243.492 137.018 244.061C137.521 244.629 137.775 246.219 137.775 248.829C137.784 249.835 137.55 253.38 137.081 259.469ZM114.141 264.972L115.047 253.81H95.8474C93.6915 253.81 92.4449 255.687 92.1105 259.441C91.7731 263.129 92.4511 264.972 94.1414 264.972H114.141Z" fill="#FFE1FE"/>
<path d="M190.503 225.904C190.369 227.165 189.934 228.361 189.2 229.492C188.331 230.822 187.294 231.484 186.094 231.484H170.156C169.822 231.484 169.303 231.787 168.604 232.39C167.904 232.993 167.551 233.464 167.551 233.799L164.142 272.314C163.939 274.391 162.155 275.634 158.787 276.033C158.246 276.099 156.19 276.133 152.622 276.133C147.77 276.133 145.073 276.033 144.536 275.83C142.852 275.228 142.011 273.22 142.011 269.806C142.011 269.269 142.283 265.825 142.824 259.466C143.23 254.647 143.499 251.971 143.633 251.437C144.039 247.624 144.377 245.482 144.648 245.013C145.12 244.142 146.81 243.473 149.716 243.005C151.875 242.671 153.412 242.152 154.325 241.45C155.237 240.747 155.762 239.426 155.896 237.484C156.031 235.007 156.265 233.436 156.599 232.768C159.474 226.744 162.583 223.031 165.929 221.625C167.869 220.823 172.116 220.423 178.671 220.423C179.271 220.423 180.139 220.389 181.28 220.323C182.417 220.257 183.285 220.223 183.888 220.223C188.631 220.223 190.837 222.116 190.503 225.904Z" fill="#FFE1FE"/>
<path d="M244.025 270.703C243.825 272.979 243.019 274.556 241.61 275.428C240.469 276.096 238.692 276.433 236.276 276.433C235.536 276.433 234.464 276.399 233.058 276.333C231.649 276.265 230.577 276.233 229.84 276.233C222.46 276.233 217.364 275.83 214.549 275.025C208.244 273.21 204.085 269.353 202.073 263.445C200.998 260.225 200.529 257.708 200.664 255.893L202.776 231.831L194.727 231.025C192.715 230.622 191.843 228.911 192.112 225.891C192.381 222.937 193.621 221.191 195.833 220.654L203.479 220.351C203.748 218.206 204.351 212.297 205.291 202.631C205.56 199.543 207.572 198 211.328 198C212.668 198 213.843 198.3 214.849 198.899C216.124 199.633 216.692 200.601 216.558 201.804L214.949 220.223H233.361C234.567 220.223 235.473 220.894 236.076 222.234C236.679 223.308 236.914 224.48 236.779 225.754C236.645 227.097 236.208 228.302 235.47 229.373C234.599 230.716 233.558 231.384 232.352 231.384H214.043C214.043 232.128 213.858 233.174 213.49 234.52C213.121 235.869 212.937 236.915 212.937 237.655C212.937 240.622 214.814 242.277 218.57 242.612C220.448 242.815 221.738 243.186 222.444 243.723C223.147 244.264 223.5 245.444 223.5 247.265C223.5 248.008 223.4 249.491 223.197 251.715C222.997 253.604 222.963 255.122 223.097 256.268C223.432 259.775 224.91 262.171 227.525 263.451C228.8 264.126 231.515 264.597 235.673 264.866C239.563 265.134 241.979 265.568 242.916 266.174C243.856 266.78 244.228 268.289 244.025 270.703Z" fill="#FFE1FE"/>
<path d="M304.39 262.146C304.121 265.825 303.618 271.105 302.88 277.995C300.668 287.089 296.141 293.038 289.298 295.849C285.543 297.385 279.203 298.157 270.283 298.157C269.542 298.157 268.455 298.207 267.012 298.306C265.568 298.406 264.478 298.456 263.743 298.456C261.328 298.456 259.619 298.119 258.613 297.451C257.338 296.579 256.801 295.002 257.004 292.726C257.204 290.58 257.86 289.106 258.966 288.3C260.072 287.495 261.766 287.061 264.047 286.992H270.686C272.429 286.992 274.46 285.977 276.772 283.953C279.088 281.923 280.344 280.081 280.547 278.423L280.85 276.03H268.374C266.293 276.03 263.344 275.19 259.519 273.516C252.745 270.565 249.358 264.132 249.358 254.21C249.358 254.01 249.727 249.251 250.465 239.932C250.664 237.184 251.102 232.022 251.774 224.445C252.039 221.628 254.051 220.223 257.81 220.223C259.151 220.223 260.325 220.526 261.331 221.129C262.606 221.866 263.175 222.837 263.04 224.046L260.222 256.125C260.288 256.259 260.457 256.627 260.725 257.23C260.457 258.504 261.363 260.097 263.44 262.005C265.518 263.916 267.227 264.872 268.571 264.872H281.75L285.371 224.145C285.571 221.532 287.549 220.223 291.307 220.223C292.648 220.223 293.823 220.526 294.829 221.126C296.104 221.859 296.672 222.831 296.538 224.033L295.229 238.577C295.094 240.182 295.732 241.284 297.141 241.887C297.744 242.156 299.187 242.424 301.468 242.69C303.212 242.889 304.286 243.258 304.686 243.792C305.424 244.794 305.758 245.766 305.693 246.703C305.296 250.847 304.858 255.997 304.39 262.146Z" fill="#FFE1FE"/>
</g>
<defs>
<filter id="filter0_d_4_26" x="0" y="-2" width="315.701" height="310.456" filterUnits="userSpaceOnUse" color-interpolation-filters="sRGB">
<feFlood flood-opacity="0" result="BackgroundImageFix"/>
<feColorMatrix in="SourceAlpha" type="matrix" values="0 0 0 0 0 0 0 0 0 0 0 0 0 0 0 0 0 0 127 0" result="hardAlpha"/>
<feOffset/>
<feGaussianBlur stdDeviation="5"/>
<feComposite in2="hardAlpha" operator="out"/>
<feColorMatrix type="matrix" values="0 0 0 0 0.729412 0 0 0 0 0.309804 0 0 0 0 0.839216 0 0 0 1 0"/>
<feBlend mode="normal" in2="BackgroundImageFix" result="effect1_dropShadow_4_26"/>
<feBlend mode="normal" in="SourceGraphic" in2="effect1_dropShadow_4_26" result="shape"/>
</filter>
</defs>
</svg>
