<svg width="285" height="278" viewBox="0 0 285 278" fill="none" xmlns="http://www.w3.org/2000/svg">
<g filter="url(#filter0_d_14_284)">
<path d="M70.3604 76.9433C70.2396 78.0292 69.6046 78.8759 68.4612 79.4808C67.3148 80.0828 66.1685 80.3866 65.0222 80.3866C63.8759 80.3866 62.8195 80.0828 61.8558 79.478C60.7095 78.8141 60.1954 77.9363 60.319 76.8476L64.5699 28.2214C64.6907 26.6488 63.9068 24.9243 62.2183 23.0507C60.5297 21.1771 58.9002 20.1784 57.3324 20.0575C56.5486 20.0125 53.2305 19.99 47.3809 19.99C48.1648 19.99 47.5916 19.9562 45.6615 19.8887C43.7313 19.8212 42.6749 19.7874 42.4951 19.7874C37.5502 19.7874 35.016 20.5723 34.8952 22.1421L30.0992 76.9461C29.9194 78.8169 28.3489 79.9365 25.396 80.2966C24.9128 80.3557 23.0444 80.3866 19.7881 80.3866C16.5908 80.3866 14.6325 80.3247 13.9077 80.2066C11.1346 79.7227 9.8366 78.6059 10.0164 76.8561L12.9103 43.7024C12.9693 42.6756 13.4525 41.8907 14.3572 41.3478C15.0203 40.9258 16.9195 40.411 20.0578 39.809C22.2296 39.387 23.404 38.3011 23.5866 36.5485L24.9437 21.239C25.0027 20.2741 25.7584 18.7943 27.2054 16.7998C28.6523 14.8052 29.8576 13.4802 30.8241 12.8135C32.6925 11.4856 34.3529 10.7008 35.7999 10.4588C37.4884 10.1578 41.4696 10.0059 47.7406 10.0059C55.037 10.0059 59.5604 10.2169 61.3108 10.6389C66.7389 11.9667 70.6301 15.3482 72.9818 20.7833C73.2234 21.3881 73.5549 22.73 73.9763 24.8146C74.3978 26.8992 74.5776 28.2439 74.5186 28.8459L70.3604 76.9433Z" fill="#FFE1FE"/>
<path d="M96.2336 76.9374C96.051 78.811 94.4467 79.9306 91.418 80.2935C90.9319 80.3526 89.0523 80.3836 85.782 80.3836C81.4187 80.3836 78.9968 80.2935 78.5108 80.1107C77.0582 79.5649 76.3306 77.7504 76.3306 74.6671C76.3306 73.9385 76.6031 70.8271 77.1453 65.3188L77.7775 58.058C78.1399 53.9451 78.7131 51.7058 79.497 51.3429C79.7358 51.2219 81.6687 50.769 85.2875 49.9813C87.5183 49.4974 88.6927 48.3777 88.8163 46.6251L89.8924 33.5578C89.9514 32.4691 90.5807 31.6082 91.7748 30.9724C92.9717 30.3395 94.1095 30.0188 95.1856 30.0188C96.3825 30.0188 97.4276 30.2916 98.3267 30.8346C99.4646 31.4985 99.9731 32.3762 99.8523 33.4649L96.2336 76.9374ZM101.482 14.9822C101.178 18.3637 99.3691 20.0544 96.0538 20.0544C92.6738 20.0544 91.137 18.3637 91.4405 14.9822C91.7411 11.6626 93.5813 10 96.9584 10C100.274 10 101.782 11.6626 101.482 14.9822Z" fill="#FFE1FE"/>
<path d="M153.592 62.8123C153.412 64.745 152.718 66.7676 151.51 68.8804C148.554 73.9526 144.663 77.3059 139.839 78.9348C137.004 79.8997 132.812 80.3836 127.263 80.3836C119.905 80.3836 114.387 79.0839 110.706 76.4816C106.242 73.3956 104.011 68.3459 104.011 61.3269C104.011 59.8753 104.042 58.7247 104.101 57.8779C104.281 55.4586 104.553 53.796 104.916 52.8873C105.579 51.1937 106.846 50.347 108.714 50.347C111.912 50.347 113.811 49.925 114.415 49.0754C114.474 48.9544 115.258 46.9599 116.767 43.0861C117.25 41.8145 117.851 40.6048 118.576 39.4542C120.324 36.672 122.889 34.4045 126.266 32.6491C129.643 30.8937 133.02 30.0159 136.397 30.0159C141.522 30.0159 145.955 31.6251 149.695 34.8378C153.614 38.2952 155.365 42.5713 154.943 47.6632C154.702 50.271 153.013 51.5763 149.878 51.5763C147.888 51.5763 146.621 51.1825 146.079 50.3892C145.658 48.7463 144.691 46.4029 143.185 43.359C141.617 41.1675 139.114 40.0732 135.675 40.0732C131.152 40.0732 128.016 42.0114 126.266 45.888C125.42 47.7054 124.819 50.8562 124.456 55.3376C124.277 57.5178 124.184 59.1242 124.184 60.1538C124.184 66.9393 127.199 70.3292 133.231 70.3292C136.97 70.3292 139.836 68.9113 141.825 66.0728C142.73 64.2611 143.997 62.1765 145.624 59.8219C146.408 59.2198 147.613 58.916 149.243 58.916C152.325 58.916 153.772 60.2157 153.592 62.8123Z" fill="#FFE1FE"/>
<path d="M209.317 52.8479C208.895 57.7401 207.476 60.1847 205.066 60.1847H178.74C178.56 60.3057 178.437 60.6996 178.378 61.3635C178.198 63.1752 178.951 65.1079 180.639 67.1615C182.328 69.2151 184.078 70.242 185.888 70.242H200.905C201.989 70.242 202.835 70.8524 203.439 72.0705C203.92 73.0439 204.102 74.1411 203.981 75.362C203.74 78.5297 202.444 80.1754 200.09 80.2964C199.006 80.3554 194.904 80.3864 187.787 80.3864C177.473 80.3864 170.356 79.4186 166.437 77.4831C161.068 74.8219 158.385 69.5893 158.385 61.7826C158.385 60.5139 158.447 59.2114 158.565 57.8807C158.803 55.3404 159.076 53.6778 159.379 52.8901C160.042 51.1966 161.31 50.3498 163.178 50.3498C165.951 50.3498 167.76 49.9869 168.606 49.2611C169.207 48.7181 170.022 47.0527 171.048 44.2705C171.41 43.1817 172.073 41.5782 173.037 39.4599C174.484 36.7986 177.139 34.5311 180.999 32.6519C184.556 30.8993 187.964 30.0216 191.223 30.0216C197.134 30.0216 201.686 31.8952 204.883 35.6367C207.898 39.1392 209.407 43.9104 209.407 49.9503C209.409 51.1572 209.376 52.1221 209.317 52.8479ZM199.458 50.1304L199.638 48.3018C199.697 47.6941 199.413 46.7208 198.778 45.3789C198.146 44.0398 197.587 43.1227 197.104 42.636C196.199 41.7217 194.662 40.9002 192.49 40.1688C192.31 40.1069 191.586 40.076 190.318 40.076C187.784 40.076 185.402 41.0212 183.171 42.9089C180.94 44.7993 179.732 46.6279 179.552 48.3946L179.372 50.1304H199.458Z" fill="#FFE1FE"/>
<path d="M71.0385 147.735C70.8334 150.757 70.6508 153.685 70.4963 156.521C69.7096 161.472 68.2627 163.948 66.1471 163.948H28.3639C27.4564 163.948 26.0994 163.689 24.2844 163.177C22.4722 162.662 21.1742 162.164 20.3875 161.683C17.0048 159.63 14.6167 157.393 13.2287 154.979C11.8408 152.566 11.144 149.423 11.144 145.558C11.144 143.746 11.3548 140.728 11.7762 136.499L12.2285 130.611C12.4674 127.956 12.8607 126.293 13.4029 125.629C14.0042 124.723 15.4792 124.09 17.828 123.727C19.6346 123.488 20.7809 123.215 21.2613 122.912C22.343 122.428 22.978 121.522 23.1578 120.194C23.3994 118.202 23.6073 116.208 23.7899 114.216C24.0906 111.92 24.512 109.991 25.0542 108.418C27.0406 102.741 30.325 98.7265 34.9018 96.369C38.6947 94.3773 43.8447 93.3786 50.3488 93.3786C51.1917 93.3786 52.4729 93.3786 54.1895 93.3786C55.9062 93.3786 57.1873 93.3786 58.0302 93.3786H71.9404C74.5308 93.3786 75.6743 95.0693 75.3737 98.4508C75.2529 99.6211 74.8314 100.727 74.1094 101.77C73.2665 103 72.3337 103.616 71.311 103.616H42.6984C41.1924 103.616 39.4168 104.598 37.3714 106.558C35.3232 108.522 34.2415 110.258 34.1235 111.768L31.0527 146.101L31.5022 147.007C31.2634 148.154 32.0866 149.589 33.9831 151.308C35.8767 153.03 37.4248 153.891 38.6301 153.891H60.4549L61.9917 135.954C62.0507 135.591 61.8259 135.138 61.3118 134.595C60.7976 134.052 60.3621 133.779 59.9997 133.779H45.7046C44.4965 133.779 43.6227 133.205 43.0805 132.057C42.5972 131.092 42.4174 129.973 42.5382 128.707C42.8388 125.263 45.1005 123.545 49.3233 123.545C49.8656 123.545 50.6494 123.575 51.6749 123.635C52.7004 123.696 53.4843 123.725 54.0266 123.725C60.2385 123.725 64.4894 124.358 66.782 125.626C70.0973 127.438 71.7578 131.092 71.7578 136.587C71.7606 138.466 71.519 142.179 71.0385 147.735Z" fill="#FFE1FE"/>
<path d="M125.499 152.788C125.437 153.756 124.653 155.286 123.147 157.371C121.639 159.458 120.464 160.713 119.619 161.135C118.593 161.86 116.964 162.676 114.733 163.585C113.165 163.827 109.274 163.948 103.062 163.948C94.3156 163.948 88.0728 163.008 84.336 161.135C78.8461 158.411 76.104 153.058 76.104 145.074C76.104 143.38 76.1349 142.171 76.1967 141.442C76.5001 137.751 77.0761 135.574 77.9274 134.91C78.3517 134.547 80.2088 134.063 83.4904 133.458C85.8616 132.974 87.1372 131.886 87.3198 130.192L88.4858 117.125C88.6038 116.036 89.2331 115.175 90.371 114.54C91.5061 113.907 92.6468 113.586 93.7818 113.586C94.9787 113.586 96.0239 113.859 96.9229 114.402C98.058 115.068 98.5693 115.946 98.4485 117.035L96.007 146.09C95.8862 147.662 96.7066 149.328 98.471 151.083C100.233 152.838 101.921 153.747 103.537 153.806C104.911 153.868 106.495 153.896 108.288 153.896C111.395 153.896 112.651 153.927 112.052 153.986C114.205 153.806 115.34 153.049 115.458 151.716L118.464 117.128C118.585 115.977 119.253 115.068 120.467 114.402C121.439 113.859 122.563 113.586 123.839 113.586C125.052 113.586 126.117 113.859 127.025 114.402C128.179 115.066 128.694 115.943 128.573 117.032L125.499 152.788Z" fill="#FFE1FE"/>
<path d="M182.132 151.35C181.89 154.664 181.438 159.421 180.775 165.627C178.786 173.819 174.715 179.178 168.562 181.71C165.185 183.094 159.484 183.789 151.463 183.789C150.797 183.789 149.819 183.834 148.521 183.924C147.223 184.014 146.242 184.059 145.582 184.059C143.41 184.059 141.874 183.756 140.969 183.154C139.823 182.369 139.339 180.948 139.522 178.897C139.702 176.965 140.292 175.637 141.286 174.911C142.281 174.185 143.804 173.794 145.855 173.732H151.825C153.393 173.732 155.219 172.818 157.298 170.995C159.38 169.166 160.51 167.507 160.692 166.013L160.965 163.858H149.746C147.875 163.858 145.223 163.101 141.784 161.593C135.693 158.935 132.647 153.139 132.647 144.202C132.647 144.022 132.978 139.735 133.642 131.34C133.821 128.864 134.215 124.214 134.819 117.389C135.058 114.852 136.867 113.586 140.247 113.586C141.452 113.586 142.509 113.859 143.413 114.402C144.56 115.066 145.071 115.94 144.95 117.029L142.416 145.926C142.475 146.047 142.627 146.379 142.868 146.922C142.627 148.07 143.441 149.505 145.31 151.224C147.178 152.945 148.715 153.806 149.923 153.806H161.774L165.03 117.119C165.21 114.765 166.988 113.586 170.368 113.586C171.574 113.586 172.63 113.859 173.535 114.399C174.681 115.06 175.192 115.935 175.072 117.018L173.894 130.119C173.773 131.565 174.347 132.558 175.614 133.101C176.156 133.343 177.454 133.585 179.505 133.824C181.073 134.004 182.039 134.336 182.399 134.817C183.062 135.72 183.363 136.595 183.304 137.439C182.944 141.172 182.553 145.811 182.132 151.35Z" fill="#FFE1FE"/>
<path d="M227.003 163.045C225.374 163.647 224.41 163.951 224.109 163.951H192.353C191.206 163.951 190.364 163.377 189.819 162.229C189.335 161.261 189.155 160.175 189.276 158.968C189.397 157.759 189.788 156.673 190.453 155.708C191.237 154.501 192.173 153.896 193.257 153.896H214.245C215.813 153.896 216.717 152.236 216.959 148.914C217.26 145.533 216.656 143.842 215.15 143.842H198.775C198.171 143.842 197.267 143.538 196.061 142.933C190.934 140.39 188.372 136.634 188.372 131.666C188.372 131.182 188.431 130.184 188.551 128.667C188.852 124.729 190.209 121.308 192.622 118.399C195.216 115.189 198.382 113.583 202.122 113.583H232.521C235.356 113.583 236.623 115.246 236.32 118.565C236.199 119.713 235.806 120.799 235.143 121.826C234.359 123.035 233.423 123.637 232.339 123.637H201.22C199.773 123.637 198.896 125.314 198.596 128.665C198.292 132.077 198.868 133.782 200.315 133.782H226.731C227.332 133.782 228.237 134.086 229.445 134.688C234.569 137.225 237.135 140.939 237.135 145.831C237.135 154.833 233.757 160.566 227.003 163.045Z" fill="#FFE1FE"/>
<path d="M74.4315 197.616C74.0101 202.568 72.108 206.917 68.7309 210.661C65.1711 214.527 60.9793 216.701 56.1552 217.182C55.9136 217.182 55.5231 217.272 54.978 217.455C54.4358 217.635 54.0115 217.728 53.7109 217.728H32.4508L30.0992 244.451C29.9194 246.321 28.3489 247.441 25.396 247.801C24.9128 247.86 23.0444 247.891 19.7881 247.891C16.5908 247.891 14.6325 247.829 13.9077 247.711C11.1346 247.227 9.8366 246.11 10.0164 244.361L12.9103 211.207C12.9693 210.18 13.4525 209.395 14.3572 208.852C15.0203 208.43 16.9195 207.916 20.0578 207.314C22.2296 206.892 23.404 205.806 23.5866 204.053L24.9437 188.744C25.0027 187.779 25.7584 186.299 27.2054 184.304C28.6523 182.31 29.8576 180.985 30.8241 180.318C33.0549 178.81 35.71 177.904 38.7864 177.6C39.4495 177.541 42.3153 177.51 47.3809 177.51C53.7137 177.51 58.327 177.752 61.2237 178.236C65.6263 178.962 69.0624 181.286 71.5376 185.21C73.8274 188.89 74.7939 193.028 74.4315 197.616ZM64.3901 197.616C64.8115 192.724 62.9431 189.644 58.7822 188.378C57.0318 187.835 53.1743 187.562 47.2011 187.562C42.7985 187.562 40.7166 187.531 40.9582 187.472C37.0979 187.714 35.1087 188.468 34.9879 189.737L33.3583 207.674H55.2505C56.8183 207.674 58.5967 206.768 60.5887 204.956C62.5779 203.144 63.7551 201.423 64.1175 199.794C64.2384 199.428 64.3283 198.702 64.3901 197.616Z" fill="#FFE1FE"/>
<path d="M123.375 232.88C123.029 236.619 122.787 239.362 122.65 241.109C121.866 245.629 120.447 247.888 118.399 247.888H83.2959C82.6919 247.888 81.7872 247.585 80.5819 246.983C75.4544 244.445 72.8921 240.701 72.8921 235.749C72.8921 234.543 72.923 233.575 72.982 232.852C73.5861 225.546 76.9323 220.803 83.0234 218.631C84.712 218.029 85.6757 217.725 85.9173 217.725H104.191C104.43 216.881 104.643 215.522 104.823 213.649C104.944 212.321 105.003 211.446 105.003 211.021C105.003 208.788 104.371 207.671 103.103 207.671H88.8083C86.4567 207.671 85.4003 205.994 85.6419 202.644C85.8836 199.231 88.1453 197.526 92.4271 197.526C92.9693 197.526 93.7672 197.557 94.8236 197.616C95.8772 197.678 96.6779 197.706 97.2202 197.706C101.864 197.706 104.668 197.796 105.635 197.977C108.107 198.46 110.279 199.771 112.147 201.912C114.016 204.053 115.01 206.388 115.134 208.92C115.193 209.283 115.089 209.989 114.817 211.044C114.544 212.099 114.409 212.808 114.409 213.168C114.409 214.977 115.041 216.243 116.308 216.966C116.851 217.269 118.087 217.57 120.017 217.869C121.765 218.111 122.866 218.488 123.318 219C123.771 219.512 123.998 220.944 123.998 223.295C124.007 224.201 123.796 227.394 123.375 232.88ZM102.747 237.837L103.561 227.782H86.2966C84.358 227.782 83.2369 229.473 82.9363 232.855C82.6329 236.177 83.2426 237.837 84.7625 237.837H102.747Z" fill="#FFE1FE"/>
<path d="M171.412 202.644C171.291 203.78 170.901 204.858 170.241 205.876C169.46 207.074 168.527 207.671 167.448 207.671H153.116C152.816 207.671 152.349 207.944 151.72 208.487C151.091 209.03 150.773 209.454 150.773 209.755L147.708 244.451C147.525 246.321 145.921 247.441 142.892 247.801C142.406 247.86 140.557 247.891 137.349 247.891C132.986 247.891 130.561 247.801 130.078 247.618C128.563 247.075 127.808 245.266 127.808 242.192C127.808 241.708 128.052 238.605 128.538 232.877C128.903 228.536 129.145 226.125 129.266 225.644C129.631 222.209 129.934 220.28 130.179 219.858C130.603 219.073 132.123 218.471 134.736 218.049C136.677 217.748 138.06 217.281 138.88 216.648C139.701 216.015 140.173 214.825 140.293 213.075C140.414 210.844 140.625 209.429 140.926 208.827C143.51 203.4 146.306 200.055 149.315 198.79C151.06 198.067 154.878 197.706 160.772 197.706C161.312 197.706 162.093 197.676 163.118 197.616C164.141 197.557 164.922 197.526 165.464 197.526C169.729 197.526 171.713 199.231 171.412 202.644Z" fill="#FFE1FE"/>
<path d="M219.54 242.999C219.36 245.05 218.635 246.471 217.368 247.255C216.343 247.857 214.744 248.161 212.572 248.161C211.907 248.161 210.943 248.13 209.679 248.071C208.411 248.009 207.448 247.981 206.785 247.981C200.148 247.981 195.566 247.618 193.035 246.893C187.365 245.258 183.625 241.784 181.816 236.461C180.85 233.561 180.428 231.293 180.549 229.659L182.448 207.983L175.211 207.257C173.401 206.894 172.617 205.353 172.859 202.632C173.101 199.971 174.216 198.398 176.205 197.915L183.08 197.642C183.322 195.709 183.864 190.386 184.71 181.68C184.952 178.897 186.761 177.508 190.138 177.508C191.343 177.508 192.4 177.778 193.304 178.318C194.451 178.979 194.962 179.851 194.841 180.934L193.394 197.526H209.951C211.036 197.526 211.85 198.131 212.393 199.338C212.935 200.306 213.146 201.361 213.025 202.509C212.904 203.718 212.511 204.804 211.848 205.769C211.064 206.979 210.128 207.581 209.044 207.581H192.579C192.579 208.25 192.414 209.193 192.082 210.405C191.751 211.621 191.585 212.563 191.585 213.23C191.585 215.902 193.273 217.393 196.651 217.694C198.339 217.877 199.499 218.212 200.134 218.696C200.767 219.182 201.084 220.246 201.084 221.886C201.084 222.555 200.994 223.892 200.812 225.895C200.632 227.597 200.601 228.964 200.722 229.996C201.022 233.156 202.351 235.313 204.703 236.467C205.849 237.074 208.291 237.499 212.03 237.741C215.528 237.983 217.7 238.374 218.543 238.92C219.388 239.466 219.723 240.824 219.54 242.999Z" fill="#FFE1FE"/>
<path d="M273.821 235.291C273.579 238.605 273.127 243.362 272.464 249.568C270.475 257.76 266.404 263.119 260.251 265.651C256.874 267.035 251.173 267.73 243.152 267.73C242.486 267.73 241.508 267.775 240.21 267.865C238.912 267.955 237.931 268 237.271 268C235.099 268 233.563 267.696 232.658 267.094C231.512 266.309 231.028 264.889 231.211 262.838C231.391 260.905 231.981 259.577 232.975 258.851C233.97 258.126 235.493 257.735 237.544 257.673H243.514C245.082 257.673 246.908 256.758 248.987 254.935C251.069 253.107 252.198 251.447 252.381 249.953L252.654 247.798H241.435C239.564 247.798 236.912 247.042 233.473 245.534C227.382 242.875 224.336 237.08 224.336 228.143C224.336 227.962 224.667 223.675 225.331 215.281C225.51 212.805 225.904 208.155 226.508 201.33C226.747 198.792 228.556 197.526 231.936 197.526C233.141 197.526 234.198 197.799 235.102 198.342C236.249 199.006 236.76 199.881 236.639 200.97L234.105 229.867C234.164 229.988 234.316 230.32 234.557 230.863C234.316 232.011 235.13 233.445 236.999 235.164C238.867 236.886 240.404 237.747 241.612 237.747H253.463L256.719 201.06C256.899 198.705 258.677 197.526 262.057 197.526C263.263 197.526 264.319 197.799 265.224 198.339C266.37 199.001 266.881 199.875 266.76 200.959L265.583 214.06C265.462 215.506 266.036 216.499 267.303 217.042C267.845 217.284 269.143 217.525 271.194 217.765C272.762 217.945 273.728 218.277 274.088 218.758C274.751 219.661 275.052 220.536 274.993 221.38C274.636 225.113 274.242 229.752 273.821 235.291Z" fill="#FFE1FE"/>
</g>
<defs>
<filter id="filter0_d_14_284" x="0" y="0" width="285" height="278" filterUnits="userSpaceOnUse" color-interpolation-filters="sRGB">
<feFlood flood-opacity="0" result="BackgroundImageFix"/>
<feColorMatrix in="SourceAlpha" type="matrix" values="0 0 0 0 0 0 0 0 0 0 0 0 0 0 0 0 0 0 127 0" result="hardAlpha"/>
<feOffset/>
<feGaussianBlur stdDeviation="5"/>
<feComposite in2="hardAlpha" operator="out"/>
<feColorMatrix type="matrix" values="0 0 0 0 0.729412 0 0 0 0 0.309804 0 0 0 0 0.839216 0 0 0 1 0"/>
<feBlend mode="normal" in2="BackgroundImageFix" result="effect1_dropShadow_14_284"/>
<feBlend mode="normal" in="SourceGraphic" in2="effect1_dropShadow_14_284" result="shape"/>
</filter>
</defs>
</svg>
