<svg width="526" height="222" viewBox="0 0 526 222" fill="none" xmlns="http://www.w3.org/2000/svg">
<g filter="url(#filter0_d_14_105)">
<path d="M77.0831 84.5148C76.9489 85.7235 76.2432 86.666 74.9723 87.3393C73.6983 88.0094 72.4244 88.3476 71.1504 88.3476C69.8764 88.3476 68.7024 88.0094 67.6313 87.3362C66.3574 86.5972 65.7859 85.6202 65.9233 84.4083L70.6477 30.2822C70.7819 28.5318 69.9108 26.6122 68.0341 24.5267C66.1575 22.4412 64.3465 21.3296 62.6041 21.1949C61.733 21.1448 58.0453 21.1198 51.5443 21.1198C52.4154 21.1198 51.7784 21.0822 49.6333 21.0071C47.4881 20.9319 46.3141 20.8943 46.1142 20.8943C40.6187 20.8943 37.8022 21.768 37.6679 23.5153L32.3378 84.5179C32.138 86.6003 30.3925 87.8466 27.1108 88.2474C26.5737 88.3132 24.4972 88.3476 20.8783 88.3476C17.3249 88.3476 15.1485 88.2787 14.3429 88.1472C11.261 87.6086 9.8184 86.3654 10.0182 84.4177L13.2344 47.5143C13.3 46.3713 13.837 45.4977 14.8425 44.8933C15.5794 44.4236 17.6902 43.8505 21.178 43.1804C23.5917 42.7107 24.8969 41.502 25.0999 39.5511L26.608 22.5101C26.6736 21.4361 27.5136 19.7889 29.1216 17.5688C30.7297 15.3486 32.0693 13.8737 33.1434 13.1316C35.2199 11.6536 37.0653 10.7799 38.6733 10.5106C40.55 10.1756 44.9745 10.0065 51.9439 10.0065C60.0531 10.0065 65.0803 10.2413 67.0256 10.711C73.0582 12.1891 77.3829 15.953 79.9964 22.0028C80.2649 22.6761 80.6334 24.1698 81.1018 26.4901C81.5701 28.8105 81.77 30.3073 81.7044 30.9774L77.0831 84.5148Z" fill="#FFE1FE"/>
<path d="M105.838 84.5083C105.635 86.5938 103.852 87.8401 100.486 88.244C99.9458 88.3098 97.8569 88.3443 94.2223 88.3443C89.3731 88.3443 86.6815 88.244 86.1413 88.0405C84.527 87.433 83.7183 85.4133 83.7183 81.9813C83.7183 81.1702 84.0211 77.7069 84.6238 71.5757L85.3263 63.4935C85.7291 58.9154 86.3661 56.4229 87.2373 56.0189C87.5027 55.8843 89.651 55.3801 93.6728 54.5033C96.152 53.9647 97.4572 52.7184 97.5946 50.7676L98.7905 36.2223C98.8561 35.0104 99.5555 34.0522 100.883 33.3445C102.213 32.6399 103.477 32.283 104.673 32.283C106.003 32.283 107.165 32.5867 108.164 33.1911C109.429 33.9301 109.994 34.9071 109.86 36.1189L105.838 84.5083ZM111.671 15.5457C111.334 19.3096 109.323 21.1916 105.638 21.1916C101.882 21.1916 100.174 19.3096 100.511 15.5457C100.845 11.8507 102.89 10 106.644 10C110.328 10 112.005 11.8507 111.671 15.5457Z" fill="#FFE1FE"/>
<path d="M169.584 68.7856C169.384 70.9369 168.613 73.1883 167.27 75.54C163.985 81.1859 159.661 84.9185 154.299 86.7316C151.149 87.8056 146.49 88.3443 140.323 88.3443C132.145 88.3443 126.013 86.8975 121.922 84.001C116.96 80.5659 114.481 74.945 114.481 67.1322C114.481 65.5164 114.516 64.2357 114.581 63.2931C114.781 60.6001 115.084 58.7495 115.487 57.738C116.224 55.8529 117.632 54.9104 119.708 54.9104C123.262 54.9104 125.372 54.4407 126.044 53.495C126.109 53.3604 126.981 51.1402 128.657 46.8283C129.194 45.4129 129.863 44.0664 130.668 42.7857C132.61 39.6887 135.461 37.1648 139.214 35.2108C142.968 33.2568 146.721 32.2798 150.474 32.2798C156.17 32.2798 161.097 34.071 165.253 37.647C169.609 41.4955 171.554 46.2552 171.086 51.9231C170.817 54.8259 168.941 56.2788 165.456 56.2788C163.245 56.2788 161.837 55.8404 161.234 54.9574C160.766 53.1286 159.692 50.5202 158.018 47.132C156.276 44.6927 153.494 43.4746 149.672 43.4746C144.644 43.4746 141.16 45.6321 139.214 49.9471C138.275 51.97 137.606 55.4772 137.204 60.4655C137.004 62.8923 136.901 64.6803 136.901 65.8264C136.901 73.3793 140.251 77.1527 146.955 77.1527C151.111 77.1527 154.296 75.5744 156.507 72.4149C157.512 70.3983 158.921 68.0779 160.728 65.4569C161.6 64.7868 162.939 64.4486 164.75 64.4486C168.176 64.4486 169.784 65.8953 169.584 68.7856Z" fill="#FFE1FE"/>
<path d="M231.515 57.6942C231.047 63.1397 229.47 65.8609 226.791 65.8609H197.533C197.334 65.9955 197.196 66.4339 197.131 67.1729C196.931 69.1895 197.768 71.3408 199.644 73.6267C201.521 75.9126 203.466 77.0556 205.477 77.0556H222.167C223.372 77.0556 224.312 77.7351 224.983 79.091C225.517 80.1745 225.72 81.3957 225.586 82.7547C225.317 86.2807 223.878 88.1125 221.261 88.2472C220.056 88.3129 215.497 88.3474 207.588 88.3474C196.125 88.3474 188.216 87.2702 183.86 85.1158C177.893 82.1535 174.911 76.3291 174.911 67.6395C174.911 66.2272 174.98 64.7774 175.111 63.2963C175.376 60.4686 175.679 58.618 176.016 57.7412C176.753 55.8561 178.161 54.9135 180.238 54.9135C183.32 54.9135 185.331 54.5096 186.271 53.7017C186.939 53.0973 187.844 51.2435 188.984 48.1466C189.387 46.9348 190.124 45.1499 191.195 42.7919C192.803 39.8296 195.754 37.3057 200.044 35.214C203.997 33.2631 207.784 32.2861 211.407 32.2861C217.976 32.2861 223.035 34.3716 226.588 38.5364C229.939 42.4349 231.615 47.7458 231.615 54.4689C231.618 55.8122 231.581 56.8863 231.515 57.6942ZM220.559 54.6693L220.758 52.6339C220.824 51.9575 220.509 50.874 219.803 49.3804C219.1 47.8898 218.479 46.869 217.942 46.3273C216.937 45.3096 215.229 44.3952 212.815 43.581C212.615 43.5121 211.809 43.4777 210.401 43.4777C207.585 43.4777 204.937 44.5298 202.458 46.631C199.978 48.7353 198.636 50.7707 198.436 52.7372L198.236 54.6693H220.559Z" fill="#FFE1FE"/>
<path d="M331.405 70.5047C331.177 73.8678 330.974 77.1276 330.802 80.2841C329.928 85.7953 328.32 88.5509 325.968 88.5509H283.977C282.969 88.5509 281.46 88.2628 279.443 87.6929C277.429 87.1199 275.987 86.5656 275.112 86.0302C271.353 83.7442 268.699 81.2548 267.156 78.568C265.614 75.8813 264.839 72.3835 264.839 68.081C264.839 66.0644 265.074 62.7044 265.542 57.9979L266.045 51.4439C266.31 48.4879 266.747 46.6373 267.35 45.8983C268.018 44.89 269.657 44.1854 272.268 43.7814C274.276 43.5153 275.55 43.2115 276.083 42.8733C277.286 42.3347 277.991 41.3264 278.191 39.8484C278.46 37.6314 278.691 35.4112 278.894 33.1942C279.228 30.639 279.696 28.4909 280.299 26.7404C282.506 20.4213 286.157 15.9528 291.243 13.3287C295.459 11.1116 301.182 10 308.411 10C309.347 10 310.771 10 312.679 10C314.587 10 316.011 10 316.948 10H332.407C335.286 10 336.557 11.882 336.223 15.6459C336.088 16.9486 335.62 18.1792 334.818 19.3409C333.881 20.7094 332.844 21.3951 331.708 21.3951H299.908C298.234 21.3951 296.261 22.488 293.988 24.6706C291.712 26.8563 290.509 28.7883 290.378 30.4699L286.965 68.6854L287.465 69.6937C287.2 70.9713 288.114 72.5683 290.222 74.4816C292.327 76.398 294.047 77.3562 295.387 77.3562H319.642L321.35 57.3904C321.416 56.9865 321.166 56.4824 320.595 55.878C320.023 55.2736 319.539 54.9699 319.136 54.9699H303.249C301.906 54.9699 300.935 54.3311 300.333 53.0535C299.796 51.9794 299.596 50.7331 299.73 49.324C300.064 45.4912 302.578 43.5779 307.271 43.5779C307.874 43.5779 308.745 43.6123 309.884 43.6781C311.024 43.747 311.895 43.7783 312.498 43.7783C319.402 43.7783 324.126 44.4829 326.674 45.8951C330.359 47.9117 332.204 51.9794 332.204 58.095C332.207 60.1868 331.939 64.3202 331.405 70.5047Z" fill="#FFE1FE"/>
<path d="M391.931 76.1287C391.862 77.2059 390.991 78.9094 389.317 81.2297C387.641 83.5532 386.335 84.9498 385.396 85.4195C384.256 86.2274 382.445 87.1355 379.966 88.147C378.223 88.4163 373.899 88.5509 366.995 88.5509C357.274 88.5509 350.336 87.505 346.183 85.4195C340.082 82.3883 337.034 76.4293 337.034 67.5424C337.034 65.6573 337.069 64.3108 337.137 63.4998C337.475 59.3914 338.115 56.9677 339.061 56.2287C339.532 55.8248 341.596 55.2862 345.243 54.6129C347.879 54.0743 349.296 52.8625 349.499 50.9774L350.795 36.4321C350.926 35.2202 351.626 34.262 352.89 33.5543C354.152 32.8498 355.42 32.4928 356.681 32.4928C358.011 32.4928 359.173 32.7965 360.172 33.4009C361.434 34.143 362.002 35.12 361.868 36.3319L359.154 68.6729C359.02 70.4233 359.932 72.2771 361.893 74.2311C363.85 76.1851 365.727 77.1965 367.522 77.2623C369.049 77.3312 370.81 77.3625 372.803 77.3625C376.256 77.3625 377.652 77.3969 376.987 77.4627C379.379 77.2623 380.64 76.4199 380.771 74.9356L384.112 36.4352C384.247 35.1545 384.99 34.143 386.339 33.4009C387.419 32.7965 388.668 32.4928 390.086 32.4928C391.434 32.4928 392.618 32.7965 393.626 33.4009C394.91 34.1399 395.481 35.1169 395.347 36.3287L391.931 76.1287Z" fill="#FFE1FE"/>
<path d="M454.871 74.5286C454.603 78.2173 454.1 83.5125 453.363 90.4204C451.152 99.539 446.628 105.504 439.79 108.323C436.036 109.863 429.701 110.637 420.786 110.637C420.046 110.637 418.959 110.687 417.517 110.787C416.074 110.887 414.984 110.937 414.251 110.937C411.837 110.937 410.129 110.599 409.124 109.929C407.85 109.055 407.313 107.474 407.515 105.191C407.715 103.04 408.371 101.562 409.476 100.754C410.582 99.9461 412.274 99.5108 414.554 99.4419H421.189C422.931 99.4419 424.961 98.4242 427.271 96.3951C429.585 94.3597 430.841 92.5121 431.043 90.8494L431.346 88.4507H418.878C416.799 88.4507 413.851 87.6084 410.029 85.9299C403.26 82.9708 399.875 76.5201 399.875 66.5717C399.875 66.3713 400.243 61.5991 400.98 52.255C401.18 49.4994 401.617 44.3232 402.288 36.7264C402.554 33.9019 404.565 32.4928 408.321 32.4928C409.661 32.4928 410.835 32.7965 411.84 33.4009C413.114 34.1399 413.682 35.1138 413.548 36.3256L410.732 68.4912C410.797 68.6259 410.966 68.9954 411.234 69.5998C410.966 70.8774 411.871 72.4744 413.948 74.3876C416.024 76.3041 417.732 77.2623 419.075 77.2623H432.246L435.865 36.4258C436.064 33.8048 438.041 32.4928 441.797 32.4928C443.137 32.4928 444.311 32.7965 445.316 33.3978C446.59 34.1336 447.159 35.1075 447.024 36.3131L445.716 50.896C445.582 52.5055 446.219 53.6109 447.627 54.2152C448.23 54.4845 449.672 54.7538 451.952 55.02C453.694 55.2204 454.768 55.5899 455.168 56.1254C455.905 57.1306 456.239 58.1044 456.173 59.0438C455.774 63.1992 455.34 68.3629 454.871 74.5286Z" fill="#FFE1FE"/>
<path d="M504.74 87.5458C502.929 88.2159 501.858 88.554 501.524 88.554H466.231C464.957 88.554 464.02 87.9152 463.414 86.6376C462.877 85.5604 462.677 84.3517 462.812 83.0084C462.946 81.6619 463.38 80.4531 464.12 79.3791C464.991 78.0357 466.031 77.3625 467.236 77.3625H490.561C492.304 77.3625 493.309 75.5149 493.578 71.8168C493.912 68.0528 493.24 66.1709 491.567 66.1709H473.369C472.697 66.1709 471.692 65.8327 470.352 65.1594C464.654 62.3287 461.806 58.1482 461.806 52.6182C461.806 52.0796 461.872 50.968 462.006 49.2802C462.34 44.8962 463.848 41.0884 466.53 37.8506C469.413 34.2777 472.932 32.4897 477.088 32.4897H510.873C514.024 32.4897 515.432 34.3403 515.095 38.0353C514.96 39.3129 514.523 40.5217 513.786 41.6646C512.915 43.0111 511.875 43.6812 510.67 43.6812H476.085C474.477 43.6812 473.503 45.5475 473.169 49.277C472.832 53.0754 473.472 54.973 475.08 54.973H504.438C505.106 54.973 506.111 55.3112 507.454 55.9813C513.149 58.8058 516 62.9393 516 68.3848C516 78.4052 512.247 84.787 504.74 87.5458Z" fill="#FFE1FE"/>
<path d="M81.6076 133.656C81.1392 139.167 79.0253 144.008 75.2721 148.176C71.3159 152.479 66.6571 154.899 61.2958 155.435C61.0273 155.435 60.5932 155.535 59.9875 155.738C59.3848 155.939 58.9133 156.042 58.5792 156.042H34.9513L32.3378 185.787C32.138 187.87 30.3925 189.116 27.1108 189.517C26.5737 189.582 24.4972 189.617 20.8783 189.617C17.3249 189.617 15.1485 189.548 14.3429 189.416C11.261 188.878 9.8184 187.635 10.0182 185.687L13.2344 148.784C13.3 147.641 13.837 146.767 14.8425 146.163C15.5794 145.693 17.6902 145.12 21.178 144.45C23.5917 143.98 24.8969 142.771 25.0999 140.82L26.608 123.779C26.6736 122.705 27.5136 121.058 29.1216 118.838C30.7297 116.618 32.0693 115.143 33.1434 114.401C35.6227 112.722 38.5734 111.714 41.9926 111.376C42.7295 111.31 45.9144 111.276 51.5443 111.276C58.5824 111.276 63.7095 111.545 66.9288 112.084C71.8217 112.892 75.6405 115.478 78.3914 119.846C80.9363 123.942 82.0104 128.548 81.6076 133.656ZM70.4478 133.656C70.9162 128.21 68.8397 124.781 64.2153 123.372C62.27 122.768 57.9828 122.464 51.3444 122.464C46.4515 122.464 44.1377 122.43 44.4062 122.364C40.1159 122.633 37.9052 123.472 37.7709 124.885L35.9599 144.85H60.2904C62.0327 144.85 64.0093 143.842 66.2231 141.826C68.4338 139.809 69.7421 137.893 70.1449 136.079C70.2792 135.672 70.3791 134.864 70.4478 133.656Z" fill="#FFE1FE"/>
<path d="M136.001 172.908C135.617 177.069 135.349 180.122 135.196 182.067C134.325 187.099 132.748 189.614 130.471 189.614H91.4591C90.7877 189.614 89.7823 189.276 88.4427 188.605C82.7442 185.781 79.8965 181.613 79.8965 176.102C79.8965 174.758 79.9308 173.681 79.9964 172.876C80.6677 164.744 84.3866 159.465 91.1562 157.047C93.0328 156.377 94.1038 156.039 94.3724 156.039H114.681C114.946 155.1 115.184 153.587 115.384 151.502C115.518 150.024 115.583 149.05 115.583 148.577C115.583 146.091 114.881 144.847 113.473 144.847H97.5854C94.9719 144.847 93.7978 142.981 94.0664 139.252C94.3349 135.453 96.8485 133.556 101.607 133.556C102.21 133.556 103.097 133.59 104.271 133.656C105.442 133.725 106.332 133.756 106.934 133.756C112.096 133.756 115.212 133.856 116.286 134.057C119.034 134.595 121.447 136.054 123.524 138.437C125.6 140.82 126.706 143.419 126.843 146.238C126.909 146.642 126.793 147.428 126.49 148.602C126.187 149.776 126.038 150.565 126.038 150.966C126.038 152.98 126.74 154.389 128.148 155.193C128.751 155.532 130.125 155.867 132.27 156.199C134.212 156.468 135.436 156.888 135.939 157.457C136.442 158.027 136.695 159.621 136.695 162.239C136.704 163.247 136.47 166.802 136.001 172.908ZM113.076 178.425L113.982 167.234H94.7939C92.6394 167.234 91.3935 169.116 91.0594 172.88C90.7222 176.578 91.3997 178.425 93.089 178.425H113.076Z" fill="#FFE1FE"/>
<path d="M189.39 139.252C189.256 140.517 188.821 141.716 188.088 142.85C187.22 144.183 186.183 144.847 184.984 144.847H169.056C168.722 144.847 168.204 145.151 167.504 145.755C166.805 146.36 166.452 146.833 166.452 147.168L163.045 185.787C162.842 187.87 161.059 189.116 157.693 189.517C157.153 189.582 155.099 189.617 151.533 189.617C146.683 189.617 143.989 189.517 143.452 189.313C141.769 188.709 140.929 186.695 140.929 183.273C140.929 182.734 141.2 179.28 141.741 172.905C142.146 168.073 142.415 165.389 142.549 164.854C142.955 161.03 143.292 158.882 143.564 158.413C144.036 157.539 145.725 156.869 148.629 156.399C150.786 156.064 152.323 155.544 153.234 154.84C154.146 154.135 154.671 152.81 154.805 150.863C154.939 148.38 155.174 146.804 155.508 146.134C158.38 140.094 161.487 136.371 164.831 134.962C166.77 134.157 171.014 133.756 177.565 133.756C178.164 133.756 179.032 133.722 180.172 133.656C181.309 133.59 182.177 133.556 182.779 133.556C187.519 133.556 189.724 135.453 189.39 139.252Z" fill="#FFE1FE"/>
<path d="M242.878 184.171C242.678 186.454 241.873 188.035 240.464 188.909C239.325 189.579 237.548 189.917 235.134 189.917C234.394 189.917 233.323 189.883 231.918 189.817C230.51 189.748 229.439 189.717 228.702 189.717C221.327 189.717 216.234 189.313 213.421 188.505C207.119 186.686 202.963 182.819 200.952 176.894C199.878 173.666 199.41 171.142 199.544 169.322L201.655 145.195L193.611 144.387C191.601 143.983 190.729 142.267 190.998 139.239C191.266 136.277 192.506 134.526 194.717 133.988L202.358 133.684C202.626 131.533 203.229 125.608 204.169 115.916C204.437 112.819 206.448 111.273 210.201 111.273C211.541 111.273 212.715 111.573 213.72 112.174C214.994 112.91 215.563 113.881 215.428 115.087L213.82 133.556H232.221C233.426 133.556 234.332 134.229 234.934 135.572C235.537 136.649 235.771 137.824 235.637 139.101C235.503 140.448 235.066 141.656 234.329 142.731C233.458 144.077 232.418 144.747 231.212 144.747H212.915C212.915 145.492 212.73 146.541 212.362 147.891C211.994 149.244 211.809 150.293 211.809 151.035C211.809 154.01 213.686 155.669 217.439 156.004C219.316 156.208 220.605 156.581 221.311 157.119C222.014 157.661 222.366 158.845 222.366 160.67C222.366 161.416 222.267 162.903 222.064 165.132C221.864 167.027 221.829 168.549 221.964 169.698C222.298 173.215 223.775 175.616 226.388 176.9C227.662 177.577 230.376 178.049 234.532 178.319C238.419 178.588 240.833 179.023 241.77 179.631C242.71 180.238 243.081 181.751 242.878 184.171Z" fill="#FFE1FE"/>
<path d="M303.204 175.591C302.936 179.28 302.433 184.575 301.696 191.483C299.486 200.602 294.961 206.567 288.123 209.385C284.37 210.926 278.034 211.699 269.119 211.699C268.379 211.699 267.293 211.749 265.85 211.85C264.407 211.95 263.318 212 262.584 212C260.17 212 258.462 211.662 257.457 210.992C256.183 210.118 255.646 208.537 255.849 206.254C256.049 204.103 256.704 202.625 257.81 201.817C258.915 201.009 260.607 200.574 262.887 200.505H269.522C271.264 200.505 273.294 199.487 275.605 197.458C277.919 195.422 279.174 193.575 279.377 191.912L279.68 189.513H267.211C265.132 189.513 262.184 188.671 258.362 186.993C251.593 184.034 248.208 177.583 248.208 167.634C248.208 167.434 248.576 162.662 249.313 153.318C249.513 150.562 249.95 145.386 250.622 137.789C250.887 134.965 252.898 133.556 256.654 133.556C257.994 133.556 259.168 133.859 260.173 134.464C261.447 135.203 262.016 136.177 261.881 137.388L259.065 169.554C259.13 169.689 259.299 170.058 259.568 170.663C259.299 171.94 260.205 173.537 262.281 175.45C264.358 177.367 266.066 178.325 267.408 178.325H280.579L284.198 137.489C284.398 134.868 286.374 133.556 290.131 133.556C291.47 133.556 292.644 133.859 293.65 134.461C294.924 135.196 295.492 136.17 295.358 137.376L294.049 151.959C293.915 153.568 294.552 154.674 295.96 155.278C296.563 155.547 298.006 155.817 300.285 156.083C302.027 156.283 303.101 156.653 303.501 157.188C304.238 158.193 304.572 159.167 304.507 160.107C304.11 164.262 303.673 169.426 303.204 175.591Z" fill="#FFE1FE"/>
</g>
<defs>
<filter id="filter0_d_14_105" x="0" y="0" width="526" height="222" filterUnits="userSpaceOnUse" color-interpolation-filters="sRGB">
<feFlood flood-opacity="0" result="BackgroundImageFix"/>
<feColorMatrix in="SourceAlpha" type="matrix" values="0 0 0 0 0 0 0 0 0 0 0 0 0 0 0 0 0 0 127 0" result="hardAlpha"/>
<feOffset/>
<feGaussianBlur stdDeviation="5"/>
<feComposite in2="hardAlpha" operator="out"/>
<feColorMatrix type="matrix" values="0 0 0 0 0.729412 0 0 0 0 0.309804 0 0 0 0 0.839216 0 0 0 1 0"/>
<feBlend mode="normal" in2="BackgroundImageFix" result="effect1_dropShadow_14_105"/>
<feBlend mode="normal" in="SourceGraphic" in2="effect1_dropShadow_14_105" result="shape"/>
</filter>
</defs>
</svg>
