<svg width="3364" height="479" viewBox="0 0 3364 479" fill="none" xmlns="http://www.w3.org/2000/svg">
<g clip-path="url(#clip0_6_25)" filter="url(#filter0_i_6_25)">
<path d="M0.404785 478V0.893555H634.406V92.2208C634.406 225.811 561.455 293.288 416.941 293.288H170.161V186.277H441.488C488.526 186.277 515.111 160.37 521.935 113.342H116.298V478H0.404785Z" fill="white"/>
<path d="M1293.63 478H1177.06V293.288H788.475V478H672.582V238.764C672.582 89.4915 759.161 0.893555 910.501 0.893555H1293.63V478ZM1177.06 113.363H967.093C828.016 113.363 805.527 144.036 795.972 188.335H1177.06V113.363Z" fill="white"/>
<path d="M1552.67 186.277H1824C1871.04 186.277 1897.62 160.37 1904.45 113.342H1498.81V478H1382.91V0.893555H2016.92V92.2208C2016.92 212.857 1958.29 278.969 1841.03 291.251L2022.38 478H1881.93L1697.88 293.288H1552.67V186.277Z" fill="white"/>
<path d="M2672.73 113.363H2453.21V478.021H2337.32V113.363H2256.87C2206.43 113.363 2179.15 137.213 2175.06 186.298H2065.3C2075.52 62.2403 2145.05 0.914551 2275.27 0.914551H2672.71V113.363H2672.73Z" fill="white"/>
<path d="M3364 0.893555V240.822C3364 389.402 3278.09 478.021 3126.08 478.021H2736.82V364.88H3123.35C3194.24 364.88 3228.35 340.337 3241.28 294.002H2736.8V0.914506H2852.7V189.721H3248.09V0.914506H3364V0.893555Z" fill="white"/>
</g>
<defs>
<filter id="filter0_i_6_25" x="0" y="0" width="3384" height="504" filterUnits="userSpaceOnUse" color-interpolation-filters="sRGB">
<feFlood flood-opacity="0" result="BackgroundImageFix"/>
<feBlend mode="normal" in="SourceGraphic" in2="BackgroundImageFix" result="shape"/>
<feColorMatrix in="SourceAlpha" type="matrix" values="0 0 0 0 0 0 0 0 0 0 0 0 0 0 0 0 0 0 127 0" result="hardAlpha"/>
<feOffset dx="20" dy="25"/>
<feGaussianBlur stdDeviation="25"/>
<feComposite in2="hardAlpha" operator="arithmetic" k2="-1" k3="1"/>
<feColorMatrix type="matrix" values="0 0 0 0 0.172549 0 0 0 0 0.137255 0 0 0 0 0.6 0 0 0 1 0"/>
<feBlend mode="normal" in2="shape" result="effect1_innerShadow_6_25"/>
</filter>
<clipPath id="clip0_6_25">
<rect width="3364" height="479" fill="white"/>
</clipPath>
</defs>
</svg>
