<svg width="1025" height="356" viewBox="0 0 1025 356" fill="none" xmlns="http://www.w3.org/2000/svg">
<g filter="url(#filter0_d_438_13)">
<path d="M81.8403 255.943C66.3141 251.868 53.6988 246.436 44 239.643L62.9201 197.145C72.0367 203.165 82.6145 208.014 94.6478 211.699C106.675 215.39 118.516 217.23 130.159 217.23C152.281 217.23 163.342 211.699 163.342 200.638C163.342 194.816 160.187 190.503 153.882 187.685C147.572 184.873 137.436 181.916 123.465 178.807C108.131 175.512 95.3231 171.967 85.0421 168.183C74.7554 164.399 65.9241 158.338 58.554 149.99C51.178 141.648 47.4929 130.395 47.4929 116.225C47.4929 103.808 50.8869 92.6011 57.6807 82.6055C64.4687 72.6156 74.6099 64.7041 88.0985 58.8825C101.581 53.0609 118.126 50.1501 137.727 50.1501C151.117 50.1501 164.309 51.6579 177.314 54.6619C190.314 57.6716 201.765 62.0844 211.662 67.906L193.906 110.695C174.497 100.216 155.675 94.9763 137.436 94.9763C125.985 94.9763 117.643 96.6762 112.404 100.07C107.164 103.47 104.544 107.883 104.544 113.314C104.544 118.746 107.647 122.827 113.859 125.54C120.065 128.258 130.06 131.07 143.84 133.981C159.36 137.282 172.22 140.821 182.408 144.605C192.596 148.389 201.421 154.409 208.896 162.652C216.365 170.901 220.103 182.108 220.103 196.272C220.103 208.497 216.703 219.558 209.915 229.455C203.121 239.352 192.934 247.263 179.352 253.178C165.764 259.093 149.272 262.056 129.868 262.056C113.37 262.056 97.3606 260.018 81.8403 255.943Z" fill="#FFECFD"/>
</g>
<g filter="url(#filter1_d_438_13)">
<path d="M394.017 115.061C405.951 126.704 411.918 144.268 411.918 167.746V257.981H356.613V176.77C356.613 155.23 347.974 144.46 330.707 144.46C321.195 144.46 313.58 147.569 307.857 153.774C302.129 159.986 299.271 169.301 299.271 181.718V257.981H243.966V42H299.271V114.77C305.284 109.146 312.369 104.873 320.519 101.962C328.67 99.0515 337.402 97.5961 346.716 97.5961C366.312 97.5961 382.083 103.418 394.017 115.061Z" fill="#FFECFD"/>
</g>
<g filter="url(#filter2_d_438_13)">
<path d="M482.359 250.122C468.772 243.136 458.147 233.437 450.486 221.014C442.819 208.596 438.988 194.526 438.988 178.807C438.988 163.089 442.819 149.315 450.486 136.892C458.147 124.474 468.725 114.822 482.214 107.929C495.696 101.043 510.978 97.5962 528.059 97.5962C545.139 97.5962 560.462 101.043 574.049 107.929C587.631 114.822 598.209 124.428 605.777 136.746C613.345 149.071 617.129 163.089 617.129 178.807C617.129 194.526 613.345 208.596 605.777 221.014C598.209 233.437 587.631 243.136 574.049 250.122C560.462 257.108 545.133 260.6 528.059 260.6C510.984 260.6 495.941 257.108 482.359 250.122ZM551.927 206.605C558.133 199.91 561.242 190.648 561.242 178.807C561.242 166.966 558.133 158.047 551.927 151.446C545.715 144.85 537.757 141.549 528.059 141.549C518.36 141.549 510.396 144.85 504.19 151.446C497.978 158.047 494.876 167.164 494.876 178.807C494.876 190.45 497.978 199.91 504.19 206.605C510.396 213.3 518.354 216.648 528.059 216.648C537.763 216.648 545.715 213.3 551.927 206.605Z" fill="#FFECFD"/>
</g>
<g filter="url(#filter3_d_438_13)">
<path d="M781.146 107.638C792.882 114.333 802.197 123.846 809.09 136.164C815.977 148.488 819.423 162.798 819.423 179.098C819.423 195.399 815.977 209.714 809.09 222.032C802.197 234.357 792.882 243.863 781.146 250.558C769.404 257.253 756.352 260.6 741.996 260.6C723.559 260.6 708.906 255.07 698.043 244.009V314.45H642.738V100.216H695.423V115.934C705.704 103.709 721.23 97.5962 741.996 97.5962C756.352 97.5962 769.404 100.944 781.146 107.638ZM754.221 206.605C760.427 199.91 763.536 190.741 763.536 179.098C763.536 167.455 760.427 158.286 754.221 151.591C748.01 144.897 740.052 141.549 730.353 141.549C720.654 141.549 712.69 144.897 706.484 151.591C700.273 158.286 697.17 167.455 697.17 179.098C697.17 190.741 700.273 199.91 706.484 206.605C712.69 213.3 720.648 216.648 730.353 216.648C740.057 216.648 748.01 213.3 754.221 206.605Z" fill="#FFECFD"/>
</g>
<g filter="url(#filter4_d_438_13)">
<path d="M863.376 256.089C850.568 253.085 840.282 249.155 832.521 244.3L849.113 206.46C856.291 210.925 864.831 214.464 874.728 217.084C884.625 219.704 894.422 221.014 904.127 221.014C913.051 221.014 919.409 220.094 923.193 218.248C926.977 216.409 928.869 213.737 928.869 210.244C928.869 206.751 926.587 204.277 922.028 202.821C917.464 201.366 910.24 199.963 900.343 198.601C887.728 197.052 877.004 195.015 868.179 192.488C859.347 189.967 851.733 185.31 845.329 178.516C838.925 171.728 835.723 162.216 835.723 149.99C835.723 139.902 838.727 130.925 844.747 123.066C850.76 115.206 859.539 109.001 871.089 104.437C882.634 99.8783 896.46 97.5962 912.568 97.5962C924.013 97.5962 935.366 98.7605 946.624 101.089C957.878 103.418 967.291 106.719 974.859 110.986L958.268 148.535C944.296 140.775 929.16 136.892 912.859 136.892C904.127 136.892 897.723 137.911 893.648 139.948C889.573 141.986 887.535 144.658 887.535 147.953C887.535 151.644 889.765 154.211 894.23 155.666C898.69 157.122 906.066 158.63 916.352 160.178C929.352 162.123 940.122 164.352 948.662 166.873C957.196 169.4 964.619 174.004 970.93 180.699C977.234 187.394 980.39 196.761 980.39 208.788C980.39 218.685 977.38 227.563 971.366 235.422C965.347 243.281 956.469 249.446 944.732 253.906C932.99 258.365 918.873 260.6 902.38 260.6C889.183 260.6 876.183 259.093 863.376 256.089Z" fill="#FFECFD"/>
</g>
<defs>
<filter id="filter0_d_438_13" x="34" y="40.1501" width="216.103" height="251.906" filterUnits="userSpaceOnUse" color-interpolation-filters="sRGB">
<feFlood flood-opacity="0" result="BackgroundImageFix"/>
<feColorMatrix in="SourceAlpha" type="matrix" values="0 0 0 0 0 0 0 0 0 0 0 0 0 0 0 0 0 0 127 0" result="hardAlpha"/>
<feOffset dx="10" dy="10"/>
<feGaussianBlur stdDeviation="10"/>
<feComposite in2="hardAlpha" operator="out"/>
<feColorMatrix type="matrix" values="0 0 0 0 0 0 0 0 0 0 0 0 0 0 0 0 0 0 0.4 0"/>
<feBlend mode="normal" in2="BackgroundImageFix" result="effect1_dropShadow_438_13"/>
<feBlend mode="normal" in="SourceGraphic" in2="effect1_dropShadow_438_13" result="shape"/>
</filter>
<filter id="filter1_d_438_13" x="233.966" y="32" width="207.953" height="255.981" filterUnits="userSpaceOnUse" color-interpolation-filters="sRGB">
<feFlood flood-opacity="0" result="BackgroundImageFix"/>
<feColorMatrix in="SourceAlpha" type="matrix" values="0 0 0 0 0 0 0 0 0 0 0 0 0 0 0 0 0 0 127 0" result="hardAlpha"/>
<feOffset dx="10" dy="10"/>
<feGaussianBlur stdDeviation="10"/>
<feComposite in2="hardAlpha" operator="out"/>
<feColorMatrix type="matrix" values="0 0 0 0 0 0 0 0 0 0 0 0 0 0 0 0 0 0 0.4 0"/>
<feBlend mode="normal" in2="BackgroundImageFix" result="effect1_dropShadow_438_13"/>
<feBlend mode="normal" in="SourceGraphic" in2="effect1_dropShadow_438_13" result="shape"/>
</filter>
<filter id="filter2_d_438_13" x="428.988" y="87.5962" width="218.14" height="203.004" filterUnits="userSpaceOnUse" color-interpolation-filters="sRGB">
<feFlood flood-opacity="0" result="BackgroundImageFix"/>
<feColorMatrix in="SourceAlpha" type="matrix" values="0 0 0 0 0 0 0 0 0 0 0 0 0 0 0 0 0 0 127 0" result="hardAlpha"/>
<feOffset dx="10" dy="10"/>
<feGaussianBlur stdDeviation="10"/>
<feComposite in2="hardAlpha" operator="out"/>
<feColorMatrix type="matrix" values="0 0 0 0 0 0 0 0 0 0 0 0 0 0 0 0 0 0 0.4 0"/>
<feBlend mode="normal" in2="BackgroundImageFix" result="effect1_dropShadow_438_13"/>
<feBlend mode="normal" in="SourceGraphic" in2="effect1_dropShadow_438_13" result="shape"/>
</filter>
<filter id="filter3_d_438_13" x="632.738" y="87.5962" width="216.685" height="256.854" filterUnits="userSpaceOnUse" color-interpolation-filters="sRGB">
<feFlood flood-opacity="0" result="BackgroundImageFix"/>
<feColorMatrix in="SourceAlpha" type="matrix" values="0 0 0 0 0 0 0 0 0 0 0 0 0 0 0 0 0 0 127 0" result="hardAlpha"/>
<feOffset dx="10" dy="10"/>
<feGaussianBlur stdDeviation="10"/>
<feComposite in2="hardAlpha" operator="out"/>
<feColorMatrix type="matrix" values="0 0 0 0 0 0 0 0 0 0 0 0 0 0 0 0 0 0 0.4 0"/>
<feBlend mode="normal" in2="BackgroundImageFix" result="effect1_dropShadow_438_13"/>
<feBlend mode="normal" in="SourceGraphic" in2="effect1_dropShadow_438_13" result="shape"/>
</filter>
<filter id="filter4_d_438_13" x="822.521" y="87.5962" width="187.868" height="203.004" filterUnits="userSpaceOnUse" color-interpolation-filters="sRGB">
<feFlood flood-opacity="0" result="BackgroundImageFix"/>
<feColorMatrix in="SourceAlpha" type="matrix" values="0 0 0 0 0 0 0 0 0 0 0 0 0 0 0 0 0 0 127 0" result="hardAlpha"/>
<feOffset dx="10" dy="10"/>
<feGaussianBlur stdDeviation="10"/>
<feComposite in2="hardAlpha" operator="out"/>
<feColorMatrix type="matrix" values="0 0 0 0 0 0 0 0 0 0 0 0 0 0 0 0 0 0 0.4 0"/>
<feBlend mode="normal" in2="BackgroundImageFix" result="effect1_dropShadow_438_13"/>
<feBlend mode="normal" in="SourceGraphic" in2="effect1_dropShadow_438_13" result="shape"/>
</filter>
</defs>
</svg>
