<svg id="Слой_1" data-name="Слой 1" xmlns="http://www.w3.org/2000/svg" viewBox="0 0 1253.27 326.54"><path d="M424.68,443.51H404.16V411h-68.4v32.52h-20.4V401.39c0-26.28,15.24-41.88,41.88-41.88h67.44Zm-20.52-64.2h-37c-24.48,0-28.44,5.4-30.12,13.2h67.08Z" transform="translate(-315.36 -359.51)"/><path d="M440.4,359.51h88.68q23,0,23,21.24c0,11.64-5,18.24-14.52,19.92,9.24,1.92,14.52,8.88,14.52,21.48,0,14.28-7.68,21.36-23,21.36H440.4Zm20.4,64.56h62.88q6.84,0,6.84-6.48c0-4.68-2.28-7.08-6.84-7.08H475.2V392.63h48.48c4.56,0,6.84-2.4,6.84-7.32q0-6.12-6.84-6.12H460.8Z" transform="translate(-315.36 -359.51)"/><path d="M677.76,359.51v42.24c0,26.16-15.24,41.76-41.88,41.76h-69.6V401.39c0-25.68,15.48-41.88,42-41.88Zm-20.4,19.8H608.64c-16.8,0-22,5.16-22,22.44v21.84H635.4c16.44,0,22-4.8,22-22.2Z" transform="translate(-315.36 -359.51)"/><path d="M713.52,359.51v40.92c0,15.48,10.44,23.16,31.44,23.16h33.72V359.51h20.4v84h-59.4c-28.44,0-46.56-15.6-46.56-44.4v-39.6Z" transform="translate(-315.36 -359.51)"/><path d="M916,379.31H877.32v64.2h-20.4v-64.2H842.76c-8.88,0-13.68,4.2-14.4,12.84H809c1.8-21.84,14-32.64,37-32.64h70Z" transform="translate(-315.36 -359.51)"/><path d="M976.56,443.51v-84h111.59v16.08c0,23.52-12.84,35.4-38.27,35.4h-43.44V392.15h47.76c8.27,0,13-4.56,14.15-12.84H997v64.2Z" transform="translate(-315.36 -359.51)"/><path d="M1204.19,443.51h-20.52V411h-68.39v32.52h-20.4V401.39c0-26.28,15.24-41.88,41.88-41.88h67.43Zm-20.52-64.2h-37c-24.48,0-28.44,5.4-30.12,13.2h67.07Z" transform="translate(-315.36 -359.51)"/><path d="M1249.8,392.15h47.75c8.28,0,13-4.56,14.16-12.84h-71.39v64.2h-20.4v-84h111.59v16.08c0,21.24-10.32,32.88-31,35l31.92,32.88h-24.72L1275.36,411H1249.8Z" transform="translate(-315.36 -359.51)"/><path d="M1447,379.31h-38.63v64.2h-20.4v-64.2h-14.16c-8.88,0-13.68,4.2-14.4,12.84H1340c1.8-21.84,14-32.64,37-32.64h70Z" transform="translate(-315.36 -359.51)"/><path d="M1568.63,359.51v42.24c0,26.16-15.11,41.76-41.87,41.76h-68.52V423.59h68c12.48,0,18.48-4.32,20.76-12.48h-88.8v-51.6h20.4v33.24h69.6V359.51Z" transform="translate(-315.36 -359.51)"/><path d="M413.65,602.05h88.67q23,0,23,21.24c0,11.64-5,18.24-14.52,19.92,9.24,1.92,14.52,8.88,14.52,21.48,0,14.28-7.68,21.36-23,21.36H413.65ZM434,666.61h62.88q6.84,0,6.84-6.48c0-4.68-2.28-7.08-6.84-7.08H448.44V635.17h48.48c4.56,0,6.84-2.4,6.84-7.32q0-6.12-6.84-6.12H434Z" transform="translate(-315.36 -359.51)"/><path d="M651,602.05v42.24c0,26.16-15.24,41.76-41.88,41.76h-69.6V643.93c0-25.68,15.48-41.88,42-41.88Zm-20.4,19.8H581.88c-16.8,0-22,5.16-22,22.44v21.84h48.72c16.44,0,22-4.8,22-22.2Z" transform="translate(-315.36 -359.51)"/><path d="M780.12,686.05h-21.6c-23-31.44-45.24-52-67.08-60.24-1.56-.48-3.48-1.32-5.52-2,.24,3,.36,5,.36,5.88v56.4H666.36v-84H684c26.88,8.64,51.84,28.08,72.84,50.88l3.72,4c-.24-2.52-.36-4.32-.36-5.52V602.05h19.92Z" transform="translate(-315.36 -359.51)"/><path d="M816.36,602.05V643c0,15.48,10.44,23.16,31.44,23.16h33.72V602.05h20.4v84h-59.4c-28.44,0-46.56-15.6-46.56-44.4v-39.6Z" transform="translate(-315.36 -359.51)"/><path d="M1018.44,621.85H949.68c-8.52,0-13.32,4.2-14.4,12.84h83.52v16c0,23.52-12.72,35.4-38.16,35.4h-64.8V666.13H985c8.28,0,13-4.44,14.28-12.6h-83.4V637.45c0-23.52,12.72-35.4,38.28-35.4h64.32Z" transform="translate(-315.36 -359.51)"/><path d="M1103.4,686.05H1083v-84h20.4Z" transform="translate(-315.36 -359.51)"/><path d="M1233.11,686.05h-21.59c-23-31.44-45.24-52-67.08-60.24-1.56-.48-3.48-1.32-5.52-2,.24,3,.36,5,.36,5.88v56.4h-19.92v-84H1137c26.88,8.64,51.84,28.08,72.84,50.88l3.72,4c-.24-2.52-.36-4.32-.36-5.52V602.05h19.91Z" transform="translate(-315.36 -359.51)"/><path d="M1344,653.53h-75.47v32.52h-20.4V643.93c0-25.68,15.48-41.88,42-41.88h60.59v19.8h-60.23c-12.48,0-18.36,4.56-20.88,12.84H1344Z" transform="translate(-315.36 -359.51)"/><path d="M1470.59,602.05v42.24c0,26.16-15.24,41.76-41.88,41.76h-69.59V643.93c0-25.68,15.48-41.88,42-41.88Zm-20.4,19.8h-48.72c-16.8,0-22,5.16-22,22.44v21.84h48.71c16.44,0,22-4.8,22-22.2Z" transform="translate(-315.36 -359.51)"/></svg>