<svg width="708" height="287" viewBox="0 0 708 287" fill="none" xmlns="http://www.w3.org/2000/svg">
<g filter="url(#filter0_d_4_41)">
<path d="M81.2481 35.3313C78.6339 39.088 74.5749 45.2512 69.065 53.8239C63.555 62.3967 57.84 71.3797 51.9229 80.7668C46.0027 90.1571 41.5335 97.2602 38.5153 102.076H24.4343V28.1057L24.1894 22.2272C23.9445 19.6156 23.3935 17.8 22.5364 16.7774C21.6793 15.7579 19.9835 15.0843 17.455 14.7567L10.8431 14.2668V12.3074H67.6569V14.2668L61.0449 14.6342C58.5134 14.8792 56.8206 15.4731 55.9635 16.41C55.1064 17.35 54.5554 19.2084 54.3105 21.9823L54.0656 27.8608V72.439C55.9421 69.5825 58.7369 65.2563 62.453 59.4574C66.1661 53.6617 69.7782 48.1108 73.2893 42.8018C76.7973 37.4959 80.391 32.3523 84.0643 27.3709C87.7376 22.3926 91.6129 18.4124 95.6964 15.4303C99.7768 12.4513 104.88 10.9602 111.002 10.9602C115.979 10.9602 120.265 12.39 123.858 15.2466C127.449 18.1062 129.246 21.9823 129.246 26.881C129.246 31.8624 127.755 36.0049 124.777 39.3115C121.795 42.6181 117.898 44.2714 113.083 44.2714C108.675 44.2714 104.858 43.0468 101.635 40.5974C98.4085 38.1481 96.7984 34.8016 96.7984 30.555C96.7984 28.8405 96.9821 27.4321 97.3494 26.3299C97.7167 25.2277 98.2249 24.1684 98.88 23.1457C99.532 22.1262 100.41 20.9842 101.512 19.7167C102.614 18.4522 103.165 17.451 103.165 16.7162C103.165 16.064 102.715 15.7364 101.819 15.7364C100.919 15.7364 99.9819 15.9416 99.0024 16.3488C98.0229 16.7591 96.6943 17.6561 95.023 19.0431C93.3486 20.4331 91.4905 22.2885 89.4518 24.6154C87.4101 26.9423 84.6765 30.5152 81.2481 35.3313Z" fill="#FFE1FE"/>
<path d="M194.263 43.5366L173.081 90.0744C172.836 90.5642 172.426 91.6267 171.856 93.2585C171.284 94.8935 170.999 95.913 170.999 96.3202C170.999 96.9754 171.14 97.4837 171.428 97.8511C171.712 98.2185 172.141 98.4022 172.713 98.4022C173.855 98.4022 175.447 97.5878 177.489 95.9528C179.527 94.3209 181.713 92.0155 184.039 89.0334C186.366 86.0544 188.466 82.7263 190.345 79.0523L191.937 79.7871C189.65 84.0336 187.303 87.8087 184.897 91.1154C182.487 94.422 179.488 97.1989 175.897 99.4432C172.303 101.687 167.978 102.811 162.918 102.811C158.834 102.811 155.773 101.687 153.735 99.4432C151.693 97.1989 150.674 93.8311 150.674 89.3396C147.49 94.076 144.447 97.5051 141.552 99.6269C138.653 101.749 134.918 102.811 130.348 102.811C125.45 102.811 121.428 101.24 118.287 98.096C115.144 94.9547 113.573 90.852 113.573 85.788C113.573 76.1559 118 66.4993 126.858 56.8244C135.714 47.1494 145.531 42.3119 156.306 42.3119C158.834 42.3119 161.121 42.9243 163.163 44.149C165.201 45.3736 166.224 47.2933 166.224 49.9049L165.857 52.8442L170.142 43.5366H194.263ZM164.632 50.1499C164.632 48.8456 164.366 47.8842 163.836 47.2719C163.304 46.6596 162.468 46.3534 161.326 46.3534C159.774 46.3534 157.999 47.5781 156 50.0274C153.998 52.4768 151.408 56.7631 148.225 62.8865C145.041 69.0099 141.858 75.7885 138.674 83.2162C135.491 90.6469 133.899 95.463 133.899 97.6674C133.899 98.4022 134.061 98.9747 134.389 99.3819C134.713 99.7922 135.203 99.9943 135.858 99.9943C138.386 99.9943 140.795 98.7512 143.082 96.259C145.366 93.7698 147.123 91.6481 148.347 89.8907C149.572 88.1363 151.182 85.1573 153.184 80.9505C155.183 76.7468 157.592 71.3368 160.408 64.7235C163.224 58.1103 164.632 53.2544 164.632 50.1499Z" fill="#FFE1FE"/>
<path d="M218.259 25.7788C219.239 23.3294 219.912 21.5353 220.28 20.3902C220.647 19.2482 220.831 18.2287 220.831 17.3285C220.831 16.0242 220.157 15.1853 218.81 14.8179C217.463 14.4505 214.993 14.2668 211.402 14.2668V12.3073H247.523C244.747 19.0859 241.358 27.3923 237.36 37.2295C233.36 47.0698 228.545 58.9063 222.912 72.7452C217.28 86.5841 214.32 93.9137 214.035 94.7282C213.747 95.5456 213.606 96.4029 213.606 97.3C213.606 98.0348 213.769 98.5675 214.096 98.8921C214.421 99.2197 214.831 99.3819 215.321 99.3819C217.525 99.3819 219.747 98.0348 221.994 95.3405C224.238 92.6462 226.157 90.1172 227.749 87.7475C229.34 85.3808 230.788 83.1366 232.095 81.0118L233.81 81.869C229.402 89.1375 225.584 94.4434 222.361 97.7899C219.135 101.139 214.993 102.811 209.933 102.811C205.525 102.811 201.892 101.341 199.036 98.4022C196.177 95.463 194.75 92.1165 194.75 88.3598C194.75 86.483 194.952 84.7685 195.362 83.2162C195.769 81.667 196.382 79.9096 197.199 77.9501L218.259 25.7788Z" fill="#FFE1FE"/>
<path d="M262.712 74.3985C262.22 75.9477 261.77 77.9654 261.362 80.4515C260.952 82.9376 260.747 84.9981 260.747 86.6269C260.747 91.195 261.381 94.4159 262.648 96.2896C263.915 98.1634 265.777 99.1033 268.228 99.1033C270.108 99.1033 271.782 98.8798 273.255 98.4328C274.724 97.9858 276.441 97.1928 278.404 96.0508C280.366 94.9119 282.432 93.2432 284.596 91.0419C286.763 88.8436 288.502 86.6851 289.809 84.5695L291.526 85.7972C288.092 90.6194 284.045 94.6669 279.386 97.9338C274.724 101.204 269.083 102.836 262.461 102.836C256.419 102.836 250.768 101.02 245.503 97.3827C240.238 93.7454 237.605 88.418 237.605 81.3914C237.605 71.5909 242.041 62.6263 250.915 54.4975C259.789 46.3718 270.237 42.3058 282.26 42.3058C287.902 42.3058 292.524 43.5917 296.121 46.1636C299.721 48.7354 301.521 51.696 301.521 55.0425C301.521 61.4935 297.753 66.3309 290.222 69.5549C282.692 72.7881 273.521 74.3985 262.712 74.3985ZM263.074 72.9289C268.786 72.2798 273.971 69.0895 278.624 63.358C283.277 57.6265 285.603 52.5656 285.603 48.1751C285.603 46.9565 285.438 46.0197 285.113 45.3706C284.786 44.7215 284.051 44.3939 282.909 44.3939C281.113 44.3939 279.316 45.3706 277.522 47.3209C275.725 49.2742 273.806 51.9961 271.767 55.4895C269.725 58.9859 267.99 62.1762 266.563 65.0634C265.137 67.9506 263.974 70.5714 263.074 72.9289Z" fill="#FFE1FE"/>
<path d="M361.273 42.2813C365.109 42.2813 368.393 43.4876 371.13 45.8941C373.864 48.3037 375.232 51.9165 375.232 56.7325C375.232 58.9369 374.782 61.2853 373.885 63.7744C372.985 66.2666 371.883 68.9395 370.579 71.7961C369.272 74.6557 366.946 79.3095 363.6 85.7574C360.251 92.2084 358.58 96.0049 358.58 97.1469C358.58 97.8021 358.742 98.292 359.069 98.6165C359.394 98.9441 359.884 99.1064 360.539 99.1064C361.353 99.1064 362.455 98.6196 363.845 97.6398C365.231 96.6631 367.129 94.8261 369.538 92.1349C371.944 89.4437 374.497 85.4053 377.191 80.0228L378.783 80.8832C375.027 87.5913 371.415 92.9279 367.946 96.8928C364.475 100.861 359.599 102.842 353.314 102.842C348.986 102.842 345.723 101.537 343.519 98.9227C341.315 96.3111 340.213 93.0871 340.213 89.2477C340.213 86.6361 340.498 84.5143 341.07 82.8794C341.639 81.2475 343.375 77.4908 346.274 71.6124C349.17 65.7339 351.557 60.9179 353.437 57.1612C355.313 53.4075 356.253 50.4683 356.253 48.3435C356.253 47.5291 356.088 46.9351 355.763 46.5677C355.436 46.2003 354.906 46.0166 354.172 46.0166C353.192 46.0166 351.946 46.6289 350.437 47.8536C348.925 49.0783 347.149 51.0347 345.111 53.729C343.069 56.4233 340.948 60.0943 338.744 64.745L320.989 101.586H297.113L317.928 55.0761C318.418 53.8515 318.987 52.486 319.643 50.9765C320.295 49.4702 320.622 48.3863 320.622 47.7342C320.622 47.1647 320.5 46.7545 320.255 46.5095C320.01 46.2646 319.643 46.1421 319.153 46.1421C318.008 46.1421 316.704 46.6534 315.235 47.6699C313.765 48.6895 312.314 50.0152 310.888 51.647C309.458 53.2789 307.906 55.3364 306.235 57.8225C304.561 60.3086 302.908 62.8988 301.276 65.59L299.684 64.8521C303.602 57.9848 307.459 52.5043 311.255 48.417C315.051 44.3265 319.722 42.2813 325.275 42.2813C329.193 42.2813 332.273 43.4876 334.519 45.9033C336.763 48.3159 337.887 51.6899 337.887 56.0253C337.887 57.9878 337.703 59.7667 337.336 61.3618C336.968 62.9569 336.662 64.2459 336.417 65.2257C340.091 57.8654 343.62 52.2012 347.009 48.2363C350.394 44.2653 355.151 42.2813 361.273 42.2813Z" fill="#FFE1FE"/>
<path d="M436.331 43.5366L434.739 47.4556H421.026L402.537 92.1563C401.964 93.5463 401.597 94.5659 401.435 95.218C401.269 95.8732 401.19 96.5254 401.19 97.1775C401.19 97.9123 401.352 98.4634 401.68 98.8308C402.004 99.1982 402.454 99.3819 403.026 99.3819C404.086 99.3819 405.331 98.9135 406.761 97.9735C408.187 97.0367 409.678 95.7691 411.23 94.177C412.779 92.585 414.392 90.6071 416.067 88.2374C417.738 85.8707 419.106 83.6663 420.169 81.6241L421.76 82.4814C417.759 89.1773 413.903 94.2383 410.189 97.6674C406.473 101.096 401.882 102.811 396.415 102.811C391.679 102.811 388.128 101.403 385.762 98.5859C383.393 95.7691 382.211 92.4013 382.211 88.4823C382.211 86.6881 382.413 85.1144 382.823 83.7673C383.23 82.4201 383.925 80.4821 384.905 77.9501L397.639 47.4556H387.109L388.701 43.5366H399.231L409.026 19.9003H432.658L422.74 43.5366H436.331Z" fill="#FFE1FE"/>
<path d="M428.25 62.1517C432.82 53.9893 436.799 48.6405 440.188 46.1085C443.574 43.5795 447.268 42.312 451.269 42.312C454.86 42.312 457.982 43.5183 460.636 45.9248C463.287 48.3343 464.616 51.9471 464.616 56.7632C464.616 58.888 464.126 61.2945 463.146 63.9888C462.167 66.683 460.82 69.806 459.106 73.3575C457.391 76.9091 455.022 81.3608 452.004 86.7065C448.983 92.0553 447.474 95.5058 447.474 97.055C447.474 97.7899 447.657 98.341 448.024 98.7084C448.392 99.0758 448.943 99.2595 449.677 99.2595C450.574 99.2595 451.759 98.7512 453.228 97.7286C454.698 96.7091 456.124 95.3405 457.514 93.6259C458.901 91.9114 460.348 89.9335 461.861 87.6863C463.37 85.442 464.616 83.4213 465.595 81.6241L467.187 82.4814C462.779 89.6672 459.084 94.8506 456.106 98.0348C453.124 101.219 448.615 102.811 442.576 102.811C438.168 102.811 434.819 101.525 432.535 98.9533C430.249 96.3815 429.107 93.1361 429.107 89.2171C429.107 86.6055 429.493 84.2572 430.27 82.1752C431.045 80.0933 432.676 76.6029 435.168 71.7042C437.657 66.8055 439.839 62.4395 441.719 58.6002C443.595 54.7639 444.82 52.1522 445.392 50.7622C445.961 49.3753 446.249 48.3557 446.249 47.7005C446.249 47.1311 446.105 46.7024 445.821 46.4146C445.533 46.1299 445.104 45.986 444.535 45.986C443.962 45.986 443.004 46.4973 441.657 47.5168C440.311 48.5394 438.553 50.3336 436.392 52.9054C434.228 55.4772 432.046 58.8053 429.842 62.8865L428.25 62.1517ZM453.228 22.3497C453.228 19.0033 454.37 16.2692 456.657 14.1444C458.94 12.0226 461.677 10.9602 464.86 10.9602C468.124 10.9602 470.9 12.0226 473.187 14.1444C475.47 16.2692 476.615 19.0033 476.615 22.3497C476.615 25.6165 475.452 28.3323 473.125 30.4938C470.799 32.6584 468.044 33.7392 464.86 33.7392C461.594 33.7392 458.839 32.6584 456.596 30.4938C454.349 28.3323 453.228 25.6165 453.228 22.3497Z" fill="#FFE1FE"/>
<path d="M532.817 42.2813C536.652 42.2813 539.937 43.4876 542.673 45.8941C545.407 48.3037 546.775 51.9165 546.775 56.7325C546.775 58.9369 546.325 61.2853 545.428 63.7744C544.528 66.2666 543.426 68.9395 542.122 71.7961C540.815 74.6557 538.489 79.3095 535.143 85.7574C531.794 92.2084 530.123 96.0049 530.123 97.1469C530.123 97.8021 530.285 98.292 530.613 98.6165C530.937 98.9441 531.427 99.1064 532.082 99.1064C532.896 99.1064 533.998 98.6196 535.388 97.6398C536.775 96.6631 538.672 94.8261 541.082 92.1349C543.488 89.4437 546.041 85.4053 548.734 80.0228L550.326 80.8832C546.57 87.5913 542.958 92.9279 539.49 96.8928C536.019 100.861 531.142 102.842 524.858 102.842C520.529 102.842 517.266 101.537 515.062 98.9227C512.858 96.3111 511.756 93.0871 511.756 89.2477C511.756 86.6361 512.041 84.5143 512.613 82.8794C513.183 81.2475 514.918 77.4908 517.817 71.6124C520.713 65.7339 523.101 60.9179 524.98 57.1612C526.857 53.4075 527.796 50.4683 527.796 48.3435C527.796 47.5291 527.631 46.9351 527.307 46.5677C526.979 46.2003 526.45 46.0166 525.715 46.0166C524.735 46.0166 523.489 46.6289 521.98 47.8536C520.468 49.0783 518.693 51.0347 516.654 53.729C514.612 56.4233 512.491 60.0943 510.287 64.745L492.533 101.586H468.656L489.472 55.0761C489.961 53.8515 490.531 52.486 491.186 50.9765C491.838 49.4702 492.165 48.3863 492.165 47.7342C492.165 47.1647 492.043 46.7545 491.798 46.5095C491.553 46.2646 491.186 46.1421 490.696 46.1421C489.551 46.1421 488.247 46.6534 486.778 47.6699C485.309 48.6895 483.858 50.0152 482.431 51.647C481.002 53.2789 479.45 55.3364 477.778 57.8225C476.104 60.3086 474.451 62.8988 472.819 65.59L471.228 64.8521C475.146 57.9848 479.003 52.5043 482.798 48.417C486.594 44.3265 491.265 42.2813 496.818 42.2813C500.736 42.2813 503.816 43.4876 506.063 45.9033C508.306 48.3159 509.43 51.6899 509.43 56.0253C509.43 57.9878 509.246 59.7667 508.879 61.3618C508.512 62.9569 508.206 64.2459 507.961 65.2257C511.634 57.8654 515.163 52.2012 518.552 48.2363C521.938 44.2653 526.694 42.2813 532.817 42.2813Z" fill="#FFE1FE"/>
<path d="M578.614 74.3985C578.121 75.9477 577.674 77.9654 577.264 80.4515C576.853 82.9376 576.648 84.9981 576.648 86.6269C576.648 91.195 577.282 94.4159 578.549 96.2896C579.817 98.1634 581.678 99.1033 584.13 99.1033C586.009 99.1033 587.684 98.8798 589.156 98.4328C590.628 97.9858 592.342 97.1928 594.305 96.0508C596.267 94.9119 598.333 93.2432 600.497 91.0419C602.661 88.8436 604.403 86.6851 605.71 84.5695L607.428 85.7972C603.993 90.6194 599.946 94.6669 595.287 97.9338C590.628 101.204 584.984 102.836 578.363 102.836C572.32 102.836 566.669 101.02 561.404 97.3827C556.139 93.7454 553.506 88.418 553.506 81.3914C553.506 71.5909 557.942 62.6263 566.816 54.4975C575.69 46.3718 586.138 42.3058 598.162 42.3058C603.803 42.3058 608.422 43.5917 612.022 46.1636C615.622 48.7354 617.422 51.696 617.422 55.0425C617.422 61.4935 613.654 66.3309 606.124 69.5549C598.59 72.7881 589.422 74.3985 578.614 74.3985ZM578.975 72.9289C584.687 72.2798 589.872 69.0895 594.525 63.358C599.178 57.6265 601.504 52.5656 601.504 48.1751C601.504 46.9565 601.339 46.0197 601.015 45.3706C600.687 44.7215 599.952 44.3939 598.811 44.3939C597.014 44.3939 595.217 45.3706 593.423 47.3209C591.626 49.2742 589.707 51.9961 587.668 55.4895C585.626 58.9859 583.891 62.1762 582.464 65.0634C581.035 67.9506 579.875 70.5714 578.975 72.9289Z" fill="#FFE1FE"/>
<path d="M629.789 46.9656C634.766 46.9656 639.339 45.5389 643.503 42.6792C647.666 39.8227 649.747 36.9661 649.747 34.1065C649.747 32.9645 649.42 32.3919 648.768 32.3919C646.564 32.9645 645.174 33.2492 644.604 33.2492C641.99 33.2492 639.747 32.3123 637.87 30.4325C635.991 28.5556 635.054 26.391 635.054 23.9417C635.054 20.6779 636.113 17.7999 638.237 15.3077C640.359 12.8185 643.258 11.5724 646.931 11.5724C650.466 11.5724 653.454 12.8185 655.888 15.3077C658.324 17.7999 659.543 20.7575 659.543 24.1866C659.543 30.8825 656.665 36.6783 650.91 41.577C645.155 46.4757 638.115 48.9251 629.789 48.9251V46.9656Z" fill="#FFE1FE"/>
<path d="M680.306 42.3119C685.461 42.3119 689.86 43.5979 693.502 46.1697C697.145 48.7415 698.966 51.9471 698.966 55.7834C698.966 58.643 698.082 61.0709 696.315 63.0702C694.546 65.0726 692.308 66.0707 689.599 66.0707C687.215 66.0707 684.999 65.1338 682.945 63.2539C680.891 61.3771 679.865 59.1329 679.865 56.5182C679.865 55.0486 680.251 53.7229 681.028 52.538C681.803 51.3562 682.66 50.5173 683.6 50.0274C684.536 49.5375 685.721 49.1518 687.15 48.864C688.577 48.5792 689.293 48.0281 689.293 47.2107C689.293 46.4758 688.62 45.7839 687.273 45.1287C685.926 44.4766 684.068 44.149 681.702 44.149C678.436 44.149 675.742 44.9481 673.62 46.5432C671.496 48.1383 670.437 50.205 670.437 52.7401C670.437 54.7057 670.804 56.261 671.542 57.4061C672.277 58.5512 673.587 59.981 675.466 61.7017L685.274 70.2928C687.481 72.341 689.116 74.4261 690.181 76.5539C691.243 78.6818 691.776 81.1342 691.776 83.9142C691.776 89.9703 688.95 94.673 683.303 98.0287C677.652 101.384 671.389 103.059 664.514 103.059C658.373 103.059 652.824 101.479 647.871 98.3226C642.918 95.166 640.441 91.0419 640.441 85.9564C640.441 83.2499 641.366 80.9352 643.215 79.0063C645.064 77.0805 647.424 76.1161 650.298 76.1161C652.68 76.1161 654.899 77.0959 656.953 79.0553C659.007 81.0148 660.032 83.3019 660.032 85.9135C660.032 87.7934 659.5 89.4253 658.441 90.8122C657.378 92.2023 656.194 93.0381 654.89 93.3228C653.583 93.6106 652.502 93.8556 651.645 94.0576C650.788 94.2628 650.359 94.7312 650.359 95.466C650.359 96.6356 651.48 97.8664 653.726 99.1584C655.97 100.45 658.643 101.1 661.747 101.1C664.52 101.1 666.929 100.322 668.971 98.7696C671.009 97.2143 672.032 95.2119 672.032 92.7564C672.032 90.6285 671.664 88.9936 670.93 87.8485C670.195 86.7034 669.072 85.4573 667.563 84.1071C666.05 82.7569 664.174 81.0975 661.93 79.1349C659.683 77.1724 657.969 75.4732 656.788 74.0433C655.603 72.6135 654.685 71.1776 654.033 69.7478C653.378 68.318 653.053 66.4565 653.053 64.1633C653.053 58.6828 655.529 53.6708 660.479 49.1303C665.429 44.5837 672.041 42.3119 680.306 42.3119Z" fill="#FFE1FE"/>
<path d="M538.137 196.475C538.137 205.131 536.258 212.929 532.505 219.866C528.749 226.807 523.606 232.441 517.077 236.767C510.545 241.096 503.158 244.176 494.915 246.013C486.668 247.85 477.2 248.769 466.508 248.769L413 248.524V246.564L419.734 246.075C422.753 245.75 424.978 244.789 426.408 243.197C427.834 241.605 429.775 238.013 432.224 232.419C434.672 226.829 437.55 219.949 440.856 211.784C444.162 203.621 446.752 197.13 448.631 192.311C450.507 187.495 452.568 182.208 454.814 176.452C457.058 170.696 458.182 167.043 458.182 165.491C458.182 163.697 457.282 162.533 455.488 162C453.691 161.471 450.1 161.204 444.713 161.204V159.245L492.343 159C508.423 159 520.077 162.757 527.301 170.267C534.525 177.78 538.137 186.515 538.137 196.475ZM509.73 178.35C509.73 173.861 508.69 170.065 506.608 166.96C504.527 163.859 502.323 162.166 499.996 161.878C497.67 161.593 495.934 161.431 494.792 161.388C493.647 161.348 492.545 161.327 491.486 161.327C490.507 163.614 487.323 171.29 481.936 184.351C476.548 197.415 471.161 210.602 465.773 223.908C460.386 237.217 457.364 244.727 456.712 246.442H467.487C478.342 246.442 488.098 238.769 496.751 223.418C505.402 208.07 509.73 193.046 509.73 178.35Z" fill="#FFE1FE"/>
<path d="M617.236 190.474L596.053 237.012C595.808 237.502 595.398 238.564 594.829 240.196C594.256 241.831 593.971 242.851 593.971 243.258C593.971 243.913 594.112 244.421 594.4 244.789C594.685 245.156 595.113 245.34 595.686 245.34C596.827 245.34 598.419 244.525 600.461 242.89C602.5 241.259 604.685 238.953 607.012 235.971C609.338 232.992 611.438 229.664 613.318 225.99L614.909 226.725C612.623 230.971 610.275 234.746 607.869 238.053C605.46 241.36 602.46 244.137 598.869 246.381C595.276 248.625 590.95 249.749 585.89 249.749C581.807 249.749 578.746 248.625 576.707 246.381C574.665 244.137 573.646 240.769 573.646 236.277C570.462 241.014 567.42 244.443 564.524 246.564C561.625 248.686 557.89 249.749 553.32 249.749C548.422 249.749 544.4 248.178 541.26 245.034C538.116 241.892 536.545 237.79 536.545 232.726C536.545 223.094 540.972 213.437 549.831 203.762C558.686 194.087 568.503 189.25 579.278 189.25C581.807 189.25 584.093 189.862 586.135 191.087C588.174 192.311 589.196 194.231 589.196 196.843L588.829 199.782L593.114 190.474H617.236ZM587.604 197.087C587.604 195.783 587.338 194.822 586.809 194.209C586.276 193.597 585.44 193.291 584.298 193.291C582.746 193.291 580.971 194.516 578.972 196.965C576.97 199.414 574.381 203.701 571.197 209.824C568.013 215.948 564.83 222.726 561.646 230.154C558.463 237.585 556.871 242.401 556.871 244.605C556.871 245.34 557.033 245.912 557.361 246.32C557.685 246.73 558.175 246.932 558.83 246.932C561.359 246.932 563.768 245.689 566.054 243.197C568.338 240.707 570.095 238.586 571.319 236.828C572.544 235.074 574.154 232.095 576.156 227.888C578.155 223.684 580.564 218.274 583.38 211.661C586.196 205.048 587.604 200.192 587.604 197.087Z" fill="#FFE1FE"/>
<path d="M628.011 276.936C622.868 276.936 618.583 275.546 615.154 272.773C611.726 269.996 610.011 266.729 610.011 262.975C610.011 260.036 611.113 257.421 613.317 255.137C615.521 252.85 618.5 251.708 622.256 251.708C625.357 251.708 628.029 252.706 630.276 254.709C632.52 256.708 633.643 259.179 633.643 262.118C633.643 266.527 631.519 269.343 627.276 270.568C625.152 270.893 623.643 271.119 622.746 271.242C621.846 271.364 621.399 271.872 621.399 272.773C621.399 273.507 621.827 274.058 622.687 274.426C623.545 274.793 624.833 274.977 626.547 274.977C630.796 274.977 634.678 273.103 638.192 269.356C641.703 265.605 644.709 261.285 647.201 256.399C649.692 251.506 652.983 244.336 657.07 234.881L656.702 234.759C653.595 239.605 650.344 243.322 646.95 245.909C643.555 248.496 639.487 249.788 634.742 249.788C630.986 249.788 627.72 248.622 624.947 246.292C622.17 243.962 620.783 240.38 620.783 235.552C620.783 233.344 621.313 230.806 622.375 227.94C623.434 225.077 624.64 222.212 625.987 219.349C627.334 216.486 629.639 212.025 632.905 205.973C636.168 199.916 637.803 196.316 637.803 195.171C637.803 194.519 637.638 194.029 637.313 193.701C636.986 193.377 636.496 193.211 635.844 193.211C633.802 193.211 631.659 194.601 629.416 197.378C627.169 200.158 625.191 202.871 623.477 205.529C621.763 208.186 620.416 210.326 619.437 211.961L617.845 211.223C622.415 203.682 626.293 198.128 629.477 194.562C632.66 190.995 637.191 189.21 643.068 189.21C647.311 189.21 650.537 190.539 652.741 193.199C654.945 195.86 656.047 199.068 656.047 202.831C656.047 205.697 655.72 208.027 655.068 209.827C654.413 211.627 653.271 214.245 651.639 217.684C650.005 221.122 647.617 225.846 644.476 231.859C641.333 237.872 639.762 241.822 639.762 243.702C639.762 244.519 639.946 245.135 640.313 245.545C640.681 245.955 641.232 246.157 641.966 246.157C642.863 246.157 643.925 245.79 645.15 245.052C646.374 244.317 647.7 243.233 649.129 241.804C650.556 240.374 652.086 238.494 653.721 236.164C655.352 233.834 657.045 230.849 658.802 227.211C660.556 223.571 663.106 217.91 666.455 210.222C669.801 202.537 671.821 197.773 672.516 195.933C673.208 194.093 673.924 192.275 674.659 190.477H698.535C697.39 193.254 695.737 197.335 693.576 202.724C691.412 208.113 689.186 213.544 686.903 219.012C684.616 224.484 681.127 232.423 676.434 242.832C671.738 253.242 665.393 261.527 657.394 267.693C649.395 273.853 639.6 276.936 628.011 276.936Z" fill="#FFE1FE"/>
</g>
<defs>
<filter id="filter0_d_4_41" x="0.843079" y="0.960205" width="708.123" height="285.976" filterUnits="userSpaceOnUse" color-interpolation-filters="sRGB">
<feFlood flood-opacity="0" result="BackgroundImageFix"/>
<feColorMatrix in="SourceAlpha" type="matrix" values="0 0 0 0 0 0 0 0 0 0 0 0 0 0 0 0 0 0 127 0" result="hardAlpha"/>
<feOffset/>
<feGaussianBlur stdDeviation="5"/>
<feComposite in2="hardAlpha" operator="out"/>
<feColorMatrix type="matrix" values="0 0 0 0 0.729412 0 0 0 0 0.309804 0 0 0 0 0.839216 0 0 0 1 0"/>
<feBlend mode="normal" in2="BackgroundImageFix" result="effect1_dropShadow_4_41"/>
<feBlend mode="normal" in="SourceGraphic" in2="effect1_dropShadow_4_41" result="shape"/>
</filter>
</defs>
</svg>
