<svg width="418" height="211" viewBox="0 0 418 211" fill="none" xmlns="http://www.w3.org/2000/svg">
<g filter="url(#filter0_d_14_298)">
<path d="M50.7212 24.1336C49.2092 26.3123 46.8615 29.8865 43.6747 34.8581C40.4878 39.8298 37.1823 45.0393 33.7599 50.4833C30.3358 55.929 27.7509 60.0483 26.0052 62.8413H17.861V19.9433L17.7193 16.5341C17.5777 15.0196 17.259 13.9666 16.7633 13.3736C16.2675 12.7823 15.2867 12.3917 13.8242 12.2017L10 11.9176V10.7813H42.8602V11.9176L39.036 12.1307C37.5718 12.2727 36.5927 12.6172 36.097 13.1605C35.6012 13.7056 35.2825 14.7834 35.1409 16.3921L34.9993 19.8012V45.6537C36.0846 43.9971 37.701 41.4882 39.8504 38.1252C41.998 34.764 44.0872 31.5449 46.1179 28.466C48.1469 25.389 50.2254 22.406 52.35 19.5171C54.4746 16.63 56.716 14.3218 59.0779 12.5923C61.4379 10.8647 64.3893 10 67.9303 10C70.8091 10 73.2878 10.8292 75.3663 12.4858C77.4431 14.1442 78.4824 16.3921 78.4824 19.233C78.4824 22.1219 77.6202 24.5243 75.8975 26.4419C74.173 28.3595 71.9192 29.3183 69.1342 29.3183C66.5847 29.3183 64.3769 28.6081 62.5126 27.1876C60.6465 25.7672 59.7153 23.8265 59.7153 21.3637C59.7153 20.3694 59.8215 19.5526 60.0339 18.9134C60.2464 18.2742 60.5403 17.6599 60.9192 17.0668C61.2963 16.4755 61.8044 15.8133 62.4418 15.0782C63.0792 14.3448 63.3979 13.7642 63.3979 13.3381C63.3979 12.9599 63.1376 12.7699 62.6188 12.7699C62.0983 12.7699 61.5566 12.8889 60.99 13.125C60.4234 13.363 59.6551 13.8832 58.6884 14.6875C57.7199 15.4936 56.6452 16.5697 55.4661 17.9191C54.2852 19.2685 52.7041 21.3406 50.7212 24.1336Z" fill="#FFE1FE"/>
<path d="M116.087 28.8922L103.836 55.881C103.694 56.1651 103.457 56.7812 103.128 57.7276C102.796 58.6758 102.632 59.2671 102.632 59.5032C102.632 59.8832 102.713 60.1779 102.88 60.391C103.044 60.6041 103.292 60.7106 103.623 60.7106C104.284 60.7106 105.204 60.2383 106.385 59.2901C107.564 58.3438 108.829 57.0067 110.174 55.2773C111.52 53.5497 112.734 51.6196 113.821 49.4889L114.742 49.9151C113.419 52.3778 112.061 54.5671 110.67 56.4847C109.276 58.4023 107.541 60.0128 105.465 61.3143C103.386 62.6158 100.884 63.2674 97.9577 63.2674C95.5959 63.2674 93.8254 62.6158 92.6463 61.3143C91.4653 60.0128 90.8758 58.0597 90.8758 55.4549C89.0345 58.2017 87.2746 60.1904 85.5997 61.4208C83.9231 62.6513 81.7631 63.2674 79.1197 63.2674C76.287 63.2674 73.9605 62.3566 72.144 60.533C70.3257 58.7113 69.4175 56.332 69.4175 53.3952C69.4175 47.8092 71.9776 42.209 77.1014 36.5982C82.2234 30.9874 87.9014 28.1819 94.1335 28.1819C95.5959 28.1819 96.9184 28.5371 98.0994 29.2473C99.2785 29.9575 99.8698 31.0708 99.8698 32.5854L99.6574 34.2899L102.136 28.8922H116.087ZM98.9492 32.7274C98.9492 31.971 98.7952 31.4135 98.4889 31.0584C98.1808 30.7033 97.6975 30.5257 97.0371 30.5257C96.1394 30.5257 95.1125 31.2359 93.9564 32.6564C92.7985 34.0769 91.3007 36.5627 89.4594 40.1139C87.6181 43.665 85.7768 47.5962 83.9355 51.9037C82.0942 56.2131 81.1735 59.006 81.1735 60.2845C81.1735 60.7106 81.2673 61.0426 81.4568 61.2788C81.6445 61.5167 81.9277 61.6339 82.3066 61.6339C83.769 61.6339 85.1624 60.913 86.485 59.4677C87.8057 58.0241 88.822 56.7937 89.5302 55.7745C90.2384 54.7571 91.1697 53.0294 92.3276 50.5898C93.4837 48.1519 94.8771 45.0145 96.5059 41.1792C98.1348 37.3439 98.9492 34.5279 98.9492 32.7274Z" fill="#FFE1FE"/>
<path d="M129.966 18.5937C130.533 17.1733 130.923 16.1328 131.135 15.4687C131.347 14.8064 131.454 14.2151 131.454 13.6931C131.454 12.9367 131.064 12.4502 130.285 12.2372C129.506 12.0241 128.077 11.9175 126.001 11.9175V10.7812H146.892C145.286 14.7123 143.327 19.5295 141.014 25.2344C138.7 30.9411 135.915 37.8055 132.658 45.8312C129.4 53.8568 127.688 58.1075 127.523 58.5798C127.357 59.0539 127.275 59.5511 127.275 60.0713C127.275 60.4975 127.369 60.8064 127.559 60.9946C127.746 61.1846 127.984 61.2787 128.267 61.2787C129.542 61.2787 130.827 60.4975 132.126 58.935C133.424 57.3724 134.534 55.9058 135.455 54.5315C136.376 53.159 137.213 51.8575 137.969 50.6252L138.961 51.1224C136.411 55.3376 134.203 58.4147 132.339 60.3554C130.473 62.2979 128.077 63.2674 125.151 63.2674C122.601 63.2674 120.5 62.4151 118.848 60.7105C117.194 59.006 116.369 57.0653 116.369 54.8866C116.369 53.7982 116.486 52.8039 116.723 51.9036C116.959 51.0052 117.313 49.986 117.786 48.8496L129.966 18.5937Z" fill="#FFE1FE"/>
<path d="M155.677 46.79C155.392 47.6885 155.132 48.8586 154.897 50.3004C154.659 51.7421 154.541 52.9371 154.541 53.8817C154.541 56.5309 154.907 58.3988 155.64 59.4854C156.373 60.5721 157.45 61.1172 158.868 61.1172C159.955 61.1172 160.923 60.9876 161.775 60.7283C162.625 60.4691 163.618 60.0092 164.753 59.3469C165.888 58.6864 167.083 57.7187 168.334 56.4421C169.588 55.1672 170.594 53.9154 171.35 52.6885L172.343 53.4005C170.356 56.1971 168.016 58.5444 165.321 60.4389C162.625 62.3353 159.362 63.2816 155.532 63.2816C152.037 63.2816 148.769 62.2287 145.724 60.1193C142.678 58.0099 141.156 54.9204 141.156 50.8455C141.156 45.1618 143.721 39.9629 148.854 35.2488C153.986 30.5364 160.029 28.1784 166.984 28.1784C170.247 28.1784 172.92 28.9241 175 30.4156C177.082 31.9071 178.124 33.6241 178.124 35.5648C178.124 39.306 175.944 42.1114 171.589 43.9811C167.233 45.8561 161.929 46.79 155.677 46.79ZM155.886 45.9378C159.19 45.5613 162.189 43.7112 164.88 40.3873C167.571 37.0634 168.917 34.1284 168.917 31.5822C168.917 30.8755 168.821 30.3322 168.634 29.9557C168.444 29.5793 168.019 29.3893 167.359 29.3893C166.32 29.3893 165.28 29.9557 164.243 31.0868C163.204 32.2196 162.094 33.7981 160.914 35.824C159.733 37.8518 158.73 39.7019 157.905 41.3763C157.08 43.0507 156.407 44.5706 155.886 45.9378Z" fill="#FFE1FE"/>
<path d="M212.684 28.1642C214.902 28.1642 216.802 28.8638 218.385 30.2594C219.966 31.6568 220.757 33.7519 220.757 36.5449C220.757 37.8233 220.497 39.1852 219.978 40.6288C219.458 42.0741 218.82 43.6242 218.066 45.2808C217.31 46.9392 215.964 49.6381 214.029 53.3774C212.092 57.1186 211.126 59.3203 211.126 59.9826C211.126 60.3626 211.219 60.6467 211.409 60.8349C211.597 61.0249 211.88 61.119 212.259 61.119C212.73 61.119 213.367 60.8367 214.171 60.2685C214.973 59.7021 216.071 58.6367 217.464 57.076C218.856 55.5152 220.332 53.1733 221.89 50.0518L222.811 50.5507C220.638 54.441 218.549 57.5359 216.543 59.8352C214.536 62.1364 211.715 63.2852 208.08 63.2852C205.577 63.2852 203.69 62.5288 202.415 61.0124C201.14 59.4979 200.503 57.6282 200.503 55.4016C200.503 53.887 200.667 52.6566 200.998 51.7084C201.328 50.762 202.332 48.5834 204.008 45.1743C205.683 41.7651 207.064 38.9722 208.151 36.7935C209.236 34.6166 209.78 32.9121 209.78 31.6798C209.78 31.2075 209.684 30.8631 209.497 30.65C209.307 30.4369 209.001 30.3304 208.576 30.3304C208.01 30.3304 207.289 30.6855 206.416 31.3957C205.541 32.106 204.515 33.2406 203.335 34.8031C202.155 36.3656 200.928 38.4945 199.653 41.1916L189.384 62.5572H175.574L187.614 35.5843C187.897 34.8741 188.226 34.0822 188.605 33.2068C188.982 32.3333 189.172 31.7047 189.172 31.3265C189.172 30.9962 189.101 30.7583 188.959 30.6163C188.817 30.4742 188.605 30.4032 188.322 30.4032C187.66 30.4032 186.905 30.6997 186.056 31.2892C185.206 31.8805 184.366 32.6493 183.541 33.5957C182.715 34.5421 181.817 35.7353 180.85 37.177C179.882 38.6188 178.926 40.121 177.982 41.6817L177.061 41.2538C179.328 37.2711 181.558 34.0929 183.754 31.7225C185.949 29.3503 188.651 28.1642 191.863 28.1642C194.129 28.1642 195.91 28.8638 197.21 30.2647C198.507 31.6639 199.157 33.6205 199.157 36.1348C199.157 37.2729 199.051 38.3045 198.838 39.2296C198.626 40.1547 198.449 40.9022 198.307 41.4704C200.432 37.2019 202.473 33.9171 204.433 31.6177C206.391 29.3148 209.143 28.1642 212.684 28.1642Z" fill="#FFE1FE"/>
<path d="M256.096 28.8922L255.175 31.1649H247.243L236.549 57.0884C236.218 57.8945 236.006 58.4858 235.912 58.864C235.817 59.244 235.77 59.6222 235.77 60.0004C235.77 60.4265 235.864 60.7461 236.054 60.9592C236.241 61.1723 236.502 61.2788 236.833 61.2788C237.445 61.2788 238.166 61.0071 238.993 60.462C239.818 59.9187 240.68 59.1836 241.578 58.2603C242.474 57.337 243.407 56.19 244.375 54.8157C245.342 53.4431 246.133 52.1647 246.747 50.9804L247.668 51.4776C245.354 55.3608 243.123 58.2958 240.976 60.2845C238.826 62.2731 236.171 63.2674 233.009 63.2674C230.27 63.2674 228.216 62.4507 226.847 60.8171C225.477 59.1836 224.793 57.2305 224.793 54.9577C224.793 53.9172 224.91 53.0046 225.148 52.2233C225.383 51.4421 225.785 50.3181 226.351 48.8497L233.717 31.1649H227.626L228.547 28.8922H234.637L240.303 15.1847H253.971L248.235 28.8922H256.096Z" fill="#FFE1FE"/>
<path d="M251.422 39.6877C254.065 34.954 256.367 31.8521 258.327 30.3837C260.285 28.917 262.422 28.182 264.736 28.182C266.813 28.182 268.619 28.8815 270.154 30.2771C271.687 31.6745 272.455 33.7697 272.455 36.5627C272.455 37.795 272.172 39.1906 271.605 40.7531C271.039 42.3156 270.26 44.1267 269.268 46.1864C268.277 48.246 266.907 50.8277 265.161 53.9279C263.413 57.0298 262.541 59.0309 262.541 59.9294C262.541 60.3555 262.647 60.6751 262.859 60.8882C263.072 61.1012 263.39 61.2078 263.815 61.2078C264.334 61.2078 265.019 60.913 265.869 60.32C266.719 59.7287 267.544 58.935 268.348 57.9407C269.15 56.9464 269.987 55.7994 270.862 54.4961C271.735 53.1946 272.455 52.0227 273.022 50.9804L273.942 51.4776C271.393 55.6449 269.256 58.6509 267.533 60.4975C265.809 62.3441 263.201 63.2674 259.708 63.2674C257.158 63.2674 255.221 62.5217 253.901 61.0302C252.578 59.5387 251.918 57.6566 251.918 55.3839C251.918 53.8693 252.141 52.5074 252.59 51.3C253.038 50.0926 253.982 48.0685 255.423 45.2275C256.863 42.3866 258.125 39.8546 259.212 37.628C260.297 35.4032 261.006 33.8887 261.337 33.0826C261.666 32.2782 261.832 31.687 261.832 31.307C261.832 30.9767 261.749 30.7281 261.584 30.5612C261.418 30.3961 261.17 30.3127 260.841 30.3127C260.51 30.3127 259.956 30.6092 259.177 31.2004C258.398 31.7935 257.381 32.834 256.131 34.3255C254.88 35.817 253.617 37.747 252.343 40.1139L251.422 39.6877ZM265.869 16.6052C265.869 14.6645 266.529 13.0789 267.852 11.8466C269.173 10.6161 270.756 10 272.597 10C274.484 10 276.09 10.6161 277.413 11.8466C278.733 13.0789 279.396 14.6645 279.396 16.6052C279.396 18.4997 278.723 20.0746 277.377 21.3282C276.032 22.5835 274.438 23.2103 272.597 23.2103C270.708 23.2103 269.114 22.5835 267.817 21.3282C266.517 20.0746 265.869 18.4997 265.869 16.6052Z" fill="#FFE1FE"/>
<path d="M311.901 28.1642C314.12 28.1642 316.02 28.8638 317.602 30.2594C319.183 31.6568 319.975 33.7519 319.975 36.5449C319.975 37.8233 319.715 39.1852 319.196 40.6288C318.675 42.0741 318.038 43.6242 317.284 45.2808C316.528 46.9392 315.182 49.6381 313.247 53.3774C311.31 57.1186 310.343 59.3203 310.343 59.9826C310.343 60.3626 310.437 60.6467 310.627 60.8349C310.814 61.0249 311.098 61.119 311.476 61.119C311.947 61.119 312.585 60.8367 313.389 60.2685C314.191 59.7021 315.288 58.6367 316.682 57.076C318.073 55.5152 319.55 53.1733 321.108 50.0518L322.029 50.5507C319.856 54.441 317.767 57.5359 315.761 59.8352C313.753 62.1364 310.933 63.2852 307.298 63.2852C304.795 63.2852 302.907 62.5288 301.633 61.0124C300.358 59.4979 299.72 57.6282 299.72 55.4016C299.72 53.887 299.885 52.6566 300.216 51.7084C300.545 50.762 301.549 48.5834 303.226 45.1743C304.901 41.7651 306.282 38.9722 307.369 36.7935C308.454 34.6166 308.998 32.9121 308.998 31.6798C308.998 31.2075 308.902 30.8631 308.715 30.65C308.525 30.4369 308.219 30.3304 307.794 30.3304C307.227 30.3304 306.507 30.6855 305.634 31.3957C304.759 32.106 303.732 33.2406 302.553 34.8031C301.372 36.3656 300.145 38.4945 298.871 41.1916L288.602 62.5572H274.792L286.831 35.5843C287.115 34.8741 287.444 34.0822 287.823 33.2068C288.2 32.3333 288.389 31.7047 288.389 31.3265C288.389 30.9962 288.319 30.7583 288.177 30.6163C288.035 30.4742 287.823 30.4032 287.539 30.4032C286.877 30.4032 286.123 30.6997 285.273 31.2892C284.423 31.8805 283.584 32.6493 282.759 33.5957C281.932 34.5421 281.035 35.7353 280.068 37.177C279.1 38.6188 278.144 40.121 277.2 41.6817L276.279 41.2538C278.545 37.2711 280.776 34.0929 282.972 31.7225C285.167 29.3503 287.869 28.1642 291.08 28.1642C293.347 28.1642 295.128 28.8638 296.427 30.2647C297.725 31.6639 298.375 33.6205 298.375 36.1348C298.375 37.2729 298.269 38.3045 298.056 39.2296C297.844 40.1547 297.667 40.9022 297.525 41.4704C299.65 37.2019 301.691 33.9171 303.651 31.6177C305.609 29.3148 308.36 28.1642 311.901 28.1642Z" fill="#FFE1FE"/>
<path d="M338.39 46.79C338.105 47.6885 337.846 48.8586 337.609 50.3004C337.372 51.7421 337.253 52.9371 337.253 53.8817C337.253 56.5309 337.62 58.3988 338.353 59.4854C339.086 60.5721 340.162 61.1172 341.58 61.1172C342.667 61.1172 343.636 60.9876 344.487 60.7283C345.339 60.4691 346.33 60.0092 347.465 59.3469C348.6 58.6864 349.795 57.7187 351.047 56.4421C352.299 55.1672 353.306 53.9154 354.062 52.6885L355.055 53.4005C353.069 56.1971 350.728 58.5444 348.034 60.4389C345.339 62.3353 342.074 63.2816 338.245 63.2816C334.75 63.2816 331.481 62.2287 328.436 60.1193C325.391 58.0099 323.868 54.9204 323.868 50.8455C323.868 45.1618 326.434 39.9629 331.566 35.2488C336.699 30.5364 342.742 28.1784 349.696 28.1784C352.959 28.1784 355.631 28.9241 357.713 30.4156C359.795 31.9071 360.836 33.6241 360.836 35.5648C360.836 39.306 358.656 42.1114 354.301 43.9811C349.944 45.8561 344.641 46.79 338.39 46.79ZM338.599 45.9378C341.902 45.5613 344.902 43.7112 347.593 40.3873C350.284 37.0634 351.629 34.1284 351.629 31.5822C351.629 30.8755 351.534 30.3322 351.346 29.9557C351.157 29.5793 350.732 29.3893 350.071 29.3893C349.032 29.3893 347.993 29.9557 346.955 31.0868C345.916 32.2196 344.806 33.7981 343.627 35.824C342.446 37.8518 341.442 39.7019 340.617 41.3763C339.79 43.0507 339.119 44.5706 338.599 45.9378Z" fill="#FFE1FE"/>
<path d="M367.989 30.8807C370.868 30.8807 373.513 30.0533 375.921 28.3949C378.328 26.7383 379.532 25.0817 379.532 23.4233C379.532 22.761 379.343 22.429 378.966 22.429C377.691 22.761 376.887 22.9261 376.558 22.9261C375.046 22.9261 373.748 22.3828 372.663 21.2926C371.576 20.2042 371.034 18.9488 371.034 17.5284C371.034 15.6356 371.647 13.9665 372.875 12.5212C374.102 11.0777 375.779 10.355 377.903 10.355C379.948 10.355 381.676 11.0777 383.084 12.5212C384.493 13.9665 385.198 15.6818 385.198 17.6704C385.198 21.5536 383.534 24.9148 380.205 27.7557C376.877 30.5966 372.804 32.0171 367.989 32.0171V30.8807Z" fill="#FFE1FE"/>
<path d="M397.207 28.1819C400.188 28.1819 402.733 28.9277 404.839 30.4192C406.946 31.9107 408 33.7697 408 35.9945C408 37.6529 407.488 39.0609 406.467 40.2204C405.443 41.3816 404.149 41.9605 402.582 41.9605C401.203 41.9605 399.921 41.4171 398.733 40.3269C397.545 39.2385 396.952 37.937 396.952 36.4206C396.952 35.5684 397.175 34.7995 397.625 34.1124C398.073 33.427 398.568 32.9405 399.112 32.6564C399.654 32.3723 400.339 32.1486 401.166 31.9817C401.991 31.8166 402.405 31.497 402.405 31.0229C402.405 30.5967 402.016 30.1955 401.237 29.8155C400.458 29.4373 399.383 29.2473 398.014 29.2473C396.125 29.2473 394.567 29.7107 393.34 30.6358C392.111 31.5609 391.499 32.7594 391.499 34.2296C391.499 35.3695 391.711 36.2715 392.138 36.9356C392.563 37.5996 393.321 38.4288 394.408 39.4267L400.08 44.409C401.357 45.5969 402.302 46.806 402.919 48.0401C403.533 49.2741 403.841 50.6963 403.841 52.3085C403.841 55.8206 402.207 58.5479 398.94 60.494C395.672 62.44 392.05 63.4113 388.073 63.4113C384.521 63.4113 381.312 62.4951 378.447 60.6644C375.582 58.8338 374.15 56.4421 374.15 53.4929C374.15 51.9232 374.685 50.5809 375.754 49.4623C376.823 48.3454 378.188 47.7861 379.851 47.7861C381.228 47.7861 382.512 48.3543 383.7 49.4907C384.888 50.6271 385.481 51.9534 385.481 53.468C385.481 54.5582 385.173 55.5046 384.56 56.3089C383.946 57.115 383.261 57.5998 382.507 57.7649C381.751 57.9318 381.126 58.0739 380.63 58.1911C380.134 58.31 379.886 58.5817 379.886 59.0078C379.886 59.6861 380.534 60.3999 381.834 61.1492C383.132 61.8985 384.677 62.2749 386.472 62.2749C388.077 62.2749 389.47 61.8239 390.651 60.9237C391.83 60.0217 392.421 58.8604 392.421 57.4364C392.421 56.2024 392.209 55.2542 391.784 54.5902C391.359 53.9261 390.709 53.2034 389.836 52.4204C388.962 51.6374 387.876 50.675 386.579 49.5369C385.279 48.3987 384.288 47.4133 383.604 46.5841C382.919 45.7549 382.388 44.9221 382.011 44.0929C381.632 43.2637 381.444 42.1842 381.444 40.8543C381.444 37.676 382.877 34.7694 385.739 32.1362C388.602 29.4994 392.427 28.1819 397.207 28.1819Z" fill="#FFE1FE"/>
<path d="M335.835 123.79L317.114 165.032C316.897 165.467 316.535 166.408 316.032 167.854C315.526 169.303 315.274 170.207 315.274 170.568C315.274 171.148 315.399 171.599 315.653 171.924C315.904 172.25 316.283 172.413 316.789 172.413C317.798 172.413 319.205 171.691 321.01 170.242C322.811 168.796 324.743 166.753 326.799 164.11C328.855 161.47 330.711 158.52 332.372 155.264L333.779 155.916C331.758 159.679 329.683 163.025 327.557 165.955C325.428 168.885 322.776 171.346 319.603 173.335C316.427 175.324 312.604 176.32 308.132 176.32C304.523 176.32 301.817 175.324 300.015 173.335C298.211 171.346 297.31 168.362 297.31 164.381C294.496 168.579 291.807 171.618 289.248 173.498C286.686 175.378 283.385 176.32 279.346 176.32C275.017 176.32 271.462 174.928 268.686 172.141C265.908 169.357 264.52 165.722 264.52 161.234C264.52 152.698 268.432 144.14 276.262 135.566C284.088 126.991 292.765 122.704 302.288 122.704C304.523 122.704 306.544 123.247 308.348 124.332C310.15 125.418 311.054 127.119 311.054 129.433L310.729 132.038L314.517 123.79H335.835ZM309.647 129.651C309.647 128.495 309.411 127.643 308.943 127.1C308.473 126.557 307.734 126.286 306.725 126.286C305.353 126.286 303.784 127.371 302.017 129.542C300.248 131.713 297.959 135.511 295.146 140.938C292.332 146.365 289.518 152.372 286.705 158.955C283.891 165.54 282.484 169.808 282.484 171.761C282.484 172.413 282.628 172.92 282.917 173.281C283.204 173.645 283.637 173.824 284.216 173.824C286.45 173.824 288.58 172.722 290.6 170.513C292.619 168.307 294.172 166.427 295.254 164.87C296.336 163.315 297.759 160.675 299.528 156.947C301.295 153.221 303.424 148.427 305.913 142.566C308.402 136.705 309.647 132.402 309.647 129.651Z" fill="#FFE1FE"/>
<path d="M265.369 129.363C265.369 136.994 263.711 143.87 260.401 149.986C257.089 156.106 252.553 161.073 246.794 164.887C241.033 168.704 234.518 171.42 227.247 173.039C219.974 174.659 211.624 175.469 202.193 175.469L155 175.253V173.525L160.94 173.093C163.602 172.807 165.564 171.96 166.825 170.556C168.083 169.152 169.795 165.986 171.955 161.054C174.115 156.125 176.653 150.059 179.568 142.86C182.484 135.663 184.768 129.941 186.426 125.692C188.081 121.446 189.898 116.784 191.88 111.709C193.859 106.634 194.85 103.413 194.85 102.045C194.85 100.463 194.056 99.4373 192.474 98.9676C190.889 98.5006 187.722 98.2657 182.97 98.2657V96.5381L224.98 96.3221C239.162 96.3221 249.44 99.6343 255.812 106.256C262.183 112.88 265.369 120.582 265.369 129.363ZM240.315 113.382C240.315 109.425 239.397 106.078 237.561 103.341C235.725 100.606 233.781 99.1133 231.729 98.8596C229.677 98.6085 228.147 98.4655 227.14 98.4277C226.13 98.3926 225.158 98.3737 224.224 98.3737C223.36 100.39 220.552 107.158 215.8 118.673C211.049 130.192 206.297 141.818 201.545 153.55C196.793 165.284 194.129 171.906 193.554 173.417H203.057C212.631 173.417 221.235 166.653 228.867 153.118C236.497 139.586 240.315 126.34 240.315 113.382Z" fill="#FFE1FE"/>
<path d="M345.097 201C340.511 201 336.688 199.759 333.63 197.284C330.572 194.805 329.043 191.89 329.043 188.54C329.043 185.916 330.026 183.583 331.992 181.544C333.958 179.503 336.614 178.484 339.964 178.484C342.73 178.484 345.114 179.375 347.118 181.162C349.119 182.946 350.121 185.151 350.121 187.774C350.121 191.709 348.226 194.223 344.442 195.316C342.547 195.606 341.201 195.808 340.401 195.917C339.599 196.027 339.2 196.48 339.2 197.284C339.2 197.94 339.582 198.431 340.349 198.759C341.114 199.087 342.263 199.251 343.792 199.251C347.582 199.251 351.044 197.579 354.178 194.234C357.31 190.887 359.991 187.031 362.213 182.67C364.436 178.303 367.371 171.904 371.016 163.466L370.688 163.356C367.917 167.682 365.017 170.999 361.989 173.308C358.962 175.617 355.333 176.771 351.101 176.771C347.751 176.771 344.838 175.729 342.364 173.65C339.888 171.57 338.651 168.373 338.651 164.064C338.651 162.094 339.124 159.829 340.071 157.271C341.016 154.716 342.091 152.158 343.293 149.604C344.494 147.049 346.55 143.067 349.463 137.665C352.374 132.26 353.831 129.047 353.831 128.025C353.831 127.443 353.684 127.005 353.395 126.713C353.103 126.423 352.666 126.276 352.084 126.276C350.263 126.276 348.352 127.516 346.351 129.995C344.347 132.476 342.583 134.897 341.054 137.269C339.525 139.641 338.324 141.551 337.45 143.01L336.03 142.351C340.106 135.621 343.566 130.664 346.405 127.481C349.245 124.297 353.285 122.704 358.528 122.704C362.312 122.704 365.189 123.89 367.155 126.265C369.121 128.639 370.104 131.503 370.104 134.861C370.104 137.419 369.812 139.499 369.23 141.105C368.646 142.712 367.627 145.048 366.172 148.117C364.714 151.186 362.585 155.402 359.783 160.769C356.979 166.135 355.579 169.66 355.579 171.338C355.579 172.068 355.743 172.617 356.07 172.983C356.398 173.349 356.889 173.53 357.545 173.53C358.345 173.53 359.292 173.202 360.384 172.543C361.476 171.887 362.658 170.92 363.933 169.644C365.206 168.368 366.571 166.69 368.029 164.611C369.484 162.531 370.994 159.867 372.561 156.621C374.126 153.372 376.4 148.319 379.387 141.458C382.371 134.599 384.173 130.347 384.793 128.705C385.41 127.063 386.049 125.44 386.704 123.836H408C406.979 126.314 405.504 129.957 403.577 134.766C401.647 139.575 399.662 144.423 397.625 149.303C395.585 154.186 392.473 161.272 388.287 170.562C384.099 179.853 378.439 187.247 371.305 192.75C364.171 198.248 355.434 201 345.097 201Z" fill="#FFE1FE"/>
</g>
<defs>
<filter id="filter0_d_14_298" x="0" y="0" width="418" height="211" filterUnits="userSpaceOnUse" color-interpolation-filters="sRGB">
<feFlood flood-opacity="0" result="BackgroundImageFix"/>
<feColorMatrix in="SourceAlpha" type="matrix" values="0 0 0 0 0 0 0 0 0 0 0 0 0 0 0 0 0 0 127 0" result="hardAlpha"/>
<feOffset/>
<feGaussianBlur stdDeviation="5"/>
<feComposite in2="hardAlpha" operator="out"/>
<feColorMatrix type="matrix" values="0 0 0 0 0.729412 0 0 0 0 0.309804 0 0 0 0 0.839216 0 0 0 1 0"/>
<feBlend mode="normal" in2="BackgroundImageFix" result="effect1_dropShadow_14_298"/>
<feBlend mode="normal" in="SourceGraphic" in2="effect1_dropShadow_14_298" result="shape"/>
</filter>
</defs>
</svg>
