<svg width="1129" height="308" viewBox="0 0 1129 308" fill="none" xmlns="http://www.w3.org/2000/svg">
<g filter="url(#filter0_d_418_50)">
<path d="M350.933 50.9742L262.923 267.216H205.717L118 50.9742H180.779L236.517 191.843L293.435 50.9742H350.933Z" fill="#FFECFD"/>
</g>
<g filter="url(#filter1_d_418_50)">
<path d="M382.322 258.879C368.63 251.463 357.921 241.167 350.199 227.986C342.473 214.811 338.612 199.873 338.612 183.193C338.612 166.513 342.473 151.893 350.199 138.707C357.921 125.532 368.582 115.281 382.178 107.971C395.77 100.666 411.17 97.0056 428.382 97.0056C445.595 97.0056 461.042 100.666 474.735 107.971C488.422 115.281 499.084 125.476 506.714 138.556C514.339 151.636 518.157 166.513 518.157 183.193C518.157 199.873 514.344 214.811 506.714 227.986C499.088 241.167 488.422 251.463 474.735 258.879C461.042 266.294 445.59 270 428.382 270C411.174 270 396.01 266.294 382.322 258.879ZM452.439 212.696C458.697 205.592 461.824 195.76 461.824 183.193C461.824 170.627 458.692 161.157 452.439 154.154C446.175 147.155 438.161 143.651 428.382 143.651C418.603 143.651 410.585 147.155 404.326 154.154C398.062 161.157 394.94 170.833 394.94 183.193C394.94 195.553 398.067 205.592 404.326 212.696C410.585 219.8 418.599 223.354 428.382 223.354C438.166 223.354 446.175 219.8 452.439 212.696Z" fill="#FFECFD"/>
</g>
<g filter="url(#filter2_d_418_50)">
<path d="M577.996 258.879C564.107 251.463 553.302 241.167 545.58 227.986C537.854 214.811 533.993 199.873 533.993 183.193C533.993 166.513 537.854 151.636 545.58 138.556C553.302 125.481 564.107 115.286 577.996 107.971C591.88 100.666 607.625 97.0056 625.226 97.0056C642.827 97.0056 658.764 101.074 671.871 109.21C684.973 117.345 694.263 128.623 699.74 143.037L656.615 166.206C649.378 151.178 638.818 143.656 624.933 143.656C614.958 143.656 606.694 147.16 600.143 154.159C593.587 161.162 590.316 170.838 590.316 183.198C590.316 195.558 593.587 205.597 600.143 212.701C606.694 219.805 614.958 223.359 624.933 223.359C638.818 223.359 649.378 215.843 656.615 200.809L699.74 223.979C694.263 238.398 684.969 249.67 671.871 257.806C658.764 265.942 643.215 270.01 625.226 270.01C607.236 270.01 591.88 266.305 577.996 258.889V258.879Z" fill="#FFECFD"/>
</g>
<g filter="url(#filter3_d_418_50)">
<path d="M887.203 99.7848V267.216H834.103V250.536C823.734 263.51 808.09 270 787.165 270C772.691 270 759.54 266.446 747.709 259.342C735.873 252.238 726.487 242.093 719.547 228.913C712.603 215.737 709.13 200.492 709.13 183.193C709.13 165.894 712.603 150.71 719.547 137.63C726.487 124.555 735.873 114.516 747.709 107.513C759.54 100.515 772.691 97.0107 787.165 97.0107C805.941 97.0107 820.703 102.78 831.465 114.31V99.7899H887.203V99.7848ZM822.957 212.696C829.216 205.592 832.342 195.76 832.342 183.193C832.342 170.627 829.211 161.157 822.957 154.154C816.693 147.155 808.679 143.651 798.901 143.651C789.122 143.651 781.103 147.155 774.844 154.154C768.581 161.157 765.454 170.833 765.454 183.193C765.454 195.553 768.581 205.592 774.844 212.696C781.103 219.8 789.117 223.354 798.901 223.354C808.684 223.354 816.693 219.8 822.957 212.696Z" fill="#FFECFD"/>
</g>
<g filter="url(#filter4_d_418_50)">
<path d="M939.272 254.086C928.419 243.483 922.99 228.293 922.99 208.522V38H978.728V205.431C978.728 211.609 980.239 216.351 983.275 219.639C986.306 222.936 990.56 224.583 996.037 224.583C1000.54 224.583 1004.74 223.556 1008.65 221.492L1011 265.665C1002.58 268.545 993.879 269.99 984.886 269.99C965.329 269.99 950.121 264.688 939.267 254.081L939.272 254.086Z" fill="#FFECFD"/>
</g>
<defs>
<filter id="filter0_d_418_50" x="108" y="40.9742" width="272.933" height="256.242" filterUnits="userSpaceOnUse" color-interpolation-filters="sRGB">
<feFlood flood-opacity="0" result="BackgroundImageFix"/>
<feColorMatrix in="SourceAlpha" type="matrix" values="0 0 0 0 0 0 0 0 0 0 0 0 0 0 0 0 0 0 127 0" result="hardAlpha"/>
<feOffset dx="10" dy="10"/>
<feGaussianBlur stdDeviation="10"/>
<feComposite in2="hardAlpha" operator="out"/>
<feColorMatrix type="matrix" values="0 0 0 0 0 0 0 0 0 0 0 0 0 0 0 0 0 0 0.4 0"/>
<feBlend mode="normal" in2="BackgroundImageFix" result="effect1_dropShadow_418_50"/>
<feBlend mode="normal" in="SourceGraphic" in2="effect1_dropShadow_418_50" result="shape"/>
</filter>
<filter id="filter1_d_418_50" x="328.612" y="87.0056" width="219.545" height="212.994" filterUnits="userSpaceOnUse" color-interpolation-filters="sRGB">
<feFlood flood-opacity="0" result="BackgroundImageFix"/>
<feColorMatrix in="SourceAlpha" type="matrix" values="0 0 0 0 0 0 0 0 0 0 0 0 0 0 0 0 0 0 127 0" result="hardAlpha"/>
<feOffset dx="10" dy="10"/>
<feGaussianBlur stdDeviation="10"/>
<feComposite in2="hardAlpha" operator="out"/>
<feColorMatrix type="matrix" values="0 0 0 0 0 0 0 0 0 0 0 0 0 0 0 0 0 0 0.4 0"/>
<feBlend mode="normal" in2="BackgroundImageFix" result="effect1_dropShadow_418_50"/>
<feBlend mode="normal" in="SourceGraphic" in2="effect1_dropShadow_418_50" result="shape"/>
</filter>
<filter id="filter2_d_418_50" x="523.993" y="87.0056" width="205.747" height="213.004" filterUnits="userSpaceOnUse" color-interpolation-filters="sRGB">
<feFlood flood-opacity="0" result="BackgroundImageFix"/>
<feColorMatrix in="SourceAlpha" type="matrix" values="0 0 0 0 0 0 0 0 0 0 0 0 0 0 0 0 0 0 127 0" result="hardAlpha"/>
<feOffset dx="10" dy="10"/>
<feGaussianBlur stdDeviation="10"/>
<feComposite in2="hardAlpha" operator="out"/>
<feColorMatrix type="matrix" values="0 0 0 0 0 0 0 0 0 0 0 0 0 0 0 0 0 0 0.4 0"/>
<feBlend mode="normal" in2="BackgroundImageFix" result="effect1_dropShadow_418_50"/>
<feBlend mode="normal" in="SourceGraphic" in2="effect1_dropShadow_418_50" result="shape"/>
</filter>
<filter id="filter3_d_418_50" x="699.13" y="87.0107" width="218.072" height="212.989" filterUnits="userSpaceOnUse" color-interpolation-filters="sRGB">
<feFlood flood-opacity="0" result="BackgroundImageFix"/>
<feColorMatrix in="SourceAlpha" type="matrix" values="0 0 0 0 0 0 0 0 0 0 0 0 0 0 0 0 0 0 127 0" result="hardAlpha"/>
<feOffset dx="10" dy="10"/>
<feGaussianBlur stdDeviation="10"/>
<feComposite in2="hardAlpha" operator="out"/>
<feColorMatrix type="matrix" values="0 0 0 0 0 0 0 0 0 0 0 0 0 0 0 0 0 0 0.4 0"/>
<feBlend mode="normal" in2="BackgroundImageFix" result="effect1_dropShadow_418_50"/>
<feBlend mode="normal" in="SourceGraphic" in2="effect1_dropShadow_418_50" result="shape"/>
</filter>
<filter id="filter4_d_418_50" x="912.99" y="28" width="128.005" height="271.99" filterUnits="userSpaceOnUse" color-interpolation-filters="sRGB">
<feFlood flood-opacity="0" result="BackgroundImageFix"/>
<feColorMatrix in="SourceAlpha" type="matrix" values="0 0 0 0 0 0 0 0 0 0 0 0 0 0 0 0 0 0 127 0" result="hardAlpha"/>
<feOffset dx="10" dy="10"/>
<feGaussianBlur stdDeviation="10"/>
<feComposite in2="hardAlpha" operator="out"/>
<feColorMatrix type="matrix" values="0 0 0 0 0 0 0 0 0 0 0 0 0 0 0 0 0 0 0.4 0"/>
<feBlend mode="normal" in2="BackgroundImageFix" result="effect1_dropShadow_418_50"/>
<feBlend mode="normal" in="SourceGraphic" in2="effect1_dropShadow_418_50" result="shape"/>
</filter>
</defs>
</svg>
