<svg width="444" height="140" viewBox="0 0 444 140" fill="none" xmlns="http://www.w3.org/2000/svg">
<g filter="url(#filter0_d_58_661)">
<path d="M80.8467 34.5692C78.2164 38.3536 74.1299 44.5666 68.5871 53.2083C63.0443 61.8499 57.2908 70.9046 51.3358 80.3677C45.3808 89.8309 40.882 96.9911 37.844 101.848H23.6755V27.2833L23.4291 21.3576C23.1826 18.7225 22.627 16.8954 21.7667 15.8629C20.9064 14.8348 19.1992 14.157 16.6541 13.8248L10 13.331V11.3557H67.1756V13.331L60.5215 13.7036C57.9719 13.9505 56.2692 14.5475 55.4089 15.4947C54.5441 16.442 53.9929 18.3139 53.7465 21.1107L53.5001 27.0364V71.973C55.391 69.0909 58.2005 64.732 61.942 58.8871C65.679 53.0422 69.313 47.4487 72.8483 42.0976C76.3793 36.7465 79.9953 31.5615 83.692 26.5426C87.3887 21.5237 91.2915 17.5104 95.396 14.5071C99.5049 11.5039 104.635 10 110.801 10C115.811 10 120.126 11.441 123.742 14.3186C127.358 17.2006 129.164 21.1062 129.164 26.0443C129.164 31.0632 127.663 35.2426 124.665 38.5736C121.667 41.9045 117.742 43.5745 112.898 43.5745C108.462 43.5745 104.622 42.34 101.378 39.8709C98.1337 37.4019 96.5117 34.026 96.5117 29.7479C96.5117 28.0195 96.6954 26.601 97.0673 25.4876C97.4392 24.3743 97.95 23.3059 98.6087 22.2779C99.2674 21.2499 100.15 20.0961 101.257 18.8212C102.368 17.5463 102.919 16.5362 102.919 15.7955C102.919 15.1401 102.467 14.8079 101.566 14.8079C100.661 14.8079 99.72 15.0144 98.7342 15.4274C97.7484 15.8404 96.4131 16.7427 94.7283 18.1434C93.0435 19.544 91.175 21.416 89.1228 23.7593C87.0481 26.1161 84.2969 29.7164 80.8467 34.5692Z" fill="#FFE1FE"/>
<path d="M177.947 66.0518C177.947 75.3533 173.981 83.766 166.055 91.2989C158.128 98.8272 148.454 102.594 137.037 102.594C133.586 102.594 130.463 101.934 127.672 100.618C124.88 99.3031 121.9 96.9552 118.737 93.5794C115.573 90.2035 113.992 85.0634 113.992 78.1456C113.992 69.0101 117.912 60.6378 125.758 53.0242C133.604 45.4106 143.319 41.6038 154.902 41.6038C158.513 41.6038 161.637 42.2412 164.267 43.5161C166.897 44.7911 169.402 46.7079 171.781 49.2578C174.165 51.8076 175.787 54.5056 176.647 57.3428C177.517 60.1889 177.947 63.0889 177.947 66.0518ZM160.942 47.9021C160.942 46.5867 160.633 45.5587 160.019 44.8135C159.401 44.0728 158.397 43.7047 156.999 43.7047C155.52 43.7047 153.916 44.7147 152.191 46.7304C150.466 48.746 147.979 52.9838 144.735 59.4482C141.491 65.9081 138.39 72.8618 135.433 80.3094C132.475 87.7569 130.996 93.0047 130.996 96.0484C130.996 97.6106 131.324 98.7868 131.982 99.5679C132.636 100.349 133.627 100.74 134.94 100.74C136.338 100.74 137.816 99.8328 139.376 98.0236C140.935 96.2145 143.216 92.4256 146.213 86.666C149.211 80.9064 152.415 73.8495 155.825 65.4951C159.235 57.1408 160.942 51.2779 160.942 47.9021Z" fill="#FFE1FE"/>
<path d="M236.476 42.8428L234.871 46.7932H221.07L202.461 91.8555C201.888 93.2561 201.516 94.2842 201.355 94.9441C201.189 95.604 201.108 96.2594 201.108 96.9193C201.108 97.66 201.274 98.2167 201.601 98.5848C201.928 98.9574 202.381 99.1415 202.954 99.1415C204.021 99.1415 205.275 98.6701 206.714 97.7229C208.152 96.7757 209.649 95.5007 211.212 93.8936C212.772 92.291 214.394 90.2933 216.079 87.9051C217.763 85.5213 219.139 83.2947 220.206 81.2386L221.81 82.1051C217.786 88.8523 213.901 93.9565 210.164 97.4131C206.427 100.87 201.803 102.598 196.3 102.598C191.537 102.598 187.961 101.18 185.582 98.3379C183.198 95.4962 182.006 92.1024 182.006 88.152C182.006 86.3428 182.212 84.7582 182.625 83.3979C183.037 82.0422 183.736 80.0849 184.722 77.5351L197.537 46.7977H186.94L188.544 42.8473H199.141L208.999 19.0232H232.783L222.8 42.8473H236.476V42.8428Z" fill="#FFE1FE"/>
<path d="M228.343 61.6075C232.945 53.3788 236.946 47.9874 240.356 45.433C243.766 42.8832 247.48 41.6082 251.509 41.6082C255.12 41.6082 258.266 42.8248 260.936 45.249C263.607 47.6776 264.942 51.3183 264.942 56.1756C264.942 58.3169 264.449 60.7411 263.464 63.4615C262.478 66.1775 261.12 69.3244 259.4 72.9067C257.674 76.4891 255.291 80.9738 252.253 86.3653C249.215 91.7568 247.696 95.2359 247.696 96.7981C247.696 97.5388 247.879 98.0955 248.251 98.4636C248.623 98.8317 249.174 99.0202 249.914 99.0202C250.819 99.0202 252.011 98.5085 253.489 97.476C254.968 96.4479 256.406 95.0698 257.8 93.3414C259.198 91.6131 260.654 89.6199 262.173 87.3529C263.692 85.0903 264.947 83.0523 265.933 81.2431L267.537 82.1095C263.101 89.3506 259.382 94.576 256.384 97.7857C253.386 100.995 248.847 102.603 242.767 102.603C238.331 102.603 234.961 101.305 232.662 98.715C230.364 96.1247 229.212 92.8521 229.212 88.9016C229.212 86.2665 229.602 83.9007 230.382 81.8043C231.161 79.7033 232.806 76.1883 235.31 71.2502C237.815 66.3121 240.011 61.9083 241.902 58.0431C243.793 54.1734 245.025 51.5428 245.599 50.1422C246.172 48.7415 246.463 47.7135 246.463 47.0536C246.463 46.479 246.32 46.048 246.033 45.7562C245.746 45.4689 245.312 45.3253 244.738 45.3253C244.165 45.3253 243.197 45.8415 241.844 46.8695C240.486 47.8976 238.72 49.7112 236.543 52.3014C234.365 54.8917 232.169 58.2496 229.951 62.3617L228.343 61.6075ZM253.48 21.4833C253.48 18.1074 254.632 15.3511 256.931 13.2098C259.229 11.0684 261.98 10 265.184 10C268.469 10 271.265 11.0684 273.563 13.2098C275.862 15.3511 277.014 18.1074 277.014 21.4833C277.014 24.7739 275.844 27.5123 273.501 29.694C271.157 31.8757 268.388 32.9666 265.184 32.9666C261.9 32.9666 259.126 31.8757 256.868 29.694C254.61 27.5123 253.48 24.7783 253.48 21.4833Z" fill="#FFE1FE"/>
<path d="M333.575 41.5768C337.438 41.5768 340.74 42.7934 343.496 45.2175C346.247 47.6462 347.623 51.2869 347.623 56.1442C347.623 58.3663 347.17 60.7321 346.265 63.2416C345.36 65.751 344.253 68.449 342.936 71.3266C341.623 74.2086 339.279 78.8998 335.914 85.4001C332.545 91.9004 330.86 95.7297 330.86 96.8834C330.86 97.5433 331.026 98.0371 331.353 98.3648C331.68 98.6925 332.173 98.8586 332.831 98.8586C333.651 98.8586 334.758 98.3648 336.156 97.3772C337.554 96.3896 339.463 94.54 341.887 91.8286C344.311 89.1171 346.879 85.0455 349.59 79.6225L351.194 80.4889C347.412 87.2496 343.778 92.6277 340.287 96.6275C336.797 100.627 331.886 102.625 325.563 102.625C321.208 102.625 317.924 101.31 315.706 98.6746C313.488 96.0394 312.381 92.7893 312.381 88.9241C312.381 86.289 312.668 84.1521 313.241 82.5046C313.815 80.8571 315.562 77.0727 318.479 71.147C321.396 65.2213 323.798 60.364 325.689 56.5796C327.575 52.7953 328.525 49.8324 328.525 47.6911C328.525 46.8695 328.359 46.2725 328.032 45.8999C327.705 45.5318 327.172 45.3432 326.433 45.3432C325.447 45.3432 324.192 45.9627 322.673 47.1928C321.154 48.4273 319.366 50.4025 317.314 53.114C315.257 55.8299 313.125 59.5335 310.907 64.2202L293.041 101.359H269.015L289.963 54.4742C290.456 53.2397 291.03 51.8615 291.688 50.3397C292.347 48.8179 292.674 47.7315 292.674 47.0716C292.674 46.4969 292.553 46.0839 292.302 45.837C292.056 45.5901 291.684 45.4644 291.195 45.4644C290.044 45.4644 288.731 45.9807 287.252 47.0042C285.774 48.0322 284.313 49.37 282.879 51.0131C281.441 52.6561 279.881 54.7301 278.196 57.2395C276.512 59.749 274.849 62.3572 273.205 65.0686L271.605 64.3279C275.548 57.4056 279.429 51.884 283.251 47.7584C287.068 43.6374 291.773 41.5723 297.361 41.5723C301.304 41.5723 304.405 42.7889 306.663 45.222C308.922 47.6552 310.051 51.0535 310.051 55.4259C310.051 57.4056 309.867 59.1968 309.495 60.8039C309.123 62.4111 308.818 63.7129 308.572 64.7005C312.269 57.2799 315.822 51.5742 319.232 47.5744C322.628 43.579 327.414 41.5768 333.575 41.5768Z" fill="#FFE1FE"/>
<path d="M434 42.8428C431.289 50.003 428.35 57.5942 425.191 65.6208C422.028 73.6475 418.022 83.2947 413.173 94.5715C408.325 105.848 401.953 114.571 394.049 120.743C386.149 126.916 375.817 130 363.06 130C358.037 130 353.78 128.644 350.28 125.933C346.785 123.217 345.033 120.012 345.033 116.313C345.033 113.354 346.086 110.701 348.192 108.358C350.303 106.014 353.17 104.843 356.804 104.843C359.941 104.843 362.625 105.871 364.856 107.927C367.088 109.983 368.199 112.488 368.199 115.446C368.199 118.077 367.294 120.294 365.488 122.104C363.682 123.913 361.299 124.815 358.341 124.815C357.436 124.815 356.984 125.143 356.984 125.803C356.984 126.377 357.499 126.894 358.525 127.347C359.551 127.796 361.052 128.025 363.028 128.025C367.384 128.025 371.251 126.148 374.625 122.404C377.994 118.656 381.14 113.592 384.061 107.208C386.978 100.829 389.797 94.549 392.512 88.3719L392.14 88.2462C389.34 92.7893 386.338 96.3267 383.129 98.8452C379.921 101.364 376.009 102.625 371.403 102.625C366.465 102.625 362.352 101.018 359.058 97.8082C355.765 94.5984 354.12 90.3966 354.12 85.2071C354.12 75.4117 358.413 65.6926 367.003 56.0589C375.593 46.4251 385.392 41.6082 396.411 41.6082C399.202 41.6082 401.608 42.2278 403.625 43.4578C405.641 44.6923 406.645 46.7887 406.645 49.7516L406.519 51.848L410.342 42.8383H434V42.8428ZM404.92 49.8773C404.92 48.4767 404.633 47.4307 404.059 46.7304C403.486 46.0301 402.581 45.6799 401.348 45.6799C399.95 45.6799 398.288 46.892 396.357 49.3206C394.426 51.7493 392.024 55.7806 389.147 61.4145C386.27 67.0484 383.17 73.9168 379.845 82.0198C376.52 90.1227 374.853 95.2449 374.853 97.3817C374.853 98.1224 375.019 98.697 375.346 99.11C375.673 99.523 376.166 99.7295 376.825 99.7295C379.455 99.7295 381.92 98.4546 384.218 95.9048C386.517 93.3549 388.179 91.3213 389.21 89.7995C390.236 88.2777 391.8 85.2744 393.892 80.7942C395.985 76.314 398.346 70.8238 400.977 64.3234C403.607 57.8142 404.92 53.0018 404.92 49.8773Z" fill="#FFE1FE"/>
</g>
<defs>
<filter id="filter0_d_58_661" x="0" y="0" width="444" height="140" filterUnits="userSpaceOnUse" color-interpolation-filters="sRGB">
<feFlood flood-opacity="0" result="BackgroundImageFix"/>
<feColorMatrix in="SourceAlpha" type="matrix" values="0 0 0 0 0 0 0 0 0 0 0 0 0 0 0 0 0 0 127 0" result="hardAlpha"/>
<feOffset/>
<feGaussianBlur stdDeviation="5"/>
<feComposite in2="hardAlpha" operator="out"/>
<feColorMatrix type="matrix" values="0 0 0 0 0.729412 0 0 0 0 0.309804 0 0 0 0 0.839216 0 0 0 1 0"/>
<feBlend mode="normal" in2="BackgroundImageFix" result="effect1_dropShadow_58_661"/>
<feBlend mode="normal" in="SourceGraphic" in2="effect1_dropShadow_58_661" result="shape"/>
</filter>
</defs>
</svg>
