<?xml version="1.0" encoding="utf-8"?>
<!-- Generator: Adobe Illustrator 25.0.0, SVG Export Plug-In . SVG Version: 6.00 Build 0)  -->
<svg version="1.1" id="Слой_1" xmlns="http://www.w3.org/2000/svg" xmlns:xlink="http://www.w3.org/1999/xlink" x="0px" y="0px"
	 viewBox="0 0 1920 1080" style="enable-background:new 0 0 1920 1080;" xml:space="preserve">
<style type="text/css">
	.st0{fill:#FFE1FE;}
</style>
<g>
	<path class="st0" d="M401.78,166.46l-88,134.75h-29.42v-166.1l-0.55-13.2c-0.55-5.87-1.79-9.94-3.71-12.24
		c-1.92-2.29-5.73-3.8-11.41-4.54l-14.85-1.1v-4.4h117.7v4.4l-5.77,0.55c-5.5,0.55-9.12,1.88-10.86,3.99
		c-1.74,2.11-2.89,6.37-3.44,12.79l-0.55,13.2v97.9l50.88-77v-20.35l-0.55-13.2c-0.55-5.31-1.38-9.39-2.48-12.24
		c-1.1-2.84-5.04-4.63-11.83-5.36l-5.5-0.28v-4.4h117.43v4.4L484,104.86c-5.68,0.55-9.49,1.88-11.41,3.99
		c-1.92,2.11-3.16,6.28-3.71,12.51l-0.55,13.2v98.72c4.03-6.42,7.88-12.42,11.55-18.01c3.67-5.59,11.83-17.83,24.48-36.71
		c12.65-18.88,23.19-33.92,31.62-45.1c8.43-11.18,17.23-20.12,26.4-26.81c9.17-6.69,20.72-10.04,34.65-10.04
		c11.73,0,21.49,3.44,29.29,10.31c7.79,6.88,11.69,15.81,11.69,26.81c0,10.82-3.58,19.8-10.73,26.95
		c-7.15,7.15-16.13,10.72-26.95,10.72c-9.9,0-18.33-2.93-25.3-8.8c-6.97-5.87-10.45-13.57-10.45-23.1c0-3.48,0.41-6.28,1.24-8.39
		c0.83-2.11,1.97-4.44,3.44-7.01c1.47-2.57,3.48-5.23,6.05-7.98c2.57-2.75,3.85-5.04,3.85-6.88c0-1.65-1.01-2.48-3.02-2.48
		c-1.65,0-3.71,0.6-6.19,1.79c-2.48,1.19-5.77,3.44-9.9,6.74c-4.12,3.3-8.57,7.93-13.34,13.89c-4.77,5.96-10.04,12.97-15.81,21.04
		c-5.78,8.07-15.72,23.06-29.84,44.96c-14.12,21.91-27.13,42.35-39.05,61.33c-11.92,18.98-21.27,33.87-28.05,44.69h-32.18V166.46z"
		/>
	<path class="st0" d="M747.17,221.46c0,20.72-8.85,39.46-26.54,56.24c-17.69,16.77-39.28,25.16-64.76,25.16
		c-7.7,0-14.67-1.47-20.9-4.4c-6.23-2.93-12.88-8.16-19.94-15.68c-7.06-7.52-10.59-18.97-10.59-34.38c0-20.35,8.75-39,26.26-55.96
		c17.51-16.96,39.19-25.44,65.04-25.44c8.06,0,15.03,1.42,20.9,4.26c5.87,2.84,11.46,7.11,16.77,12.79
		c5.32,5.68,8.94,11.69,10.86,18.01C746.21,208.4,747.17,214.86,747.17,221.46z M709.22,181.03c0-2.93-0.69-5.22-2.06-6.88
		c-1.38-1.65-3.62-2.47-6.74-2.47c-3.3,0-6.88,2.25-10.73,6.74c-3.85,4.49-9.4,13.93-16.64,28.33
		c-7.24,14.39-14.16,29.88-20.76,46.47c-6.6,16.59-9.9,28.28-9.9,35.06c0,3.48,0.73,6.1,2.2,7.84c1.46,1.74,3.67,2.61,6.6,2.61
		c3.12,0,6.42-2.02,9.9-6.05c3.48-4.03,8.57-12.47,15.26-25.3c6.69-12.83,13.84-28.55,21.45-47.16
		C705.42,201.61,709.22,188.55,709.22,181.03z"/>
	<path class="st0" d="M1015.3,256.92c-9.54,15.06-18.2,26.5-25.99,34.3c-7.79,7.81-18.66,11.71-32.59,11.71
		c-9.54,0-16.73-3.02-21.59-9.08c-4.86-6.05-7.29-13.2-7.29-21.45c0-6.05,0.73-11.28,2.2-15.68c1.46-4.4,3.44-9.21,5.91-14.44
		c2.48-5.23,7.65-15.58,15.54-31.07c7.88-15.49,11.82-25.53,11.82-30.11c0-2.02-0.41-3.48-1.24-4.4c-0.82-0.92-2.16-1.38-3.99-1.38
		c-2.2,0-4.86,1.28-7.97,3.85c-3.12,2.56-6.97,6.92-11.55,13.05c-4.58,6.14-8.98,13.56-13.2,22.26c-4.22,8.71-9.81,20.57-16.78,35.6
		c-6.97,15.03-12.1,26.11-15.4,33.26c-3.3,7.15-5.87,12.73-7.7,16.76h-53.62c0.92-2.02,5.09-11.31,12.51-27.9
		c7.42-16.58,14.76-32.89,22-48.92c7.24-16.03,11.32-25.05,12.24-27.07c0.92-2.02,1.88-4.49,2.89-7.42c1.01-2.93,1.51-5.5,1.51-7.7
		c0-2.02-0.41-3.53-1.24-4.54c-0.83-1.01-2.06-1.51-3.71-1.51c-2.38,0-5.13,1.28-8.25,3.85c-3.12,2.56-6.28,5.96-9.49,10.17
		c-3.21,4.22-6.37,8.89-9.49,14.02c-3.12,5.13-5.68,9.9-7.7,14.3l-40.42,82.73H749.1l47.58-104.44c0.37-0.92,1.24-3.07,2.61-6.46
		s2.06-6.37,2.06-8.93c0-1.83-0.37-3.16-1.1-3.99c-0.73-0.82-1.83-1.24-3.3-1.24c-1.83,0-4.45,1.19-7.84,3.57
		c-3.39,2.38-6.79,5.5-10.18,9.34c-3.39,3.85-6.74,8.24-10.04,13.19c-3.3,4.95-6.88,10.9-10.72,17.85l-3.3-1.65
		c9.72-19.46,19.02-32.73,27.91-39.8c8.89-7.07,18.1-10.61,27.64-10.61c8.62,0,15.86,3.03,21.72,9.09c5.87,6.06,8.8,13.41,8.8,22.04
		c0,4.04-0.19,7.44-0.55,10.19c-0.37,2.76-0.92,5.42-1.65,7.99l0.83,0.27c10.27-20.2,19.29-33.52,27.09-39.95
		c7.79-6.43,16.36-9.65,25.71-9.65c9.53,0,17.37,2.62,23.51,7.85c6.14,5.24,9.21,12.17,9.21,20.81c0,4.04-0.46,7.72-1.38,11.02
		c-1.47,3.86-2.48,6.62-3.02,8.27c9.35-17.27,17.37-29.58,24.06-36.92c6.69-7.35,16.82-11.03,30.39-11.03
		c8.98,0,16.41,2.66,22.28,7.98c5.87,5.32,8.8,13.57,8.8,24.75c0,6.23-0.96,11.73-2.89,16.5c-1.92,4.77-4.95,11.46-9.07,20.08
		c-4.12,8.62-9.45,19.07-15.95,31.35c-6.51,12.28-9.76,19.8-9.76,22.55c0,1.65,0.37,2.93,1.1,3.85c0.73,0.92,1.74,1.38,3.03,1.38
		c5.32,0,10.91-3.25,16.78-9.75c5.87-6.5,10.36-12.04,13.47-16.62c3.12-4.58,6.14-9.25,9.08-14.01L1015.3,256.92z"/>
	<path class="st0" d="M1077.46,239.06c-1.1,3.48-2.11,8.01-3.03,13.6c-0.92,5.59-1.38,10.21-1.38,13.87
		c0,10.26,1.42,17.49,4.27,21.7s7.03,6.32,12.53,6.32c4.22,0,7.98-0.5,11.29-1.51c3.3-1.01,7.16-2.78,11.57-5.35
		c4.41-2.56,9.04-6.31,13.91-11.24c4.86-4.93,8.77-9.78,11.71-14.53l3.85,2.75c-7.71,10.83-16.8,19.92-27.27,27.25
		c-10.47,7.34-23.14,11.01-38.01,11.01c-13.57,0-26.26-4.08-38.09-12.24c-11.83-8.16-17.74-20.13-17.74-35.91
		c0-22.01,9.96-42.14,29.89-60.39c19.93-18.25,43.4-27.38,70.4-27.38c12.67,0,23.05,2.89,31.13,8.66
		c8.08,5.77,12.13,12.42,12.13,19.94c0,14.48-8.46,25.35-25.38,32.59C1122.33,235.44,1101.73,239.06,1077.46,239.06z
		 M1078.27,235.76c12.83-1.46,24.48-8.62,34.92-21.49c10.45-12.87,15.68-24.23,15.68-34.09c0-2.74-0.37-4.84-1.1-6.3
		c-0.73-1.46-2.38-2.19-4.95-2.19c-4.03,0-8.07,2.19-12.1,6.57c-4.04,4.38-8.34,10.5-12.92,18.34c-4.58,7.85-8.48,15.02-11.69,21.5
		C1082.9,224.58,1080.29,230.46,1078.27,235.76z"/>
	<path class="st0" d="M1298.82,166.94c8.62,0,15.99,2.71,22.14,8.11c6.14,5.41,9.21,13.52,9.21,24.34c0,4.95-1.01,10.22-3.03,15.81
		c-2.02,5.59-4.49,11.6-7.42,18.01c-2.93,6.42-8.16,16.87-15.67,31.35c-7.52,14.48-11.28,23.01-11.28,25.58
		c0,1.47,0.37,2.57,1.1,3.3c0.73,0.73,1.83,1.1,3.3,1.1c1.83,0,4.3-1.1,7.42-3.3c3.12-2.2,7.38-6.32,12.79-12.36
		c5.41-6.04,11.14-15.11,17.19-27.19l3.58,1.93c-8.43,15.06-16.55,27.04-24.34,35.95c-7.79,8.91-18.75,13.36-32.86,13.36
		c-9.72,0-17.05-2.93-22-8.8c-4.95-5.87-7.42-13.11-7.42-21.72c0-5.87,0.64-10.63,1.92-14.3c1.28-3.67,5.18-12.1,11.69-25.3
		c6.51-13.2,11.87-24.02,16.09-32.45c4.21-8.43,6.33-15.03,6.33-19.8c0-1.83-0.37-3.16-1.1-3.99c-0.73-0.82-1.92-1.24-3.58-1.24
		c-2.2,0-5,1.38-8.39,4.12c-3.39,2.75-7.38,7.15-11.96,13.19c-4.58,6.05-9.35,14.3-14.3,24.74l-39.88,82.73h-53.62l46.75-104.44
		c1.1-2.75,2.38-5.82,3.85-9.21c1.47-3.39,2.2-5.81,2.2-7.28c0-1.28-0.28-2.2-0.83-2.75c-0.55-0.55-1.38-0.83-2.47-0.83
		c-2.57,0-5.5,1.15-8.8,3.43c-3.3,2.29-6.56,5.27-9.76,8.93c-3.21,3.66-6.69,8.28-10.45,13.87c-3.76,5.59-7.47,11.4-11.14,17.44
		l-3.58-1.65c8.8-15.42,17.46-27.72,25.99-36.91c8.52-9.18,19.02-13.78,31.49-13.78c8.8,0,15.72,2.71,20.76,8.13
		c5.04,5.42,7.56,12.99,7.56,22.73c0,4.41-0.41,8.4-1.24,11.98c-0.82,3.58-1.51,6.48-2.06,8.68c8.25-16.53,16.18-29.24,23.79-38.15
		C1274.39,171.4,1285.07,166.94,1298.82,166.94z"/>
	<path class="st0" d="M1377.19,177.46c11.18,0,21.45-3.21,30.8-9.62c9.35-6.42,14.03-12.83,14.03-19.25c0-2.57-0.74-3.85-2.2-3.85
		c-4.95,1.28-8.07,1.92-9.35,1.92c-5.87,0-10.91-2.11-15.12-6.32c-4.22-4.22-6.33-9.08-6.33-14.58c0-7.33,2.38-13.79,7.15-19.39
		c4.77-5.59,11.28-8.39,19.53-8.39c7.94,0,14.65,2.8,20.12,8.39c5.47,5.59,8.21,12.24,8.21,19.94c0,15.03-6.46,28.05-19.39,39.05
		s-28.74,16.5-47.44,16.5V177.46z"/>
	<path class="st0" d="M1490.65,167.01c11.58,0,21.46,2.89,29.64,8.66c8.18,5.77,12.27,12.97,12.27,21.59
		c0,6.42-1.99,11.87-5.95,16.36c-3.97,4.49-9,6.74-15.08,6.74c-5.35,0-10.33-2.11-14.95-6.33c-4.61-4.21-6.92-9.26-6.92-15.12
		c0-3.3,0.87-6.28,2.61-8.94c1.74-2.66,3.67-4.54,5.78-5.64c2.11-1.1,4.77-1.97,7.97-2.61c3.21-0.64,4.81-1.88,4.81-3.71
		c0-1.65-1.51-3.21-4.54-4.67c-3.03-1.47-7.2-2.2-12.51-2.2c-7.33,0-13.38,1.79-18.15,5.38c-4.77,3.58-7.15,8.22-7.15,13.91
		c0,4.41,0.83,7.91,2.48,10.48c1.65,2.57,4.59,5.78,8.81,9.64l22.03,19.29c4.96,4.6,8.63,9.28,11.02,14.06
		c2.38,4.78,3.58,10.29,3.58,16.53c0,13.6-6.35,24.16-19.03,31.69c-12.69,7.53-26.76,11.3-42.2,11.3
		c-13.79,0-26.25-3.54-37.38-10.63c-11.12-7.09-16.68-16.35-16.68-27.77c0-6.08,2.08-11.27,6.23-15.61
		c4.15-4.33,9.45-6.49,15.91-6.49c5.35,0,10.33,2.2,14.94,6.6c4.61,4.4,6.92,9.53,6.92,15.4c0,4.22-1.19,7.88-3.58,11
		c-2.38,3.12-5.04,5-7.97,5.64c-2.93,0.64-5.36,1.19-7.29,1.65c-1.92,0.46-2.89,1.51-2.89,3.16c0,2.63,2.52,5.39,7.56,8.29
		c5.04,2.9,11.04,4.36,18.01,4.36c6.23,0,11.64-1.74,16.23-5.23c4.58-3.49,6.88-7.99,6.88-13.51c0-4.78-0.83-8.45-2.48-11.02
		c-1.65-2.57-4.17-5.37-7.56-8.4c-3.39-3.03-7.61-6.75-12.65-11.16c-5.04-4.41-8.89-8.22-11.55-11.43
		c-2.66-3.21-4.72-6.43-6.19-9.65c-1.47-3.21-2.2-7.39-2.2-12.54c0-12.31,5.56-23.56,16.68-33.76
		C1457.24,172.11,1472.09,167.01,1490.65,167.01z"/>
	<path class="st0" d="M1161.73,449.23c0,19.43-4.22,36.94-12.65,52.52c-8.44,15.58-19.98,28.23-34.65,37.95
		c-14.67,9.72-31.26,16.64-49.77,20.76c-18.52,4.12-39.78,6.19-63.8,6.19l-120.18-0.55v-4.4l15.12-1.1
		c6.78-0.73,11.78-2.89,14.99-6.46c3.21-3.58,7.56-11.64,13.06-24.2c5.5-12.55,11.96-28,19.39-46.34
		c7.43-18.33,13.24-32.9,17.46-43.72c4.21-10.81,8.84-22.69,13.89-35.61c5.04-12.93,7.56-21.13,7.56-24.61
		c0-4.03-2.02-6.64-6.05-7.84c-4.03-1.19-12.1-1.79-24.2-1.79v-4.4l106.98-0.55c36.12,0,62.29,8.43,78.51,25.3
		C1153.61,407.25,1161.73,426.87,1161.73,449.23z M1097.93,408.53c0-10.08-2.34-18.61-7.01-25.57c-4.68-6.97-9.62-10.77-14.85-11.41
		c-5.23-0.64-9.12-1.01-11.69-1.1c-2.57-0.09-5.04-0.14-7.42-0.14c-2.2,5.13-9.35,22.37-21.45,51.7
		c-12.1,29.33-24.2,58.95-36.3,88.83c-12.1,29.88-18.88,46.75-20.35,50.6h24.2c24.38,0,46.29-17.23,65.73-51.7
		C1088.21,475.27,1097.93,441.53,1097.93,408.53z"/>
	<path class="st0" d="M1339.37,435.76l-47.57,104.5c-0.55,1.1-1.47,3.48-2.75,7.15c-1.29,3.67-1.93,5.96-1.93,6.88
		c0,1.47,0.32,2.61,0.96,3.44c0.64,0.82,1.6,1.24,2.89,1.24c2.57,0,6.14-1.83,10.73-5.5c4.58-3.67,9.49-8.84,14.71-15.54
		c5.23-6.69,9.94-14.16,14.16-22.41l3.57,1.65c-5.13,9.54-10.41,18.01-15.81,25.44c-5.41,7.42-12.15,13.66-20.21,18.7
		c-8.07,5.04-17.78,7.56-29.15,7.56c-9.17,0-16.04-2.52-20.62-7.56c-4.58-5.04-6.88-12.6-6.88-22.69
		c-7.15,10.63-13.98,18.34-20.49,23.1c-6.51,4.76-14.9,7.15-25.16,7.15c-11,0-20.03-3.53-27.09-10.59
		c-7.06-7.06-10.59-16.27-10.59-27.64c0-21.63,9.94-43.31,29.84-65.04c19.89-21.72,41.94-32.59,66.14-32.59
		c5.68,0,10.82,1.38,15.4,4.12c4.58,2.75,6.88,7.06,6.88,12.93l-0.82,6.6l9.62-20.9H1339.37z M1272.82,450.61
		c0-2.93-0.6-5.09-1.79-6.46c-1.19-1.38-3.07-2.06-5.64-2.06c-3.48,0-7.47,2.75-11.96,8.25c-4.49,5.5-10.31,15.12-17.46,28.88
		s-14.3,28.97-21.45,45.65c-7.15,16.69-10.72,27.5-10.72,32.45c0,1.65,0.37,2.93,1.1,3.85c0.73,0.92,1.83,1.38,3.3,1.38
		c5.68,0,11.09-2.79,16.23-8.39c5.13-5.59,9.07-10.36,11.82-14.3c2.75-3.94,6.37-10.63,10.86-20.08c4.49-9.44,9.9-21.59,16.22-36.44
		C1269.66,468.48,1272.82,457.58,1272.82,450.61z"/>
	<path class="st0" d="M1363.57,629.91c-11.55,0-21.17-3.12-28.88-9.35c-7.7-6.24-11.55-13.57-11.55-22c0-6.6,2.48-12.47,7.42-17.6
		c4.95-5.13,11.64-7.7,20.08-7.7c6.97,0,12.97,2.24,18.01,6.74c5.04,4.49,7.56,10.04,7.56,16.64c0,9.9-4.77,16.22-14.3,18.97
		c-4.77,0.73-8.16,1.24-10.17,1.51c-2.02,0.27-3.02,1.42-3.02,3.44c0,1.65,0.96,2.89,2.89,3.71c1.92,0.83,4.82,1.24,8.67,1.24
		c9.54,0,18.26-4.21,26.16-12.62c7.89-8.42,14.64-18.12,20.23-29.1c5.6-10.99,12.99-27.09,22.16-48.31l-0.83-0.27
		c-6.98,10.88-14.28,19.23-21.9,25.04c-7.62,5.81-16.76,8.71-27.41,8.71c-8.43,0-15.77-2.62-22-7.85
		c-6.23-5.23-9.35-13.27-9.35-24.12c0-4.96,1.19-10.66,3.57-17.09c2.38-6.43,5.09-12.86,8.11-19.29c3.02-6.43,8.2-16.44,15.54-30.04
		c7.33-13.6,11-21.68,11-24.26c0-1.47-0.37-2.57-1.1-3.3c-0.73-0.73-1.83-1.1-3.3-1.1c-4.58,0-9.4,3.12-14.44,9.36
		c-5.04,6.24-9.49,12.34-13.34,18.3s-6.88,10.78-9.08,14.45l-3.57-1.66c10.27-16.93,18.98-29.4,26.12-37.41s17.32-12.01,30.52-12.01
		c9.53,0,16.77,2.99,21.73,8.96c4.95,5.97,7.42,13.18,7.42,21.63c0,6.43-0.73,11.67-2.2,15.71c-1.47,4.04-4.04,9.92-7.7,17.64
		c-3.67,7.72-9.03,18.33-16.09,31.83c-7.06,13.5-10.59,22.37-10.59,26.59c0,1.84,0.41,3.22,1.24,4.14s2.06,1.38,3.71,1.38
		c2.02,0,4.4-0.83,7.15-2.48c2.75-1.65,5.73-4.08,8.94-7.3c3.21-3.21,6.64-7.43,10.31-12.67c3.67-5.23,7.47-11.93,11.41-20.1
		c3.94-8.17,9.67-20.89,17.19-38.15c7.52-17.26,12.05-27.95,13.61-32.08c1.56-4.13,3.16-8.22,4.81-12.25h53.62
		c-2.57,6.23-6.28,15.4-11.14,27.5c-4.86,12.1-9.86,24.29-14.99,36.58c-5.13,12.28-12.97,30.11-23.51,53.49
		c-10.54,23.38-24.8,41.98-42.76,55.82C1411.6,622.99,1389.6,629.91,1363.57,629.91z"/>
</g>
</svg>
